<svg xmlns="http://www.w3.org/2000/svg" width="765.669" height="568.259" viewBox="0 0 765.669 568.259">
  <g id="Group_2660" data-name="Group 2660" transform="translate(-87.391 -123.669)">
    <g id="Group_2601" data-name="Group 2601" transform="translate(90.712 123.669)">
      <g id="Group_2600" data-name="Group 2600" transform="translate(0 0)">
        <circle id="Ellipse_116" data-name="Ellipse 116" cx="23.14" cy="23.14" r="23.14" transform="translate(45.16 109.771)" fill="#c5d9ff" opacity="0.31"/>
        <circle id="Ellipse_117" data-name="Ellipse 117" cx="38.273" cy="38.273" r="38.273" transform="translate(605.75 54.126) rotate(-45)" fill="#c5d9ff" opacity="0.31"/>
        <path id="Path_11270" data-name="Path 11270" d="M336.526,143.841A14.627,14.627,0,1,1,321.9,129.213,14.627,14.627,0,0,1,336.526,143.841Z" transform="translate(192.277 -116.535)" fill="#c5d9ff" opacity="0.31"/>
        <g id="Group_2599" data-name="Group 2599" transform="translate(54.313 96.842)">
          <g id="Group_2598" data-name="Group 2598">
            <g id="Group_2597" data-name="Group 2597">
              <g id="Group_2596" data-name="Group 2596">
                <path id="Path_11271" data-name="Path 11271" d="M112.81,502.968c-3.479-74.634,34.966-138.737,92.987-174.86a41.369,41.369,0,0,0,19.373-30.3q.117-1.005.247-2.013c10.639-81.946,90.321-139.514,175.194-128.413,81.184,10.619,139.626,51.851,131,131.26-.041.373-.087.917-.135,1.6-1.507,21.64,16.162,39.833,38.653,40.347q7.074.161,14.239.876c96.855,9.729,167.114,93.39,156.8,186.791-4.718,42.719-25.695,80.134-56.334,107.153H179.959C141.58,600.115,115.056,551.144,112.81,502.968Z" transform="translate(-112.592 -166.014)" fill="rgba(232,232,232,0.58)"/>
              </g>
            </g>
          </g>
        </g>
        <path id="Path_11272" data-name="Path 11272" d="M798.782,374.41H99.482a2.015,2.015,0,1,1,0-4.03h699.3a2.015,2.015,0,1,1,0,4.03Z" transform="translate(-77.744 193.849)" fill="#243762"/>
      </g>
    </g>
    <g id="Group_2605" data-name="Group 2605" transform="translate(186.366 333.927)">
      <g id="Group_2602" data-name="Group 2602" transform="translate(50.019)">
        <path id="Path_11273" data-name="Path 11273" d="M621.836,524.389h-468.8V236.036a19.932,19.932,0,0,1,19.931-19.931H601.905a19.932,19.932,0,0,1,19.931,19.931Z" transform="translate(-151.895 -214.962)" fill="#ecf1f7"/>
        <path id="Path_11274" data-name="Path 11274" d="M623.621,526.174H152.539V236.68A21.1,21.1,0,0,1,173.612,215.6H602.549a21.1,21.1,0,0,1,21.072,21.075Zm-468.8-2.287H621.334V236.68a18.809,18.809,0,0,0-18.785-18.788H173.612a18.809,18.809,0,0,0-18.785,18.788Z" transform="translate(-152.539 -215.605)" fill="#243762"/>
      </g>
      <rect id="Rectangle_901" data-name="Rectangle 901" width="414.425" height="276.955" transform="translate(79.097 30.547)" fill="#fff"/>
      <rect id="Rectangle_902" data-name="Rectangle 902" width="414.425" height="26.179" transform="translate(79.097 30.497)" fill="#c5d9ff"/>
      <path id="Path_11275" data-name="Path 11275" d="M176.55,242.181a4.811,4.811,0,1,1,4.81-4.81A4.817,4.817,0,0,1,176.55,242.181Zm0-7.334a2.524,2.524,0,1,0,2.523,2.525A2.527,2.527,0,0,0,176.55,234.847Z" transform="translate(-77.811 -193.784)" fill="#fff"/>
      <path id="Path_11276" data-name="Path 11276" d="M183.838,242.181a4.811,4.811,0,1,1,4.812-4.81A4.817,4.817,0,0,1,183.838,242.181Zm0-7.334a2.524,2.524,0,1,0,2.525,2.525A2.527,2.527,0,0,0,183.838,234.847Z" transform="translate(-68.431 -193.784)" fill="#fff"/>
      <path id="Path_11277" data-name="Path 11277" d="M190.526,242.181a4.811,4.811,0,1,1,4.812-4.81A4.817,4.817,0,0,1,190.526,242.181Zm0-7.334a2.524,2.524,0,1,0,2.525,2.525A2.527,2.527,0,0,0,190.526,234.847Z" transform="translate(-59.824 -193.784)" fill="#fff"/>
      <path id="Path_11278" data-name="Path 11278" d="M167.04,506.561h-2.287v-278.1H341.7v2.287H167.04Z" transform="translate(-86.8 -199.058)" fill="#243762"/>
      <g id="Group_2604" data-name="Group 2604" transform="translate(112.058 64.481)" opacity="0.4">
        <circle id="Ellipse_118" data-name="Ellipse 118" cx="46.066" cy="46.066" r="46.066" transform="translate(2.701)" fill="#e3e3e3"/>
        <rect id="Rectangle_903" data-name="Rectangle 903" width="248.153" height="117.824" rx="2.753" transform="translate(115.816 104.543)" fill="#bebebe"/>
        <path id="Rectangle_904" data-name="Rectangle 904" d="M.636,0H86.662A.635.635,0,0,1,87.3.635V40.814a.635.635,0,0,1-.635.635H.636A.636.636,0,0,1,0,40.814V.636A.636.636,0,0,1,.636,0Z" transform="translate(140.931 122.006)" fill="#fff" opacity="0.28"/>
        <path id="Rectangle_905" data-name="Rectangle 905" d="M.636,0H86.662A.635.635,0,0,1,87.3.635V40.814a.636.636,0,0,1-.636.636H.635A.635.635,0,0,1,0,40.814V.636A.636.636,0,0,1,.636,0Z" transform="translate(249.724 122.006)" fill="#fff" opacity="0.28"/>
        <g id="Group_2603" data-name="Group 2603" transform="translate(41.019 27.308)">
          <path id="Path_11279" data-name="Path 11279" d="M211.4,280.49h.078a1.619,1.619,0,0,1,1.619,1.619v3.428a1.619,1.619,0,0,1-1.619,1.619H199.22a1.619,1.619,0,0,1-1.619-1.619V282.13a1.619,1.619,0,0,1,1.619-1.619h0a1.619,1.619,0,0,0,1.619-1.619V268.769a1.619,1.619,0,0,0-1.619-1.619h0a1.62,1.62,0,0,1-1.619-1.621V262.1a1.619,1.619,0,0,1,1.619-1.619h8.938a1.62,1.62,0,0,1,1.621,1.619v16.773A1.619,1.619,0,0,0,211.4,280.49Z" transform="translate(-197.601 -249.641)" fill="#fff"/>
          <path id="Path_11280" data-name="Path 11280" d="M202.866,255.74h0a3.5,3.5,0,0,1,3.5,3.5h0a3.5,3.5,0,0,1-3.5,3.5h0a3.5,3.5,0,0,1-3.506-3.5h0A3.5,3.5,0,0,1,202.866,255.74Z" transform="translate(-195.337 -255.74)" fill="#fff"/>
        </g>
        <rect id="Rectangle_906" data-name="Rectangle 906" width="203.252" height="2.287" transform="translate(117.81 18.113)" fill="#af9cda"/>
        <rect id="Rectangle_907" data-name="Rectangle 907" width="203.252" height="2.287" transform="translate(117.81 72.285)" fill="#af9cda"/>
        <rect id="Rectangle_908" data-name="Rectangle 908" width="85.16" height="2.287" transform="translate(117.81 41.752)" fill="#af9cda"/>
        <rect id="Rectangle_909" data-name="Rectangle 909" width="89.012" height="2.287" transform="translate(0 177.994)" fill="#af9cda"/>
        <rect id="Rectangle_910" data-name="Rectangle 910" width="89.012" height="2.287" transform="translate(0 201.686)" fill="#af9cda"/>
        <rect id="Rectangle_911" data-name="Rectangle 911" width="89.133" height="2.287" transform="translate(221.964 41.752)" fill="#af9cda"/>
        <rect id="Rectangle_912" data-name="Rectangle 912" width="203.252" height="2.287" transform="translate(138.266 200.857)" fill="#fff"/>
        <rect id="Rectangle_913" data-name="Rectangle 913" width="85.16" height="2.287" transform="translate(138.266 182.233)" fill="#fff"/>
        <rect id="Rectangle_914" data-name="Rectangle 914" width="89.133" height="2.287" transform="translate(242.419 182.233)" fill="#fff"/>
      </g>
      <path id="Path_11281" data-name="Path 11281" d="M259.284,232.552a5.8,5.8,0,1,1,5.8-5.8A5.8,5.8,0,0,1,259.284,232.552Zm0-9.31a3.512,3.512,0,1,0,3.513,3.513A3.516,3.516,0,0,0,259.284,223.242Z" transform="translate(27.399 -208.72)" fill="#243762"/>
      <path id="Path_11282" data-name="Path 11282" d="M265.075,228.219a3.07,3.07,0,1,1,3.069-3.071A3.074,3.074,0,0,1,265.075,228.219Zm0-3.854a.783.783,0,1,0,.782.782A.784.784,0,0,0,265.075,224.365Z" transform="translate(38.361 -207.274)" fill="#243762"/>
      <path id="Path_11283" data-name="Path 11283" d="M697.214,395H135.242a4.574,4.574,0,0,1-4.574-4.574v-25.8A13.723,13.723,0,0,1,144.39,350.9H688.066a13.721,13.721,0,0,1,13.722,13.722v25.8A4.574,4.574,0,0,1,697.214,395Z" transform="translate(-130.668 -41.476)" fill="#bebebe"/>
      <path id="Path_11284" data-name="Path 11284" d="M697.413,368.911H135.045a4.377,4.377,0,0,1-4.377-4.375h0A13.128,13.128,0,0,1,143.8,351.408H688.661a13.128,13.128,0,0,1,13.127,13.127h0A4.377,4.377,0,0,1,697.413,368.911Z" transform="translate(-130.668 -40.826)" opacity="0.29"/>
      <path id="Path_11285" data-name="Path 11285" d="M334.3,373.534H241.824a10.254,10.254,0,0,1-10.241-10.244V352.482a1.144,1.144,0,0,1,2.287,0v10.808a7.966,7.966,0,0,0,7.954,7.956H334.3a7.321,7.321,0,0,0,7.312-7.312V352.482a1.144,1.144,0,0,1,2.287,0v11.453A9.61,9.61,0,0,1,334.3,373.534Z" transform="translate(-0.79 -40.915)" fill="#fff"/>
      <path id="Path_11286" data-name="Path 11286" d="M317.616,369.249H245.045a8.293,8.293,0,0,1-8.284-8.284v-8.483a1.144,1.144,0,0,1,2.287,0v8.483a6,6,0,0,0,6,6h72.571a5.5,5.5,0,0,0,5.491-5.491v-8.988a1.143,1.143,0,1,1,2.287,0v8.988A7.786,7.786,0,0,1,317.616,369.249Z" transform="translate(5.874 -40.915)" fill="#fff"/>
      <path id="Path_11287" data-name="Path 11287" d="M170.928,372.734a6.174,6.174,0,1,1,6.175-6.173A6.181,6.181,0,0,1,170.928,372.734Zm0-10.061a3.887,3.887,0,1,0,3.888,3.888A3.892,3.892,0,0,0,170.928,362.673Z" transform="translate(-86.8 -29.271)" fill="#fff"/>
      <path id="Path_11288" data-name="Path 11288" d="M180.5,370.343a4.81,4.81,0,1,1,4.81-4.812A4.816,4.816,0,0,1,180.5,370.343Zm0-7.332a2.523,2.523,0,1,0,2.523,2.52A2.523,2.523,0,0,0,180.5,363.011Z" transform="translate(-72.721 -28.836)" fill="#fff"/>
      <path id="Path_11289" data-name="Path 11289" d="M481.39,242.1H242.767a1.144,1.144,0,1,1,0-2.287H481.39a1.144,1.144,0,1,1,0,2.287Z" transform="translate(12.132 -184.452)" fill="#243762"/>
    </g>
    <g id="Group_2622" data-name="Group 2622" transform="translate(87.391 352.506)">
      <g id="Group_2607" data-name="Group 2607" transform="translate(0 78.383)">
        <g id="Group_2606" data-name="Group 2606">
          <path id="Path_11290" data-name="Path 11290" d="M412.5,258H100.711a13.32,13.32,0,0,0-13.32,13.32V395.005a13.319,13.319,0,0,0,13.32,13.319h224.2l38.564,38.564V408.325H412.5a13.321,13.321,0,0,0,13.32-13.319V271.322A13.321,13.321,0,0,0,412.5,258Z" transform="translate(-87.391 -258.002)" fill="#27aae2"/>
          <path id="Path_11291" data-name="Path 11291" d="M166.114,400.112a70.632,70.632,0,1,1,70.632-70.632A70.71,70.71,0,0,1,166.114,400.112Zm0-138.977a68.345,68.345,0,1,0,68.345,68.345A68.423,68.423,0,0,0,166.114,261.135Z" transform="translate(-76.978 -256.913)" fill="#ecf1f7"/>
        </g>
      </g>
      <path id="Path_11292" data-name="Path 11292" d="M288.08,276.566H169.125a1.144,1.144,0,0,1,0-2.287H288.08a1.144,1.144,0,1,1,0,2.287Z" transform="translate(16.33 -158.67)" fill="#fff"/>
      <path id="Path_11293" data-name="Path 11293" d="M288.08,299.749H169.125a1.143,1.143,0,1,1,0-2.287H288.08a1.143,1.143,0,1,1,0,2.287Z" transform="translate(16.33 -128.834)" fill="#fff"/>
      <path id="Path_11294" data-name="Path 11294" d="M228.6,288.373H169.125a1.144,1.144,0,0,1,0-2.287H228.6a1.144,1.144,0,1,1,0,2.287Z" transform="translate(16.33 -143.475)" fill="#fff"/>
      <path id="Path_11295" data-name="Path 11295" d="M228.6,309.127H169.125a1.143,1.143,0,1,1,0-2.287H228.6a1.143,1.143,0,1,1,0,2.287Z" transform="translate(16.33 -116.764)" fill="#fff"/>
      <path id="Path_11296" data-name="Path 11296" d="M243.126,288.373H202.875a1.144,1.144,0,1,1,0-2.287h40.251a1.144,1.144,0,1,1,0,2.287Z" transform="translate(59.765 -143.475)" fill="#fff"/>
      <g id="Group_2621" data-name="Group 2621" transform="translate(27.943 0)">
        <g id="Group_2620" data-name="Group 2620">
          <path id="Path_11297" data-name="Path 11297" d="M208.056,291.672a13.7,13.7,0,0,0-3.947-8.361,33.467,33.467,0,0,1-5.617-7.561,12.562,12.562,0,0,0-1.921-4.165,37.438,37.438,0,0,1-2.376-9.9l-.588-6.035c-.011-.107-.018-.215-.032-.322l-.279-2.877a24.912,24.912,0,0,0-7.664-15.661,35.737,35.737,0,0,0-24.624-12.926h0A35.785,35.785,0,0,0,131.6,235.311a25.125,25.125,0,0,0-12.963,24.411l.416,4.258a12.559,12.559,0,0,0-4.7,8.764h0a12.565,12.565,0,0,0,1.807,7.632A33.229,33.229,0,1,0,165.744,324.6a23,23,0,0,0,12.325,4.869h0a23.116,23.116,0,0,0,24.99-21.075h0a23.143,23.143,0,0,0-.08-4.665A13.8,13.8,0,0,0,208.056,291.672Z" transform="translate(-89.902 -223.729)"/>
          <g id="Group_2610" data-name="Group 2610" transform="translate(0 32.405)">
            <g id="Group_2609" data-name="Group 2609" transform="translate(128.44)">
              <path id="Path_11298" data-name="Path 11298" d="M156.31,274.095a22.149,22.149,0,0,1,.041-9.91l4.158-9.02a3.157,3.157,0,0,1,3.771-1.727l.069.021,4.752-5.788c.606-.741,7.209-7.911,7.737-8.711.6-.906,3.193-1.843,3.623-.011.794,3.383-5.743,13.015-5.743,13.015s3.195,1.381,3.776,3.145.839,2.358.839,2.358a10.487,10.487,0,0,1,2.356,4.428l.327.755s.775-.231,1.978,3.142a3.8,3.8,0,0,1-.684,3.867,5.317,5.317,0,0,1-2.346,1.61l-1.6.567,1.692,11.307-23.334-1.214Z" transform="translate(-155.77 -237.898)" fill="#f9d9eb"/>
              <g id="Group_2608" data-name="Group 2608" transform="translate(1.916 15.009)">
                <path id="Path_11299" data-name="Path 11299" d="M166.506,263.011c-1.02-6.461-4.995-7.977-4.995-7.977s.887-2.01,2.056-4.9a5.467,5.467,0,0,0-.128-4.656,1.267,1.267,0,0,0-.453-.492c-.62-.387-2.161-.949-3.792,1.5a32.351,32.351,0,0,0-2.4,4.608" transform="translate(-156.372 -244.229)" fill="#f9d9eb"/>
                <path id="Path_11300" data-name="Path 11300" d="M166.74,263.664a.423.423,0,0,1-.414-.354c-.965-6.118-4.576-7.591-4.73-7.652l-.409-.158.176-.4c.009-.018.9-2.038,2.051-4.887a5.056,5.056,0,0,0-.11-4.3.877.877,0,0,0-.3-.334c-.608-.377-1.836-.7-3.22,1.381a31.067,31.067,0,0,0-2.369,4.544.418.418,0,0,1-.553.215.423.423,0,0,1-.215-.553,32.094,32.094,0,0,1,2.438-4.67c1.9-2.852,3.819-1.967,4.364-1.628a1.671,1.671,0,0,1,.6.652,5.892,5.892,0,0,1,.146,5.011c-.869,2.148-1.589,3.828-1.9,4.542,1.075.579,4,2.628,4.862,8.114a.422.422,0,0,1-.35.48Z" transform="translate(-156.608 -244.46)" fill="#243762"/>
              </g>
            </g>
            <path id="Path_11301" data-name="Path 11301" d="M262.131,325.781c-.782-7.895-1.461-15.8-2.088-23.707-.537-6.781-2.4-34.426-3.138-44.1a3.283,3.283,0,0,0-3.625-3.017l-24.041,2.513a3.777,3.777,0,0,0-3.355,4.327c2.42,15.641,4.448,55.092,4.448,55.092L218.316,304.7c-3.051-3.094-5.9-6.376-8.819-9.6-5.13-5.658-11.9-9.978-18.582-13.731l-.8-.718.066.318a60.955,60.955,0,0,0-6.015-2.9l-41.669-.142a33.96,33.96,0,0,0-6.257.645c-16.828,3.158-30.918,18.7-34.424,38.689a56.193,56.193,0,0,0-.846,9.676l-1.363,15.229a61.609,61.609,0,0,0,120.168,10.765c5.642,2.095,11.353,3.79,16.126,3.973a29.451,29.451,0,0,0,13.745-3.373c4-1.937,7.892-4.54,10.243-8.425C263.418,339.279,262.775,332.294,262.131,325.781Z" transform="translate(-99.609 -215.97)" fill="#69c753"/>
          </g>
          <g id="Group_2616" data-name="Group 2616" transform="translate(49.121 20.3)">
            <g id="Group_2615" data-name="Group 2615">
              <path id="Path_11302" data-name="Path 11302" d="M175.375,271.711l-2.754-26.063a23.017,23.017,0,0,0-5.852-13.043A23.311,23.311,0,0,1,143.6,253.36h-21.26l2.5,23.691a22.627,22.627,0,0,0,.631,3.323l-4.025,21.738c-2,10.264,4.364,20.139,14.207,22.054s19.444-4.853,21.441-15.117l2.481-12.752A23.605,23.605,0,0,0,175.375,271.711Z" transform="translate(-121.087 -232.605)" fill="#f9d9eb"/>
              <path id="Path_11303" data-name="Path 11303" d="M148,268.336a24.052,24.052,0,0,1-23.979-12.759l-.279,1.809c-1.043,6.774,5.429,13.393,14.458,14.783h0c6.525,1.006,12.581-1,15.844-4.743a24.825,24.825,0,0,1-3.412.631Z" transform="translate(-117.818 -203.04)" fill="#ef92c7" opacity="0.46"/>
              <g id="Group_2614" data-name="Group 2614" transform="translate(10.799 15.017)">
                <path id="Path_11304" data-name="Path 11304" d="M141.917,247.977h0a1.324,1.324,0,0,0,1.256-1.388l-.135-2.646a1.324,1.324,0,0,0-1.388-1.256h0a1.326,1.326,0,0,0-1.256,1.391l.133,2.644A1.322,1.322,0,0,0,141.917,247.977Z" transform="translate(-107.041 -234.649)" fill="#243762"/>
                <g id="Group_2613" data-name="Group 2613">
                  <path id="Path_11305" data-name="Path 11305" d="M131.783,249.242h0a1.324,1.324,0,0,0,1.256-1.388l-.135-2.646a1.324,1.324,0,0,0-1.388-1.256h0a1.322,1.322,0,0,0-1.256,1.391l.133,2.644A1.325,1.325,0,0,0,131.783,249.242Z" transform="translate(-120.083 -233.021)" fill="#243762"/>
                  <g id="Group_2611" data-name="Group 2611" transform="translate(29.785)">
                    <path id="Path_11306" data-name="Path 11306" d="M139.412,242.226a4.882,4.882,0,0,0,1.8-.08c.631-.1,1.269-.194,1.825-.254s1.2-.112,1.846-.149a4.783,4.783,0,0,0,1.766-.311c.451-.231.563-.768-.1-1.34a5.527,5.527,0,0,0-3.975-.878,4.907,4.907,0,0,0-3.524,1.7C138.607,241.606,138.9,242.1,139.412,242.226Z" transform="translate(-138.833 -239.171)" fill="#f7a9b4"/>
                  </g>
                  <g id="Group_2612" data-name="Group 2612" transform="translate(5.325 3.319)">
                    <path id="Path_11307" data-name="Path 11307" d="M128.774,244.072a4.642,4.642,0,0,0,1.807-.172c.627-.139,1.26-.265,1.816-.357s1.2-.176,1.841-.245a4.5,4.5,0,0,0,1.75-.416c.437-.27.51-.846-.2-1.422a5.394,5.394,0,0,0-4.062-.746,4.71,4.71,0,0,0-3.412,1.978C127.917,243.452,128.248,243.962,128.774,244.072Z" transform="translate(-128.138 -240.623)" fill="#f7a9b4"/>
                  </g>
                  <path id="Path_11308" data-name="Path 11308" d="M134.885,256.443a.573.573,0,0,1-.1-1.137l3.218-.567a1.351,1.351,0,0,0,.958-1.969c-2.776-2.8-3.065-9.384-3.076-9.665a.574.574,0,0,1,.551-.595.544.544,0,0,1,.592.551c0,.064.286,6.5,2.79,8.947l.089.114a2.493,2.493,0,0,1-1.706,3.742l-3.218.57A.5.5,0,0,1,134.885,256.443Z" transform="translate(-114.864 -234.875)" fill="#243762"/>
                  <path id="Path_11309" data-name="Path 11309" d="M134.038,256.962a.356.356,0,0,1-.172-.039.338.338,0,0,1-.14-.455,3.908,3.908,0,0,1,6.763-.268.337.337,0,1,1-.569.361,3.234,3.234,0,0,0-5.6.22A.342.342,0,0,1,134.038,256.962Z" transform="translate(-115.669 -219.598)" fill="#ef92c7" opacity="0.46"/>
                  <path id="Path_11310" data-name="Path 11310" d="M134.255,246.508a.857.857,0,0,1-.128-1.7l6.989-1.057a.849.849,0,0,1,.977.718.858.858,0,0,1-.718.977l-6.989,1.057A.872.872,0,0,1,134.255,246.508Z" transform="translate(-116.041 -233.297)" fill="#fff"/>
                  <path id="Path_11311" data-name="Path 11311" d="M144.954,258.391a8.138,8.138,0,0,1-8.078-7.275l-.547-5.162a4.013,4.013,0,0,1,3.57-4.414l10.543-1.114a4.016,4.016,0,0,1,4.414,3.57l.524,4.97a8.329,8.329,0,0,1-7.4,9.15l-2.166.231A8.4,8.4,0,0,1,144.954,258.391Zm5.917-16.272a2.239,2.239,0,0,0-.247.014l-10.543,1.114a2.3,2.3,0,0,0-2.045,2.525l.547,5.164a6.411,6.411,0,0,0,7.051,5.7l2.163-.229a6.614,6.614,0,0,0,5.878-7.264l-.524-4.97a2.3,2.3,0,0,0-2.28-2.058Z" transform="translate(-112.298 -237.583)" fill="#fff"/>
                  <path id="Path_11312" data-name="Path 11312" d="M134.445,259.5a8.137,8.137,0,0,1-8.069-7.277l-.544-5.162a4.017,4.017,0,0,1,3.57-4.414l10.543-1.114a4.029,4.029,0,0,1,4.412,3.57l.526,4.972a8.323,8.323,0,0,1-7.4,9.15h0l-2.166.229A8.544,8.544,0,0,1,134.445,259.5Zm2.946-1.128h0Zm2.975-15.145a2.176,2.176,0,0,0-.242.014l-10.541,1.111a2.3,2.3,0,0,0-2.045,2.527l.544,5.162a6.418,6.418,0,0,0,7.053,5.706l2.164-.229a6.615,6.615,0,0,0,5.878-7.264l-.526-4.97A2.3,2.3,0,0,0,140.366,243.229Z" transform="translate(-125.809 -236.156)" fill="#fff"/>
                </g>
                <path id="Path_11313" data-name="Path 11313" d="M141.622,258.231l2.911-.309c1.411-.149,2.472-1.059,2.369-2.031l-.659-6.234-16.025,1.884C131.109,259.958,135.781,258.846,141.622,258.231Z" transform="translate(-120.134 -225.676)" fill="#fff"/>
              </g>
            </g>
          </g>
          <g id="Group_2619" data-name="Group 2619" transform="translate(37.546 10.05)">
            <path id="Path_11314" data-name="Path 11314" d="M173.43,228.123H145.382a22.778,22.778,0,0,0-22.751,22.753v7.693c-.105.011-.208,0-.313.018h0a7.494,7.494,0,0,0-6.2,8.56l1.4,8.718a7.492,7.492,0,0,0,8.56,6.2,7.354,7.354,0,0,0,2.9-1.137l6.01,7.84a7.142,7.142,0,0,0,5.64,2.783h8.407a.858.858,0,1,0,0-1.715h-8.407a5.407,5.407,0,0,1-4.277-2.111l-6.065-7.911a7.459,7.459,0,0,0,1.994-6.31l-1.4-8.718a7.478,7.478,0,0,0-5.96-6.125v-7.783a20.489,20.489,0,0,1,20.464-20.466H173.43a1.143,1.143,0,0,0,0-2.287Z" transform="translate(-116.026 -228.123)" fill="#243762"/>
            <g id="Group_2617" data-name="Group 2617" transform="translate(30.095 59.91)">
              <path id="Path_11315" data-name="Path 11315" d="M134.74,258.307h-3.373a1.812,1.812,0,0,1-1.807-1.807h0a1.814,1.814,0,0,1,1.807-1.807h3.373a1.812,1.812,0,0,1,1.807,1.807h0A1.811,1.811,0,0,1,134.74,258.307Z" transform="translate(-128.702 -253.836)" fill="#f7a9b4"/>
              <path id="Path_11316" data-name="Path 11316" d="M135.223,259.648h-3.373a2.664,2.664,0,1,1,0-5.329h3.373a2.664,2.664,0,1,1,0,5.329Zm-3.373-3.613a.949.949,0,0,0,0,1.9h3.373a.949.949,0,0,0,0-1.9Z" transform="translate(-129.185 -254.319)" fill="#243762"/>
            </g>
            <g id="Group_2618" data-name="Group 2618" transform="translate(4.257 37.526)">
              <path id="Path_11317" data-name="Path 11317" d="M122.2,253.262h0a3.223,3.223,0,0,1-3.682-2.662l-.336-2.1a3.224,3.224,0,0,1,2.664-3.68h0a3.221,3.221,0,0,1,3.68,2.664l.336,2.1A3.222,3.222,0,0,1,122.2,253.262Z" transform="translate(-117.565 -244.211)" fill="#243762"/>
              <path id="Path_11318" data-name="Path 11318" d="M122.006,254.2a3.793,3.793,0,0,1-3.735-3.186l-.336-2.1a3.785,3.785,0,0,1,7.474-1.2l.336,2.1a3.792,3.792,0,0,1-3.138,4.334h0A3.568,3.568,0,0,1,122.006,254.2Zm-.332-8.521a2.867,2.867,0,0,0-.419.032,2.649,2.649,0,0,0-2.191,3.026l.336,2.1a2.639,2.639,0,0,0,3.026,2.189h0a2.64,2.64,0,0,0,2.189-3.023l-.336-2.1a2.656,2.656,0,0,0-2.6-2.221Z" transform="translate(-117.887 -244.531)" fill="#ecf1f7"/>
            </g>
          </g>
        </g>
      </g>
    </g>
    <g id="Group_2637" data-name="Group 2637" transform="translate(491.74 245.234)">
      <path id="Path_11319" data-name="Path 11319" d="M612.194,205.074H277.514a13.321,13.321,0,0,0-13.32,13.32V352.247a13.319,13.319,0,0,0,13.32,13.317h34.349l4.574,37.726,37.724-37.726H612.194a13.318,13.318,0,0,0,13.319-13.317V218.394A13.32,13.32,0,0,0,612.194,205.074Z" transform="translate(-264.194 -140.466)" fill="#e9a53a"/>
      <path id="Path_11320" data-name="Path 11320" d="M414.448,350.215a70.182,70.182,0,1,1,70.181-70.184A70.262,70.262,0,0,1,414.448,350.215Zm0-138.078a67.9,67.9,0,1,0,67.894,67.894A67.97,67.97,0,0,0,414.448,212.137Z" transform="translate(-161.14 -134.319)" fill="#ecf1f7"/>
      <path id="Path_11321" data-name="Path 11321" d="M400.262,227.469H282.079a1.144,1.144,0,1,1,0-2.287H400.262a1.144,1.144,0,1,1,0,2.287Z" transform="translate(-242.648 -114.587)" fill="#fff"/>
      <path id="Path_11322" data-name="Path 11322" d="M400.262,250.5H282.079a1.144,1.144,0,1,1,0-2.287H400.262a1.144,1.144,0,1,1,0,2.287Z" transform="translate(-242.648 -84.945)" fill="#fff"/>
      <path id="Path_11323" data-name="Path 11323" d="M367.008,239.2H307.917a1.143,1.143,0,1,1,0-2.287h59.092a1.143,1.143,0,1,1,0,2.287Z" transform="translate(-209.395 -99.492)" fill="#fff"/>
      <path id="Path_11324" data-name="Path 11324" d="M367.008,259.817H307.917a1.143,1.143,0,1,1,0-2.287h59.092a1.143,1.143,0,1,1,0,2.287Z" transform="translate(-209.395 -72.955)" fill="#fff"/>
      <path id="Path_11325" data-name="Path 11325" d="M322.727,239.2H282.739a1.143,1.143,0,1,1,0-2.287h39.988a1.143,1.143,0,1,1,0,2.287Z" transform="translate(-241.799 -99.492)" fill="#fff"/>
      <g id="Group_2636" data-name="Group 2636" transform="translate(190.021)">
        <path id="Path_11326" data-name="Path 11326" d="M473.016,272.515l0-.007-16.492-66.4-4.434,1.509-17.788,6.049-3.291,1.118,5.779,26.271c-1.2-.11-2.413-.178-3.634-.178l-51.853.151c-16.844.05-31.005,13.411-33,31.135l-.622,5.541c-3.149,27.966,12.451,55.275,38.795,65.171q1.657.624,3.369,1.166a65.336,65.336,0,0,0,84.237-53.816A46.647,46.647,0,0,0,473.016,272.515Z" transform="translate(-347.281 -139.137)"/>
        <g id="Group_2629" data-name="Group 2629" transform="translate(9.817)">
          <path id="Path_11327" data-name="Path 11327" d="M419.5,224.956l-1.832-25.4a17.6,17.6,0,0,0-.3-2.134,16.12,16.12,0,0,0-15.837-19.2,16.063,16.063,0,0,0-10.946,4.3,16.978,16.978,0,0,0-29.473,8.675,11.873,11.873,0,0,0-2.4,22.529l1.121,15.529c.732,10.152,10.184,17.743,21.109,16.954l20.1-1.45C411.97,243.975,420.235,235.108,419.5,224.956Z" transform="translate(-351.574 -176.824)"/>
          <g id="Group_2623" data-name="Group 2623" transform="translate(12.487 27.442)">
            <path id="Path_11328" data-name="Path 11328" d="M409.169,217.708a8.5,8.5,0,1,0-1.425-16.931l-.94.078-.686-8.178a12.329,12.329,0,0,0-.279-1.75,11.915,11.915,0,0,1-21.69-2.1,17.517,17.517,0,0,1-25.944,1.665,12.783,12.783,0,0,0-1.13,6.314l.954,11.332a19.9,19.9,0,0,0-.078,3.117l1.381,22.694a19.831,19.831,0,0,0,12.48,17.23l2.36,12.693c2.25,12.114,12.814,20.313,23.593,18.31s17.695-13.448,15.442-25.564l-4.565-29.64-.558-9.176Z" transform="translate(-357.034 -188.823)" fill="#f9d9eb"/>
            <path id="Path_11329" data-name="Path 11329" d="M380.219,225.767l-9.916.6a19.893,19.893,0,0,1-5.459-.437c3.472,4.336,11.312,6.173,19.549,4.119h0c10.056-2.509,16.88-9.864,15.243-16.428l-1.043-4.455A19.847,19.847,0,0,1,380.219,225.767Z" transform="translate(-346.982 -162.636)" fill="#ef92c7" opacity="0.46"/>
          </g>
          <path id="Path_11330" data-name="Path 11330" d="M384.226,200.5c-.208-2.465-2.413-4.373-5.3-4.922l.151,1.793a19.38,19.38,0,0,1,.259,2.175l.409,6.722C382.54,205.253,384.436,202.987,384.226,200.5Z" transform="translate(-316.377 -152.689)" fill="#ef92c7" opacity="0.46"/>
          <g id="Group_2628" data-name="Group 2628" transform="translate(16.539 37.082)">
            <path id="Path_11331" data-name="Path 11331" d="M362.308,202.264h0a1.2,1.2,0,0,1-1.3-1.1l-.2-2.4a1.2,1.2,0,0,1,1.1-1.3h0a1.2,1.2,0,0,1,1.3,1.1l.2,2.4A1.2,1.2,0,0,1,362.308,202.264Z" transform="translate(-356.235 -187.343)" fill="#243762"/>
            <path id="Path_11332" data-name="Path 11332" d="M371.571,201.7h0a1.2,1.2,0,0,1-1.3-1.1l-.2-2.4a1.2,1.2,0,0,1,1.1-1.3h0a1.2,1.2,0,0,1,1.3,1.1l.2,2.4A1.2,1.2,0,0,1,371.571,201.7Z" transform="translate(-344.313 -188.067)" fill="#243762"/>
            <g id="Group_2625" data-name="Group 2625" transform="translate(0 0.254)">
              <g id="Group_2624" data-name="Group 2624">
                <path id="Path_11333" data-name="Path 11333" d="M358.845,198.85a3.816,3.816,0,0,1,1.352-1.53c.574-.46,1.134-.938,1.6-1.375s.979-.96,1.468-1.5a3.922,3.922,0,0,1,1.633-1.262c.62-.169,1.411.268,1.713,1.434a4.739,4.739,0,0,1-1.576,4.428,5.365,5.365,0,0,1-4.693,1.441C359.113,200.188,358.66,199.435,358.845,198.85Z" transform="translate(-358.806 -193.15)" fill="#243762"/>
              </g>
            </g>
            <g id="Group_2627" data-name="Group 2627" transform="translate(23.235)">
              <g id="Group_2626" data-name="Group 2626">
                <path id="Path_11334" data-name="Path 11334" d="M378.614,198.643a3.956,3.956,0,0,1-2.246-.025c-.8-.153-1.6-.281-2.3-.359s-1.5-.13-2.305-.153a4.206,4.206,0,0,1-2.237-.473c-.6-.416-.835-1.439-.11-2.587a4.949,4.949,0,0,1,4.759-1.971,6.11,6.11,0,0,1,4.656,3.019C379.5,197.4,379.227,198.364,378.614,198.643Z" transform="translate(-368.965 -193.038)" fill="#243762"/>
              </g>
            </g>
            <path id="Path_11335" data-name="Path 11335" d="M367.979,214.079a4.259,4.259,0,0,1-4.091-5.445l3.339-11.536a.663.663,0,0,1,1.274.368L365.162,209a2.936,2.936,0,0,0,3.062,3.742l6.088-.512a.662.662,0,1,1,.11,1.32l-6.086.512C368.215,214.074,368.1,214.079,367.979,214.079Z" transform="translate(-352.482 -188.431)" fill="#243762"/>
            <path id="Path_11336" data-name="Path 11336" d="M376.475,216.3l-2.909,1.345c-1.411.652-2.921.393-3.371-.581l-2.882-6.234,16.135-7.227C387.338,212.022,382.318,213.6,376.475,216.3Z" transform="translate(-347.856 -179.441)" fill="#fff"/>
          </g>
        </g>
        <g id="Group_2632" data-name="Group 2632" transform="translate(27.484 101.118)">
          <g id="Group_2631" data-name="Group 2631">
            <g id="Group_2630" data-name="Group 2630">
              <path id="Path_11337" data-name="Path 11337" d="M369.761,221.038,359.3,236.731l23.1,19.18,8.718-17.436Z" transform="translate(-359.299 -221.038)" fill="#fff"/>
              <path id="Path_11338" data-name="Path 11338" d="M394.191,221.038l10.462,15.692-23.1,19.18-8.718-17.436Z" transform="translate(-341.882 -221.038)" fill="#fff"/>
            </g>
          </g>
        </g>
        <g id="Group_2635" data-name="Group 2635" transform="translate(72.11 33.645)">
          <rect id="Rectangle_915" data-name="Rectangle 915" width="6.557" height="40.34" rx="0.824" transform="matrix(0.997, 0.072, -0.072, 0.997, 2.92, 0)" fill="#4c65ba"/>
          <g id="Group_2634" data-name="Group 2634" transform="translate(3.798 7.562)">
            <path id="Path_11339" data-name="Path 11339" d="M389.72,195.533s-7.993-3.115-8.807,3.886c-.512,4.421.3,5.082.963,4.97-.817.62-1.928,2.214-1.125,6.285.9,4.565,2.049,4.519,2.559,4.222-1.027.892-4.563,4.444-.707,8.286,1.48,1.475,4.977,3.259,8.986,4.983l17.788-6.049C408.087,210.773,403.726,195.919,389.72,195.533Z" transform="translate(-380.473 -194.842)" fill="#f9d9eb"/>
            <g id="Group_2633" data-name="Group 2633" transform="translate(0.48 8.578)">
              <path id="Path_11340" data-name="Path 11340" d="M383.591,200.327a11.811,11.811,0,0,1-2.456-.24.572.572,0,0,1-.439-.679.581.581,0,0,1,.679-.439,15.8,15.8,0,0,0,6.5-.354.572.572,0,1,1,.313,1.1A18.754,18.754,0,0,1,383.591,200.327Z" transform="translate(-380.682 -198.593)" fill="#243762"/>
              <path id="Path_11341" data-name="Path 11341" d="M383.591,204.958a11.807,11.807,0,0,1-2.456-.238.572.572,0,0,1-.439-.679.581.581,0,0,1,.679-.439,15.778,15.778,0,0,0,6.5-.357.573.573,0,0,1,.313,1.1A18.815,18.815,0,0,1,383.591,204.958Z" transform="translate(-380.682 -192.63)" fill="#243762"/>
            </g>
          </g>
        </g>
      </g>
    </g>
    <g id="Group_2645" data-name="Group 2645" transform="translate(197.405 212.407)">
      <g id="Group_2640" data-name="Group 2640" transform="translate(412.114)">
        <g id="Group_2639" data-name="Group 2639">
          <g id="Group_2638" data-name="Group 2638">
            <path id="Path_11342" data-name="Path 11342" d="M384.5,162.47H317.82a2.277,2.277,0,0,0-2.127,2.4V220.2a4.027,4.027,0,0,0,3.758,4.249h25.727a1.032,1.032,0,0,1,.787.382l21.381,25.605c.688.823,1.866.24,1.866-.926V225.754a1.215,1.215,0,0,1,1.091-1.308H384.5c1.928,0,3.49-1.871,3.49-4.181V166.648C387.985,164.341,386.423,162.47,384.5,162.47Z" transform="translate(-315.693 -162.47)" fill="#e9a53a"/>
          </g>
        </g>
      </g>
      <g id="Group_2644" data-name="Group 2644" transform="translate(0 46.685)">
        <g id="Group_2642" data-name="Group 2642">
          <path id="Path_11345" data-name="Path 11345" d="M138.987,182.883h66.675a2.278,2.278,0,0,1,2.125,2.4v55.323a4.025,4.025,0,0,1-3.758,4.249H178.3a1.023,1.023,0,0,0-.784.384l-21.383,25.6c-.688.823-1.864.24-1.864-.926V246.167a1.217,1.217,0,0,0-1.093-1.308H138.987c-1.928,0-3.492-1.871-3.492-4.178V187.064C135.495,184.754,137.059,182.883,138.987,182.883Z" transform="translate(-135.495 -182.883)" fill="#69c753"/>
        </g>
      </g>
    </g>
    <g id="Group_2652" data-name="Group 2652" transform="translate(631.198 506.669)">
      <path id="Path_11348" data-name="Path 11348" d="M325.672,306.9v-9.987c0-2.914,3.076-5.276,6.87-5.276H481.25c3.8,0,6.872,2.363,6.872,5.276v98.744c0,2.914-3.076,5.276-6.872,5.276H332.542c-3.794,0-6.87-2.362-6.87-5.276V379.807" transform="translate(-324.529 -290.495)" fill="#fff"/>
      <g id="Group_2646" data-name="Group 2646" transform="translate(0 0)">
        <path id="Path_11349" data-name="Path 11349" d="M325.672,312.436V296.912c0-2.914,3.076-5.276,6.87-5.276H481.25c3.8,0,6.872,2.363,6.872,5.276v14.847" transform="translate(-324.529 -290.495)" fill="#c5d9ff"/>
        <path id="Path_11350" data-name="Path 11350" d="M327.459,313.078h-2.287V297.554c0-3.538,3.6-6.417,8.014-6.417H481.894c4.421,0,8.016,2.879,8.016,6.417V312.4h-2.287V297.554c0-2.278-2.571-4.13-5.729-4.13H333.186c-3.158,0-5.727,1.852-5.727,4.13Z" transform="translate(-325.172 -291.137)" fill="#243762"/>
      </g>
      <g id="Group_2647" data-name="Group 2647" transform="translate(1.143 20.406)">
        <path id="Path_11351" data-name="Path 11351" d="M487.141,300.435h0Z" transform="translate(-325.672 -299.576)" fill="#f7a9b4"/>
        <rect id="Rectangle_916" data-name="Rectangle 916" width="161.468" height="1.715" fill="#243762"/>
      </g>
      <path id="Path_11352" data-name="Path 11352" d="M332.879,302.2a3.7,3.7,0,1,1,3.7-3.7A3.7,3.7,0,0,1,332.879,302.2Zm0-5.107a1.41,1.41,0,1,0,1.409,1.411A1.411,1.411,0,0,0,332.879,297.1Z" transform="translate(-320.01 -286.409)" fill="#fff"/>
      <path id="Path_11353" data-name="Path 11353" d="M337.07,302.2a3.7,3.7,0,1,1,3.7-3.7A3.7,3.7,0,0,1,337.07,302.2Zm0-5.107a1.41,1.41,0,1,0,1.409,1.411A1.413,1.413,0,0,0,337.07,297.1Z" transform="translate(-314.619 -286.409)" fill="#fff"/>
      <path id="Path_11354" data-name="Path 11354" d="M341.18,302.2a3.7,3.7,0,1,1,3.7-3.7A3.7,3.7,0,0,1,341.18,302.2Zm0-5.107a1.41,1.41,0,1,0,1.411,1.411A1.413,1.413,0,0,0,341.18,297.1Z" transform="translate(-309.329 -286.409)" fill="#fff"/>
      <g id="Group_2648" data-name="Group 2648" transform="translate(33.548 47.876)">
        <line id="Line_67" data-name="Line 67" x2="104.491" transform="translate(0.857 0.859)" fill="#f7a9b4"/>
        <path id="Path_11355" data-name="Path 11355" d="M445.19,313.786H340.7a.858.858,0,1,1,0-1.715H445.19a.858.858,0,1,1,0,1.715Z" transform="translate(-339.841 -312.071)" fill="#243762"/>
      </g>
      <g id="Group_2649" data-name="Group 2649" transform="translate(33.548 73.337)">
        <line id="Line_68" data-name="Line 68" x2="52.246" transform="translate(0.857 0.857)" fill="#f7a9b4"/>
        <path id="Path_11356" data-name="Path 11356" d="M392.943,324.919H340.7a.858.858,0,1,1,0-1.715h52.244a.858.858,0,0,1,0,1.715Z" transform="translate(-339.841 -323.204)" fill="#243762"/>
      </g>
      <g id="Group_2650" data-name="Group 2650" transform="translate(33.548 60.809)">
        <line id="Line_69" data-name="Line 69" x2="39.01" transform="translate(0.857 0.856)" fill="#f7a9b4"/>
        <path id="Path_11357" data-name="Path 11357" d="M379.708,319.441H340.7a.858.858,0,1,1,0-1.715h39.009a.858.858,0,0,1,0,1.715Z" transform="translate(-339.841 -317.726)" fill="#243762"/>
      </g>
      <g id="Group_2651" data-name="Group 2651" transform="translate(99.03 60.809)">
        <line id="Line_70" data-name="Line 70" x2="39.01" transform="translate(0.857 0.856)" fill="#f7a9b4"/>
        <path id="Path_11358" data-name="Path 11358" d="M408.34,319.441h-39.01a.858.858,0,1,1,0-1.715h39.01a.858.858,0,0,1,0,1.715Z" transform="translate(-368.473 -317.726)" fill="#243762"/>
      </g>
    </g>
    <g id="Group_2659" data-name="Group 2659" transform="translate(338.024 196.864)">
      <path id="Path_11359" data-name="Path 11359" d="M197.481,169.427v-8.67c0-2.532,2.671-4.583,5.965-4.583h129.12c3.3,0,5.967,2.051,5.967,4.583v85.735c0,2.529-2.671,4.581-5.967,4.581H203.446c-3.293,0-5.965-2.051-5.965-4.581V232.732" transform="translate(-196.338 -155.031)" fill="#fff"/>
      <g id="Group_2653" data-name="Group 2653">
        <path id="Path_11360" data-name="Path 11360" d="M197.481,174.234V160.757c0-2.532,2.671-4.583,5.965-4.583h129.12c3.3,0,5.967,2.051,5.967,4.583v12.89" transform="translate(-196.338 -155.031)"/>
        <path id="Path_11361" data-name="Path 11361" d="M199.268,174.878h-2.287V161.4c0-3.158,3.188-5.727,7.108-5.727h129.12c3.92,0,7.11,2.568,7.11,5.727v12.89h-2.287V161.4c0-1.864-2.209-3.44-4.823-3.44H204.089c-2.614,0-4.821,1.576-4.821,3.44Z" transform="translate(-196.981 -155.674)" fill="#243762"/>
      </g>
      <g id="Group_2654" data-name="Group 2654" transform="translate(1.144 17.759)">
        <path id="Path_11362" data-name="Path 11362" d="M337.679,163.814h0Z" transform="translate(-197.481 -162.956)" fill="#f7a9b4"/>
        <rect id="Rectangle_917" data-name="Rectangle 917" width="140.198" height="1.715" fill="#243762"/>
      </g>
      <path id="Path_11363" data-name="Path 11363" d="M203.825,165.587a3.361,3.361,0,1,1,3.36-3.36A3.364,3.364,0,0,1,203.825,165.587Zm0-4.434a1.074,1.074,0,1,0,1.073,1.075A1.077,1.077,0,0,0,203.825,161.152Z" transform="translate(-192.5 -151.567)" fill="#fff"/>
      <path id="Path_11364" data-name="Path 11364" d="M207.461,165.587a3.361,3.361,0,1,1,3.362-3.36A3.363,3.363,0,0,1,207.461,165.587Zm0-4.434a1.074,1.074,0,1,0,1.075,1.075A1.075,1.075,0,0,0,207.461,161.152Z" transform="translate(-187.818 -151.567)" fill="#fff"/>
      <path id="Path_11365" data-name="Path 11365" d="M211.031,165.587a3.361,3.361,0,1,1,3.362-3.36A3.365,3.365,0,0,1,211.031,165.587Zm0-4.434a1.074,1.074,0,1,0,1.075,1.075A1.077,1.077,0,0,0,211.031,161.152Z" transform="translate(-183.226 -151.567)" fill="#fff"/>
      <g id="Group_2655" data-name="Group 2655" transform="translate(26.879 41.612)">
        <line id="Line_71" data-name="Line 71" x2="90.727" transform="translate(0.857 0.856)" fill="#f7a9b4"/>
        <path id="Path_11366" data-name="Path 11366" d="M300.317,175.584H209.592a.858.858,0,0,1,0-1.715h90.726a.858.858,0,0,1,0,1.715Z" transform="translate(-208.734 -173.869)" fill="#243762"/>
      </g>
      <g id="Group_2656" data-name="Group 2656" transform="translate(26.879 63.716)">
        <line id="Line_72" data-name="Line 72" x2="45.363" transform="translate(0.857 0.858)" fill="#f7a9b4"/>
        <path id="Path_11367" data-name="Path 11367" d="M254.954,185.249H209.592a.858.858,0,0,1,0-1.715h45.363a.858.858,0,0,1,0,1.715Z" transform="translate(-208.734 -183.534)" fill="#243762"/>
      </g>
      <g id="Group_2657" data-name="Group 2657" transform="translate(26.879 52.837)">
        <line id="Line_73" data-name="Line 73" x2="33.871" transform="translate(0.857 0.859)" fill="#f7a9b4"/>
        <path id="Path_11368" data-name="Path 11368" d="M243.462,180.492H209.592a.858.858,0,0,1,0-1.715h33.871a.858.858,0,1,1,0,1.715Z" transform="translate(-208.734 -178.777)" fill="#243762"/>
      </g>
      <g id="Group_2658" data-name="Group 2658" transform="translate(83.734 52.837)">
        <line id="Line_74" data-name="Line 74" x2="33.871" transform="translate(0.858 0.859)" fill="#f7a9b4"/>
        <path id="Path_11369" data-name="Path 11369" d="M268.322,180.492H234.452a.858.858,0,1,1,0-1.715h33.871a.858.858,0,0,1,0,1.715Z" transform="translate(-233.594 -178.777)" fill="#243762"/>
      </g>
    </g>
  </g>
</svg>
