<svg xmlns="http://www.w3.org/2000/svg" width="1381.871" height="858.315" viewBox="0 0 1381.871 858.315">
  <g id="Group_2661" data-name="Group 2661" opacity="0.41">
    <g id="Group_2594" data-name="Group 2594">
      <path id="Path_11269" data-name="Path 11269" d="M89.322,746.732c-7.633-136.473,76.748-253.686,204.1-319.738,23.825-12.358,39.374-32.769,42.52-55.4.167-1.223.351-2.45.539-3.677C359.839,218.072,534.737,112.81,721.027,133.107c178.19,19.412,306.47,94.812,287.522,240.012-.09.681-.188,1.676-.3,2.932-3.305,39.57,35.478,72.839,84.84,73.777q15.528.294,31.252,1.6c212.589,17.79,366.8,170.768,344.162,341.554-10.356,78.114-56.4,146.53-123.644,195.933H236.709C152.473,924.369,94.249,834.821,89.322,746.732Z" transform="translate(-88.843 -130.601)" fill="#fff7e9"/>
    </g>
  </g>
</svg>
