<svg xmlns="http://www.w3.org/2000/svg" xmlns:xlink="http://www.w3.org/1999/xlink" width="186.949" height="164.474" viewBox="0 0 186.949 164.474">
  <defs>
    <clipPath id="clip-path">
      <path id="Clip_46" data-name="Clip 46" d="M0,0H169.867V30.556H0Z" fill="none"/>
    </clipPath>
    <clipPath id="clip-path-2">
      <path id="Clip_103" data-name="Clip 103" d="M70.761,0H0V28.872H70.761Z" fill="none"/>
    </clipPath>
  </defs>
  <g id="illustration3" transform="translate(17.083 8.902)">
    <path id="Fill_1" data-name="Fill 1" d="M93.429,41.959s-1.685-18.394-5.52-29.078S73.675.293,69.242.535c0,0-3.255,17.227-17.509,20.352s-22.466-5.461-24.141-8.064S22.123,3.545,24.582,0c0,0-14.9,2.507-18.271,13.854S-.678,39.372.109,41.959Z" transform="translate(40.84 83.961)" fill="#ffd087"/>
    <path id="Fill_3" data-name="Fill 3" d="M.024,30.631A.134.134,0,0,1,0,30.525a.94.94,0,0,1,.233-.657.9.9,0,0,1,.961-.1.4.4,0,0,1,.112.064c.2.345.443.666.667,1,.245.317.478.643.743.945A19.814,19.814,0,0,0,9.2,36.8a20.567,20.567,0,0,0,3.875,1.422,18.455,18.455,0,0,0,4.073.545,15.636,15.636,0,0,0,4.054-.463c.33-.082.654-.186.978-.284l.479-.173a5.009,5.009,0,0,0,.473-.186l.467-.2c.156-.067.3-.15.456-.225.3-.145.6-.318.905-.491a21.8,21.8,0,0,0,3.38-2.4,20.454,20.454,0,0,0,2.854-2.99,19.444,19.444,0,0,0,2.165-3.5,25.46,25.46,0,0,0,1.42-3.905,34.958,34.958,0,0,0,1.176-8.3,37.049,37.049,0,0,0-.1-4.2,35.585,35.585,0,0,0-.6-4.157l-.111-.537-.04-.177-.08-.353c-.052-.236-.109-.47-.169-.7L34.8,5.149c-.043-.234-.1-.563-.172-.94-.146-.759-.33-1.714-.482-2.5-.287-1.338-.291-1.778-.1-1.7a4.285,4.285,0,0,1,.909,1.479A19.272,19.272,0,0,1,35.7,3.335c.365.986.677,2.019.677,2.019.062.238.113.479.169.719l.081.36.106.515c.076.35.135.7.2,1.056a36.39,36.39,0,0,1,.5,4.277q.057,1.079.053,2.15c0,.714-.017,1.429-.053,2.144a35.26,35.26,0,0,1-1.4,8.485A24.787,24.787,0,0,1,34.425,29.1a20.278,20.278,0,0,1-2.409,3.645,23.19,23.19,0,0,1-6.683,5.525,15.376,15.376,0,0,1-4.123,1.583,17.111,17.111,0,0,1-2.181.353,18.356,18.356,0,0,1-2.2.06A20.59,20.59,0,0,1,8.4,38.094a21.366,21.366,0,0,1-6.845-5.353c-.286-.327-.542-.68-.807-1.025-.246-.36-.506-.709-.728-1.086" transform="translate(74.408 33.051)" fill="#202020"/>
    <path id="Fill_5" data-name="Fill 5" d="M52.529,17.911c.784,2.7,1.327,6.7-1.632,12.716.264-.96-.516-3.667-.791-4.8-.461-1.907-1.638-5.55-3.075-6.9a8.17,8.17,0,0,0-6.678-2.27c-4.632.307-6.682,3.754-11.313,4.074-5.253.363-10.575-4.705-8.571-10.539-2.814,4.7.119,8.606.3,12.876a13.606,13.606,0,0,1-3.424,9.094c-1.4,1.555-4.7,2.863-5.166,4.667C10.9,41.789,14.773,48.18,16.488,51.343c-4.85.867-8.748-2.861-11.783-6.693C1.739,40.9.443,36.082.1,31.329c-.6-8.337,1.475-18.059,8.608-22.492a13.117,13.117,0,0,1,7.442-1.81c.129-3.111,4.227-4.752,6.631-5.729C29.511-1.439,38.113.312,43.593,5.063c3.47,3.008,6.9,6.733,8.359,11.074.174.519.383,1.107.577,1.774" transform="translate(60.421 13.47)" fill="#231f20"/>
    <path id="Fill_7" data-name="Fill 7" d="M.56.627A.32.32,0,0,1,.717.538.935.935,0,0,1,1.2.5a.525.525,0,0,1,.334.224.687.687,0,0,1,.062.393c0,.076-.01.157-.01.234a.672.672,0,0,0,.048.24.433.433,0,0,1,.022.063c-.011,0-.014.022-.025.03a.1.1,0,0,0-.027.042.586.586,0,0,0-.049.119A.861.861,0,0,0,1.538,2a.675.675,0,0,0,.009.157.753.753,0,0,1,.015.074.478.478,0,0,1,.024.064c0,.025.021.034.027.053a.091.091,0,0,0,.028.041c.016.029.035.033.047.048a.025.025,0,0,1,.02.012c.011,0,.021,0,.007,0H1.709s-.012,0,.006,0,.047-.005.071,0A.805.805,0,0,0,1.94,2.4a.825.825,0,0,0,.288-.194.571.571,0,0,0,.145-.255.4.4,0,0,0,.01-.111.3.3,0,0,0-.025-.085.527.527,0,0,0-.181-.2A.6.6,0,0,0,1.9,1.467a.2.2,0,0,0-.149.032.172.172,0,0,0-.061.117.41.41,0,0,0-.007.062.27.27,0,0,0,0,.068.285.285,0,0,0,.012.067c0,.024.016.039.019.061a.268.268,0,0,0,.049.078c.007.008.012.015.016.015s.007,0,.007.006,0,0,.009.009l.006.008h0c.008-.037-.074.318-.039.168h0l0,0,0,0a.127.127,0,0,0,0-.06.262.262,0,0,0-.012-.049.133.133,0,0,0-.008-.021l0,0a.041.041,0,0,0,.028,0,.071.071,0,0,1,.03,0,.27.27,0,0,0,.1.023l.1.385A.27.27,0,0,0,1.9,2.32a.565.565,0,0,0-.238-.065.738.738,0,0,0-.28.037.873.873,0,0,0-.1.038.365.365,0,0,0-.085.062A.3.3,0,0,0,1.13,2.5a.314.314,0,0,0-.011.129,1.019,1.019,0,0,0,.352.5,3.457,3.457,0,0,0,.4.3c.211.13.29.2.206.265a.959.959,0,0,1-.69.007,1.942,1.942,0,0,1-.556-.249,1.476,1.476,0,0,1-.146-.106A1.333,1.333,0,0,1,.529,3.2a1.313,1.313,0,0,1-.26-.41c.006.032-.022-.025-.057-.158A.944.944,0,0,1,.2,2.371a1.238,1.238,0,0,1,.087-.345,1.447,1.447,0,0,1,.437-.534,1.771,1.771,0,0,1,.658-.309,1.88,1.88,0,0,1,.8-.018,1.622,1.622,0,0,1,.79.4l.181.39a1.194,1.194,0,0,1-.107.632,1.393,1.393,0,0,1-.34.453,1.452,1.452,0,0,1-.966.37,1.385,1.385,0,0,1-.235-.02c-.068-.012-.121-.027-.178-.042a1.331,1.331,0,0,1-.277-.106.972.972,0,0,1-.165-.094L.832,3.11a1.359,1.359,0,0,1-.207-.187,1.473,1.473,0,0,1-.164-.207A1.572,1.572,0,0,1,.337,2.5a1.746,1.746,0,0,1-.09-.224,1.933,1.933,0,0,1-.058-.228A2.029,2.029,0,0,1,.16,1.814a2.179,2.179,0,0,1,0-.234A2.161,2.161,0,0,1,.19,1.343,1.629,1.629,0,0,1,.829.333,1.783,1.783,0,0,1,2,0,2.164,2.164,0,0,1,3.035.348a2,2,0,0,1,.72.808,1.709,1.709,0,0,1,.155.559,1.788,1.788,0,0,1-.04.555,2.015,2.015,0,0,1-.5.918A2.345,2.345,0,0,1,2,3.9c-.093.008-.184.02-.278.019L1.556,3.91a.5.5,0,0,1-.178-.031,2.728,2.728,0,0,1-.3-.092C1,3.745.91,3.7.826,3.649A1.711,1.711,0,0,1,.42,3.276a1.16,1.16,0,0,1-.146-.213,1.6,1.6,0,0,1-.111-.22Q.119,2.731.081,2.619L.032,2.394A2.068,2.068,0,0,1,0,1.945a2.242,2.242,0,0,1,.063-.45,2.014,2.014,0,0,1,.179-.448A1.157,1.157,0,0,1,.384.831,1.363,1.363,0,0,1,.56.627" transform="translate(93.429 42.002)" fill="#202020"/>
    <path id="Fill_9" data-name="Fill 9" d="M.56.627A.322.322,0,0,1,.717.538.936.936,0,0,1,1.2.5a.525.525,0,0,1,.334.224.687.687,0,0,1,.062.394c0,.076-.01.157-.01.234a.672.672,0,0,0,.048.24.431.431,0,0,1,.022.062c-.012,0-.015.022-.025.03a.1.1,0,0,0-.027.042.583.583,0,0,0-.049.119A.836.836,0,0,0,1.538,2a.674.674,0,0,0,.009.157.754.754,0,0,1,.015.074.477.477,0,0,1,.024.064c0,.025.021.034.028.053a.09.09,0,0,0,.028.041c.016.029.036.033.047.048a.025.025,0,0,1,.02.012c.011,0,.022,0,.008,0H1.709s-.011,0,.006,0,.047-.005.071,0A.8.8,0,0,0,1.94,2.4a.829.829,0,0,0,.288-.194.57.57,0,0,0,.144-.255.39.39,0,0,0,.01-.111.3.3,0,0,0-.026-.085.523.523,0,0,0-.181-.2A.6.6,0,0,0,1.9,1.467a.2.2,0,0,0-.149.032.174.174,0,0,0-.061.117.41.41,0,0,0-.007.062.268.268,0,0,0,0,.067.281.281,0,0,0,.011.067c0,.024.016.04.019.061a.274.274,0,0,0,.049.078c.007.008.012.015.017.015s.007,0,.007.006,0,0,.009.009l.006.008h0c.008-.037-.074.318-.039.168h0l0,0,0,0a.129.129,0,0,0,0-.06.258.258,0,0,0-.012-.049.134.134,0,0,0-.009-.021l0,0a.038.038,0,0,0,.028,0,.07.07,0,0,1,.03,0,.263.263,0,0,0,.1.022l.1.385A.27.27,0,0,0,1.9,2.32a.566.566,0,0,0-.238-.065.737.737,0,0,0-.28.037.85.85,0,0,0-.1.038.354.354,0,0,0-.085.062A.3.3,0,0,0,1.13,2.5a.31.31,0,0,0-.011.129,1.02,1.02,0,0,0,.352.5,3.463,3.463,0,0,0,.4.3c.211.13.29.2.206.265a.959.959,0,0,1-.69.006,1.949,1.949,0,0,1-.556-.249,1.44,1.44,0,0,1-.146-.106A1.252,1.252,0,0,1,.529,3.2a1.3,1.3,0,0,1-.26-.409c.006.032-.022-.025-.057-.158A.935.935,0,0,1,.2,2.371a1.234,1.234,0,0,1,.087-.345A1.45,1.45,0,0,1,.72,1.492a1.764,1.764,0,0,1,.658-.309,1.872,1.872,0,0,1,.8-.018,1.62,1.62,0,0,1,.79.4l.181.39a1.194,1.194,0,0,1-.107.632,1.389,1.389,0,0,1-.339.453,1.452,1.452,0,0,1-.966.369,1.359,1.359,0,0,1-.234-.02c-.068-.012-.122-.027-.178-.042a1.339,1.339,0,0,1-.277-.106.969.969,0,0,1-.165-.094L.832,3.11a1.359,1.359,0,0,1-.207-.187,1.457,1.457,0,0,1-.164-.207A1.571,1.571,0,0,1,.336,2.5a1.8,1.8,0,0,1-.09-.224,1.889,1.889,0,0,1-.058-.228A2.022,2.022,0,0,1,.16,1.814a2.054,2.054,0,0,1,0-.234A2.234,2.234,0,0,1,.19,1.343,1.629,1.629,0,0,1,.829.333,1.779,1.779,0,0,1,2,0,2.167,2.167,0,0,1,3.035.347a2,2,0,0,1,.72.808,1.714,1.714,0,0,1,.155.559,1.787,1.787,0,0,1-.04.555,2.015,2.015,0,0,1-.5.919,2.365,2.365,0,0,1-.848.572A2.387,2.387,0,0,1,2,3.9c-.093.008-.184.02-.278.019L1.556,3.91a.5.5,0,0,1-.178-.03,2.706,2.706,0,0,1-.3-.092C1,3.745.91,3.7.826,3.649A1.706,1.706,0,0,1,.42,3.276a1.151,1.151,0,0,1-.146-.213,1.581,1.581,0,0,1-.112-.22Q.119,2.731.081,2.619L.032,2.395A2.068,2.068,0,0,1,0,1.945a2.2,2.2,0,0,1,.063-.45,2.025,2.025,0,0,1,.179-.448A1.18,1.18,0,0,1,.383.831,1.363,1.363,0,0,1,.56.627" transform="translate(104.059 40.883)" fill="#202020"/>
    <path id="Fill_11" data-name="Fill 11" d="M9.507,3.622a.194.194,0,0,1-.02.131.824.824,0,0,1-.538.509c-.243.05-.534-.114-.847-.394a.36.36,0,0,1-.073-.079c-.013-.073-.017-.148-.032-.222s-.045-.144-.066-.216A1.525,1.525,0,0,0,7.84,3.14l-.048-.106-.065-.1a1.641,1.641,0,0,0-.134-.2l-.156-.188c-.057-.059-.12-.114-.179-.172a1.383,1.383,0,0,0-.193-.16l-.14-.108-.152-.093-.152-.093-.162-.076L6.3,1.772l-.169-.058c-.056-.019-.112-.042-.169-.058l-.173-.04a2,2,0,0,0-.347-.06,1.972,1.972,0,0,0-.347-.019,1.877,1.877,0,0,0-.341.023,1.819,1.819,0,0,0-.329.066.872.872,0,0,0-.13.035l-.134.051-.135.05c-.045.016-.087.041-.131.062-.085.045-.176.078-.258.132l-.25.151-.279.17-.3.214c-.109.093-.238.189-.363.309a6.726,6.726,0,0,0-.781.864A9.756,9.756,0,0,0,.975,4.695c-.317.586-.5.995-.637,1.224S.114,6.2.059,6.114a3.4,3.4,0,0,1,.178-1.8,2.738,2.738,0,0,1,.194-.572,7.739,7.739,0,0,1,.712-1.353A6.514,6.514,0,0,1,2.182,1.166C2.35,1.017,2.5.9,2.6.818L2.774.7c.1-.057.193-.124.3-.172L3.383.377C3.488.329,3.6.293,3.7.251l.162-.06c.056-.018.116-.031.174-.047A3.182,3.182,0,0,1,4.561.038,3.23,3.23,0,0,1,5.083,0,3.2,3.2,0,0,1,5.6.029,3.242,3.242,0,0,1,6.1.115l.249.059c.082.023.162.054.242.081l.241.085c.078.033.156.071.233.107L7.3.557,7.523.69c.073.045.148.088.22.136l.208.157a2.5,2.5,0,0,1,.287.239c.091.087.184.171.271.263l.247.3a3.09,3.09,0,0,1,.22.323l.1.166.087.181a3.047,3.047,0,0,1,.158.371l.117.393c.028.134.044.272.063.408" transform="translate(88.394 35.848)" fill="#202020"/>
    <path id="Fill_13" data-name="Fill 13" d="M1.393,4.774c-.015.032-.02.044-.072.072C1,5.06.3,5.292.012,4.326A.4.4,0,0,1,0,4.194q.124-.287.26-.577c.091-.193.183-.387.286-.581.052-.1.1-.194.157-.291l.169-.29.186-.287c.059-.1.135-.188.2-.282.085-.121.188-.235.287-.35s.215-.222.324-.332S2.116,1,2.237.9s.265-.18.4-.268.284-.154.43-.221.3-.124.449-.172.305-.091.459-.123.307-.057.462-.079L4.848.005a4.036,4.036,0,0,1,.412,0l.205.008.2.026a3.7,3.7,0,0,1,.4.064s.162.043.425.129c.129.052.283.112.454.186.164.089.352.172.536.293a4.98,4.98,0,0,1,1.087.906,3.943,3.943,0,0,1,.737,1.209,2.343,2.343,0,0,1,.144,1.455c-.071.262-.154.316-.224.244a.582.582,0,0,1-.11-.191c-.038-.089-.062-.2-.123-.325l-.078-.2c-.027-.069-.071-.137-.106-.21a4.1,4.1,0,0,0-.265-.443c.005.018-.019-.014-.074-.079a3.374,3.374,0,0,0-.237-.286,3.686,3.686,0,0,0-.941-.744A4.153,4.153,0,0,0,6.151,1.6c-.162-.043-.3-.051-.4-.071A.988.988,0,0,0,5.6,1.519l-.246-.033c-.082-.008-.164-.005-.246-.01l-.123,0a1.14,1.14,0,0,0-.121.007L4.626,1.5,4.3,1.552c-.107.022-.207.058-.311.084s-.2.077-.295.113-.184.1-.278.142-.175.114-.259.176-.167.128-.243.206a3.18,3.18,0,0,0-.227.234,3.156,3.156,0,0,0-.212.259c-.052.073-.109.139-.157.218l-.149.23-.141.242c-.047.081-.09.168-.135.251-.09.168-.173.345-.257.522s-.164.359-.244.544" transform="translate(101.261 34.729)" fill="#202020"/>
    <path id="Fill_15" data-name="Fill 15" d="M3.76,1.041A.118.118,0,0,1,3.732.947,1.054,1.054,0,0,1,3.878.282c.144-.207.41-.359.935-.241A.385.385,0,0,1,4.94.1c.137.178.277.354.4.541.063.093.131.182.189.278L5.71,1.2c.061.094.113.194.169.29s.113.194.162.294c.1.2.2.4.292.6s.183.435.269.655.159.444.223.672l.1.34.082.345c.056.229.1.463.136.7s.069.468.087.7.032.472.043.709.007.464-.009.72a3.552,3.552,0,0,1-.134.822,2.308,2.308,0,0,1-.2.474,1.931,1.931,0,0,1-.349.447A2,2,0,0,1,6.11,9.3a2.283,2.283,0,0,1-.5.173l-.142.02A2.913,2.913,0,0,1,5.1,9.51a5.022,5.022,0,0,1-1.084-.163,20.462,20.462,0,0,1-2.5-.752C.207,8.123-.132,7.832.043,7.736a5.126,5.126,0,0,1,1.71.058c-.081-.036.907.122,1.92.218.251.025.512.048.743.065a3.647,3.647,0,0,0,.569,0,.919.919,0,0,0,.4-.1.464.464,0,0,0,.109-.052.457.457,0,0,0,.076-.064.637.637,0,0,0,.121-.241,2.093,2.093,0,0,0,.073-.476c.011-.182.005-.4.006-.6s-.014-.4-.038-.607-.046-.4-.075-.6-.069-.4-.118-.6l-.071-.3-.085-.293c-.055-.2-.126-.387-.193-.579s-.146-.38-.233-.564-.165-.348-.251-.52c-.042-.087-.093-.169-.14-.253s-.092-.17-.145-.25l-.154-.244c-.05-.082-.109-.159-.163-.239-.106-.16-.227-.31-.344-.463" transform="translate(98.464 47.037)" fill="#202020"/>
    <path id="Fill_17" data-name="Fill 17" d="M5.939,3.846c-.038-.024-.049-.037-.072-.1a.861.861,0,0,1-.007-.734,1.074,1.074,0,0,1,.888-.4.515.515,0,0,1,.113.012l.214.138c.036.023.07.048.107.07L7.3,2.88l.232.113.248.085a1.461,1.461,0,0,0,.253.074l.259.057c.086.021.177.021.266.034a2.316,2.316,0,0,0,.268.023l.363,0,.363-.035c.122-.008.238-.045.358-.064a2.313,2.313,0,0,0,.351-.093,2.105,2.105,0,0,0,.34-.121,2.809,2.809,0,0,0,.326-.148c.1-.06.209-.114.31-.175l.285-.205a3.334,3.334,0,0,0,.486-.486c.036-.044.077-.085.109-.131l.089-.144.091-.143.023-.035h0l1.362.715,0,0,0,.006-.007.012-.013.024-.052.1c-.138.255-.278.51-.424.762s-.3.5-.447.756h0c-.337.536-.681,1.07-1.077,1.58a11.954,11.954,0,0,1-1.3,1.468c-.232.235-.5.445-.757.66a7.973,7.973,0,0,1-.857.566,7.155,7.155,0,0,1-.945.452,6.264,6.264,0,0,1-1.03.271,3.057,3.057,0,0,1-.53.068c-.178.009-.355.022-.534.025a5.427,5.427,0,0,1-1.077-.128,5.363,5.363,0,0,1-1.949-.882,6.063,6.063,0,0,1-.8-.68l-.172-.179c-.034-.034-.065-.071-.1-.107l-.187-.219a8.236,8.236,0,0,1-.646-.938S.712,5.673.6,5.427a7.873,7.873,0,0,1-.35-1.013A7.615,7.615,0,0,1,.02,3.047,6.658,6.658,0,0,1,.057,1.655,3.958,3.958,0,0,1,.45.238C.586,0,.68-.046.735.042A11.519,11.519,0,0,1,.911,1.706,4.633,4.633,0,0,1,1,2.229,7.512,7.512,0,0,0,1.325,3.5a6.975,6.975,0,0,0,.559,1.2,5.568,5.568,0,0,0,.327.5,5.366,5.366,0,0,0,.519.709L2.8,6c.012.014.024.028.037.04L2.89,6.1q.133.144.277.272a4.154,4.154,0,0,0,.608.464,3.772,3.772,0,0,0,1.383.54,3.266,3.266,0,0,0,.745.044l.38-.02.374-.069A5.566,5.566,0,0,0,9.35,5.754a3.878,3.878,0,0,0,.29-.3l.282-.309c.177-.219.363-.429.529-.661.346-.449.659-.933.965-1.422h0c.141-.237.287-.471.422-.714s.273-.484.405-.729l.05-.092.012-.023.006-.012,0-.006v0c-.3-.157,2.587,1.359,1.366.719v0l-.034.055-.137.219-.139.217c-.049.07-.107.133-.161.2a4.853,4.853,0,0,1-.722.72l-.411.3c-.142.089-.291.167-.436.249a4.332,4.332,0,0,1-.454.207,3.323,3.323,0,0,1-.469.167,3.5,3.5,0,0,1-.479.127c-.163.029-.323.073-.488.087L9.258,4.8l-.5,0a3.475,3.475,0,0,1-.37-.031c-.123-.016-.247-.021-.369-.048l-.366-.08a2.52,2.52,0,0,1-.361-.106c-.119-.041-.239-.08-.357-.125l-.344-.165-.171-.084c-.055-.032-.108-.068-.162-.1Z" transform="translate(84.478 58.226)" fill="#202020"/>
    <path id="Fill_19" data-name="Fill 19" d="M5.029,1.776c.007.009.01.012-.006.046a1.8,1.8,0,0,1-1,.923.2.2,0,0,1-.066.014c-.01-.009-.185-.212-.442-.468a3.453,3.453,0,0,0-.954-.707,1.455,1.455,0,0,0-.5-.13.677.677,0,0,0-.31.067,1,1,0,0,0-.233.145l-.078.073a.613.613,0,0,0-.064.032,1.578,1.578,0,0,0-.162.094l-.1.071-.1.085a1.025,1.025,0,0,0-.16.209,1.685,1.685,0,0,0-.1.36.257.257,0,0,1-.135.2.331.331,0,0,1-.276-.066.861.861,0,0,1-.285-.4c-.007.02-.043-.079-.063-.25a1.673,1.673,0,0,1,0-.293,2.162,2.162,0,0,1,.062-.327A2.178,2.178,0,0,1,.315.892,1.6,1.6,0,0,1,.473.665L.52.619A1.27,1.27,0,0,1,.661.5,2.355,2.355,0,0,1,1.232.163a1.594,1.594,0,0,1,.21-.074A1.318,1.318,0,0,1,1.678.032,2.027,2.027,0,0,1,2.212.007a2.91,2.91,0,0,1,.964.258,4.024,4.024,0,0,1,.79.486,6.175,6.175,0,0,1,.567.5c.306.3.485.513.5.523" transform="translate(81.68 55.989)" fill="#202020"/>
    <path id="Fill_21" data-name="Fill 21" d="M.012.81A.134.134,0,0,1,.011.7C.089.29.452-.318,1.337.2a.4.4,0,0,1,.1.087l.21.572c.032.1.078.188.117.282l.122.279.244.559c.038.095.089.183.134.274l.138.272A21.321,21.321,0,0,0,5.6,7.207a22.083,22.083,0,0,0,4.311,3.678,19.85,19.85,0,0,0,5.114,2.379,20.137,20.137,0,0,0,5.569.869,21.923,21.923,0,0,0,5.611-.647,20.657,20.657,0,0,0,5.238-2.108c.417-.223.809-.486,1.2-.744l.3-.193.285-.207c.192-.135.378-.279.562-.426a16.243,16.243,0,0,0,2.05-1.919l.118-.129c.036-.037.09-.106.087-.1l.056-.068.112-.136.224-.272.419-.565.226-.289c.149-.177.328-.443.548-.745l.318-.5c.111-.173.208-.361.318-.545.2-.375.4-.763.556-1.127.07-.153.125-.3.171-.428s.1-.25.139-.356c.082-.213.138-.381.2-.5.116-.242.2-.3.264-.224a1.4,1.4,0,0,1,.119.621,3.811,3.811,0,0,1-.017.538c-.009.1-.018.2-.027.309s-.036.213-.055.324a2.552,2.552,0,0,1-.12.584c-.057.189-.114.419-.2.659s-.173.5-.288.753a12.806,12.806,0,0,1-.679,1.371l-.258.439-.1.162c-.156.2-.3.418-.467.612l-.244.3-.061.074-.08.1-.127.141c-.172.186-.336.379-.517.555a18.351,18.351,0,0,1-2.277,1.974,23.494,23.494,0,0,1-2.535,1.593,22.477,22.477,0,0,1-5.578,2.073,22.62,22.62,0,0,1-5.914.569A22.227,22.227,0,0,1,14.3,14.637a21.264,21.264,0,0,1-5.372-2.58,23.512,23.512,0,0,1-4.516-3.9A23.112,23.112,0,0,1,1.05,3.215L.9,2.923c-.048-.1-.1-.193-.144-.294l-.263-.6-.131-.3c-.042-.1-.091-.2-.126-.3Z" transform="translate(72.17 62.702)" fill="#202020"/>
    <path id="Fill_23" data-name="Fill 23" d="M34.627.871a.119.119,0,0,1,0-.1,1.052,1.052,0,0,1,.312-.617c.194-.165.5-.238.974,0a.435.435,0,0,1,.107.088c.183.4.346.8.5,1.209s.3.812.435,1.22a35.271,35.271,0,0,1,1.177,4.5A24.129,24.129,0,0,1,38.6,11.84a12.617,12.617,0,0,1-.236,2.409,6.621,6.621,0,0,1-.962,2.376,6.463,6.463,0,0,1-1.911,1.722,13.083,13.083,0,0,1-2.183,1.039,29.917,29.917,0,0,1-4.5,1.234c-1.509.309-3.02.551-4.52.789-.75.119-1.5.237-2.233.368-.367.067-.734.134-1.091.212-.18.037-.356.079-.53.122l-.542.142A38.089,38.089,0,0,0,15.635,23.6a16.948,16.948,0,0,0-3.829,2.053,12.542,12.542,0,0,0-2.969,3.083,16.086,16.086,0,0,0-1.1,1.87c-.157.333-.325.646-.475.994L6.8,32.632Q5.911,34.7,5.127,36.82a84.417,84.417,0,0,0-2.665,8.616L2.32,46l-.043.179-.086.358-.17.717-.4,1.3c-.111.374-.239.8-.374,1.22s-.263.855-.4,1.243c-.4,1.323-.625,1.707-.748,1.541a4.419,4.419,0,0,1-.071-1.744c-.029.086.075-.939.226-1.982.068-.523.155-1.048.217-1.444s.108-.662.108-.662L.758,46l.085-.358.133-.531.281-1.093a86.278,86.278,0,0,1,2.77-8.591q.8-2.111,1.721-4.175l.229-.517.254-.522.255-.522c.088-.173.19-.34.284-.509l.289-.508c.1-.169.213-.328.318-.492L7.7,27.7c.11-.162.237-.313.356-.47a14.384,14.384,0,0,1,3.436-3.213,19.56,19.56,0,0,1,4.168-2.052,45.365,45.365,0,0,1,4.362-1.316c1.524-.368,3-.568,4.473-.81s2.932-.476,4.37-.781a26.6,26.6,0,0,0,4.175-1.2,10.316,10.316,0,0,0,1.854-.939,4.28,4.28,0,0,0,1.356-1.32,5.27,5.27,0,0,0,.654-1.832,11.5,11.5,0,0,0,.173-2.086,23.1,23.1,0,0,0-.461-4.3,33.867,33.867,0,0,0-1.112-4.229c-.131-.389-.267-.777-.414-1.158s-.3-.759-.466-1.124" transform="translate(39.162 63.821)" fill="#202020"/>
    <path id="Fill_25" data-name="Fill 25" d="M0,.553A.146.146,0,0,1,.038.446.916.916,0,0,1,.6.01c.25-.049.542.068.854.444a.383.383,0,0,1,.061.11A6.91,6.91,0,0,0,1.861,2.8,6.155,6.155,0,0,0,2.745,4.5a5.688,5.688,0,0,0,.627.721l.758.668a13.726,13.726,0,0,0,3.5,2.045,18.553,18.553,0,0,0,3.98,1.089,39.532,39.532,0,0,0,4.186.444c1.412.085,2.839.12,4.275.177.72.029,1.433.058,2.165.1s1.465.123,2.2.233a15.971,15.971,0,0,1,4.318,1.244,12.228,12.228,0,0,1,1.981,1.158l.457.353c.152.119.3.257.446.386a3.989,3.989,0,0,1,.407.405l.384.414a26.079,26.079,0,0,1,4.679,7.51,45.948,45.948,0,0,1,2.482,8.417c.591,2.849,1.025,5.709,1.514,8.538l.193,1.1.133.728s.064.574.15,1.35.195,1.754.275,2.566c.167,1.37.131,1.814-.052,1.714a4.278,4.278,0,0,1-.775-1.569,19.418,19.418,0,0,1-.583-1.915c-.282-1.018-.535-2.065-.535-2.065l-.132-.724-.333-1.928c-.472-2.8-.911-5.588-1.514-8.326a41.14,41.14,0,0,0-2.5-7.944,25.78,25.78,0,0,0-1.962-3.621,22.66,22.66,0,0,0-2.532-3.2,9.727,9.727,0,0,0-3.252-2.15,15.528,15.528,0,0,0-3.893-.987c-.675-.088-1.355-.151-2.045-.185s-1.393-.068-2.095-.092c-1.4-.052-2.816-.094-4.238-.18a38.551,38.551,0,0,1-4.279-.487,19.642,19.642,0,0,1-4.212-1.19A15.214,15.214,0,0,1,3.115,7.019l-.842-.744a7.789,7.789,0,0,1-.766-.9A7.691,7.691,0,0,1,.426,3.292,8.449,8.449,0,0,1,0,.553" transform="translate(93.988 72.213)" fill="#202020"/>
    <path id="Fill_27" data-name="Fill 27" d="M0,2.721a.134.134,0,0,1,.03-.1.938.938,0,0,1,.516-.472c.244-.073.551,0,.907.37a.411.411,0,0,1,.07.111l.042.608c.009.1.009.2.027.3l.042.3.084.6.042.3c.015.1.04.2.06.3a21.855,21.855,0,0,0,8.99,13.748A21.3,21.3,0,0,0,18.5,22.054a25.135,25.135,0,0,0,4.183.481,25.1,25.1,0,0,0,4.2-.287,22.33,22.33,0,0,0,7.884-2.829c.3-.186.609-.351.9-.554l.871-.6c.558-.427,1.127-.843,1.648-1.318.543-.45,1.035-.956,1.538-1.449l.716-.778c.243-.256.453-.54.682-.809a24.833,24.833,0,0,0,4.132-7.338c.03-.083.065-.164.09-.248l.058-.187.027-.086.054-.172.108-.345c.071-.23.15-.458.2-.693l.119-.358.135-.4c.052-.152.114-.326.159-.487a5.751,5.751,0,0,0,.2-1.136,3.805,3.805,0,0,0-.079-1.147,1.92,1.92,0,0,0-.314-.653,2.537,2.537,0,0,0-.184-.193L45.67.335C45.463.2,45.394.108,45.481.049a.892.892,0,0,1,.692.043,1.954,1.954,0,0,1,.958.948,1.83,1.83,0,0,1,.245.612,5.363,5.363,0,0,1,.175,1.574,6.537,6.537,0,0,1-.079.857l-.129.687-.128.676c-.07.242-.149.481-.223.722l-.113.361-.028.09L46.8,6.78c-.025.089-.06.174-.092.261l-.389,1.034a28.163,28.163,0,0,1-1.98,3.943,29.093,29.093,0,0,1-2.608,3.556,28.114,28.114,0,0,1-3.172,3.066,25.767,25.767,0,0,1-3.663,2.468,23.9,23.9,0,0,1-4.057,1.753l-1.058.323-1.074.262c-.356.1-.721.15-1.083.217s-.724.138-1.09.174a24.165,24.165,0,0,1-4.407.2,23.441,23.441,0,0,1-4.374-.59c-.357-.09-.721-.154-1.073-.267l-1.06-.318c-.35-.117-.694-.252-1.041-.378s-.685-.273-1.023-.423c-.684-.281-1.331-.643-1.987-.983-.631-.387-1.274-.755-1.867-1.2-.3-.212-.607-.422-.89-.661s-.58-.459-.859-.7l-.818-.748c-.277-.245-.519-.525-.78-.787a22.674,22.674,0,0,1-2.737-3.474A22.951,22.951,0,0,1,.323,5.327C.3,5.22.276,5.113.259,5.005L.213,4.68.122,4.029.077,3.7C.058,3.6.057,3.486.048,3.377Z" transform="translate(63.218 82.283)" fill="#202020"/>
    <path id="Fill_29" data-name="Fill 29" d="M1.94.157A.138.138,0,0,1,2.03.092.868.868,0,0,1,2.715.056c.227.1.4.364.447.859a.381.381,0,0,1-.015.125l-.167.234c-.058.077-.1.165-.149.247l-.29.5c-.045.085-.082.175-.123.262L2.3,2.545c-.04.088-.083.174-.121.263l-.1.274-.169.468-.128.482a4.277,4.277,0,0,0-.114.485l-.086.492a4.322,4.322,0,0,0-.057.5L1.482,6l0,.5a3.932,3.932,0,0,0,.014.5l.026.325.013.162c.005.054.006.109.015.162l.106.642A2.619,2.619,0,0,0,1.7,8.65c.019.111.041.245.066.4.013.075.023.157.041.24l.064.257c.045.177.087.369.14.565l.193.593c.056.206.15.4.225.592s.146.392.238.563c.156.29.264.552.377.745a4.574,4.574,0,0,1,.239.478c.1.248.091.351-.009.348A3.4,3.4,0,0,1,1.953,12.27c.01.021-.024-.015-.09-.095s-.147-.217-.255-.38l-.174-.268a2.589,2.589,0,0,1-.183-.314C1.135,10.989,1,10.748.883,10.5L.572,9.746C.478,9.5.415,9.264.348,9.062a4.266,4.266,0,0,1-.138-.495L.168,8.377.116,8.058C.1,7.951.075,7.846.07,7.738L.018,7.094A4.986,4.986,0,0,1,0,6.515l0-.58.048-.578a5.417,5.417,0,0,1,.067-.575l.1-.571a5.429,5.429,0,0,1,.132-.564l.15-.56.195-.546.115-.318c.044-.1.093-.205.14-.308l.142-.306c.048-.1.093-.205.145-.305L1.571.72c.059-.1.108-.2.175-.288Z" transform="translate(57.064 112.494)" fill="#202020"/>
    <path id="Fill_31" data-name="Fill 31" d="M.047,1.1a.113.113,0,0,1-.035-.094A1.087,1.087,0,0,1,.129.32C.265.1.532-.066,1.07.026A.464.464,0,0,1,1.2.079L1.437.33a2.337,2.337,0,0,1,.22.261l.415.541a2.981,2.981,0,0,1,.2.276l.182.287.181.287c.059.1.124.19.177.289l.371.719a7.993,7.993,0,0,1,.324.739,6.8,6.8,0,0,1,.282.755c.079.256.166.51.239.768l.179.783c.069.259.088.527.133.791a6.969,6.969,0,0,1,.089.8c.016.267.038.534.047.8l-.013.748c-.005.125,0,.249-.015.374l-.037.373-.069.406c-.035.255-.149.6-.252,1a5.468,5.468,0,0,1-.211.621c-.083.213-.158.434-.255.649a9.311,9.311,0,0,1-.658,1.2,4.868,4.868,0,0,1-.906,1.145c-.2.183-.308.194-.331.093a1.4,1.4,0,0,1,.12-.6c.045-.143.116-.3.171-.472s.117-.366.185-.56c-.013.017,0-.027.032-.117l.062-.168.065-.234.173-.6c.061-.222.1-.469.15-.711.023-.122.054-.242.07-.364l.041-.359c.023-.233.061-.448.066-.636.013-.375.021-.627.021-.627.008-.094.024-.188.024-.283l0-.285.01-.569c-.009-.237-.029-.474-.043-.71a5.881,5.881,0,0,0-.08-.707c-.04-.234-.055-.472-.118-.7l-.159-.694c-.065-.228-.142-.453-.213-.68A5.649,5.649,0,0,0,2.06,4.3a6.813,6.813,0,0,0-.286-.651l-.326-.632c-.047-.087-.1-.168-.156-.253l-.159-.251L.975,2.258A2.358,2.358,0,0,0,.8,2.018L.44,1.547A1.789,1.789,0,0,0,.249,1.32Z" transform="translate(114.129 110.815)" fill="#202020"/>
    <path id="Fill_33" data-name="Fill 33" d="M.086.5A.131.131,0,0,1,.129.4C.36.073.923-.345,1.5.483A.4.4,0,0,1,1.549.6q-.024.3-.036.611c-.009.2-.021.407-.027.611l-.015.611c-.006.2,0,.408,0,.612,0,.29,0,.58.009.87s.018.58.03.87.033.579.05.869.048.578.071.868c.017.227.048.452.071.679s.052.452.083.677l.023.376c.017.235.042.565.071.946s.069.811.115,1.246l.126,1.275a11.406,11.406,0,0,1,.121,1.386c-.007.267-.06.353-.147.305a4.194,4.194,0,0,1-.773-1.543,3.212,3.212,0,0,1-.18-.537c-.112-.36-.248-.861-.376-1.371S.52,8.934.435,8.542L.308,7.884c-.029-.2-.048-.4-.072-.606s-.048-.4-.064-.607c-.025-.3-.058-.6-.075-.9s-.044-.6-.054-.905-.029-.6-.032-.906S0,3.351,0,3.048c0-.213,0-.425,0-.638l.016-.638c.006-.213.019-.425.028-.637S.07.711.086.5" transform="translate(87.834 104.661)" fill="#202020"/>
    <path id="Fill_35" data-name="Fill 35" d="M.52.843A.1.1,0,0,1,.608.807a.645.645,0,0,1,.558.3A1.637,1.637,0,0,1,1.34,1.5a2.539,2.539,0,0,0,.184.46.588.588,0,0,0,.037.057s-.007,0-.02.026a.555.555,0,0,0,0,.295.881.881,0,0,0,.279.478.233.233,0,0,0,.136.053.044.044,0,0,1,.032,0,.222.222,0,0,1,.048-.016c.019,0,.031-.013.046-.02s.032-.009.044-.026a.812.812,0,0,0,.268-.555A1.235,1.235,0,0,0,2.384,1.9a.877.877,0,0,0-.089-.253c-.016-.03-.006-.018-.009-.021H2.28A.057.057,0,0,0,2.265,1.6s-.007-.009-.013-.01l-.042.016a.491.491,0,0,0-.118.062,1.157,1.157,0,0,0-.271.3,1.519,1.519,0,0,0-.176.427,1.169,1.169,0,0,0,.058.55c.038.135.039.23-.028.278a.235.235,0,0,1-.152.025.489.489,0,0,1-.24-.083,1.127,1.127,0,0,1-.467-.631c0,.016-.014-.015-.033-.084a1.32,1.32,0,0,1-.049-.308,2.229,2.229,0,0,1,.146-.964A2.024,2.024,0,0,1,1.511.3c.076-.055.149-.1.214-.141a1.814,1.814,0,0,1,.18-.079c.1-.04.163-.058.163-.058A.668.668,0,0,1,2.213.009a1.658,1.658,0,0,1,.41.009l.138.019c.048.009.1,0,.141.048L3.178.3a2.825,2.825,0,0,1,.277.3,1.381,1.381,0,0,1,.12.185l.091.164a2.813,2.813,0,0,1,.219,1.6,2.841,2.841,0,0,1-.291.87,2.189,2.189,0,0,1-.68.758,1.84,1.84,0,0,1-1.026.3A1.8,1.8,0,0,1,.9,4.1,2.485,2.485,0,0,1,.051,2.675,2.2,2.2,0,0,1,.167,1.354,1.742,1.742,0,0,1,.52.843" transform="translate(90.072 107.459)" fill="#202020"/>
    <path id="Fill_37" data-name="Fill 37" d="M3.916,1.958A1.958,1.958,0,1,1,1.958,0,1.958,1.958,0,0,1,3.916,1.958" transform="translate(108.534 63.821)" fill="#231f20"/>
    <path id="Fill_39" data-name="Fill 39" d="M8.212,10.85C7.621,8.9,6.882.549,4.944.066,2.371-.575.068,3.571,0,6.97A10,10,0,0,0,2.63,14.323a6.436,6.436,0,0,0,3.309,1.829,4.246,4.246,0,0,0,3.572-.935" transform="translate(56.505 36.408)" fill="#231f20"/>
    <path id="Fill_41" data-name="Fill 41" d="M.012.846a.121.121,0,0,1,0-.1A1.049,1.049,0,0,1,.325.138c.191-.158.482-.22.929.028a.426.426,0,0,1,.1.089,19.367,19.367,0,0,1,.825,2.461,20.864,20.864,0,0,1,.493,2.6l.076.721.048.724s0,.15-.014.4l-.021.444-.05.557a14.436,14.436,0,0,1-.5,2.588c-.1.337-.189.61-.268.829a4.562,4.562,0,0,1-.232.5c-.13.231-.22.275-.271.188a5.723,5.723,0,0,1-.019-1.7,3.1,3.1,0,0,1,.019-.545c.014-.361.034-.858.023-1.359,0-.25-.015-.5-.025-.737s-.028-.456-.046-.645c-.028-.377-.065-.629-.065-.629-.014-.191-.023-.382-.041-.572L1.23,5.51a19.325,19.325,0,0,0-.458-2.4A17.806,17.806,0,0,0,.012.846" transform="translate(62.1 36.967)" fill="#fff"/>
    <path id="Fill_43" data-name="Fill 43" d="M2.734.07,2.746.058c.053-.036.067-.114.03.009l0,.019a2.827,2.827,0,0,1-.129.361A3.679,3.679,0,0,1,2.468.8a4.245,4.245,0,0,1-.254.386,4.282,4.282,0,0,1-.619.662c-.195.167-.341.267-.341.267A1.615,1.615,0,0,1,.989,2.2a1.425,1.425,0,0,1-.552.025c-.3-.032-.419-.171-.435-.3a.428.428,0,0,1,.17-.358c-.019-.011.121-.093.261-.171l.282-.155s.138-.03.342-.1c.1-.033.22-.079.346-.132s.256-.12.385-.192S2.041.661,2.156.58s.216-.164.3-.238A3.323,3.323,0,0,0,2.734.07" transform="translate(60.981 50.394)" fill="#fff"/>
    <g id="Group_47" data-name="Group 47" transform="translate(0 125.016)">
      <path id="Clip_46-2" data-name="Clip 46" d="M0,0H169.867V30.556H0Z" transform="translate(0 0)" fill="none"/>
      <g id="Group_47-2" data-name="Group 47" transform="translate(0 0)" clip-path="url(#clip-path)">
        <path id="Fill_45" data-name="Fill 45" d="M28.053,30.5a.126.126,0,0,1-.1-.037c-.335-.216-.819-.771-.023-1.432a.419.419,0,0,1,.119-.062l2.327,0L101.8,28.82l43.556-.088,21.165-.043c.034.036-.073-.086-.14-.162l-.289-.331c-.613-.719-1.235-1.431-1.84-2.156q-1.828-2.165-3.621-4.36c-2.394-2.922-4.76-5.867-7.133-8.8s-4.752-5.858-7.189-8.712c-.617-.705-1.223-1.422-1.852-2.113l-.464-.516,0,0H21.6L16.678,8.758,6.769,23.3l-3.9,5.72,6.335-.012,11.43-.023h1.309l.315.018c.6.047,2.325.181,3.614.364,2.748.321,1.65.661-.052.847.139.026-2.434.193-3.559.265l-.513.032h-.6l-3.506.007-14.3.029L0,30.556l1.9-2.8,2.22-3.26,4.6-6.747L18.486,3.409l1.272-1.867L20.442.537l.321-.471c.033-.117.169-.038.251-.062H144.425c.109.014.25-.044.31.082l.418.467.936,1.043q1.842,2.107,3.628,4.256c2.383,2.864,4.717,5.765,7.056,8.661s4.676,5.789,7.048,8.644c.59.717,1.192,1.422,1.787,2.132l1.876,2.189,1.627,1.852.407.463.2.231c.019.057.244.2.095.186l-1.386,0-3.725.008-22.044.045-42.95.088-69.36.142-2.3,0" transform="translate(0 0)" fill="#202020"/>
      </g>
    </g>
    <path id="Fill_48" data-name="Fill 48" d="M1.509,83.364a.127.127,0,0,1-.037.1c-.214.336-.762.819-1.411.021A.415.415,0,0,1,0,83.364V80.842L0,25.956V.31C.009.3-.007.263.019.272l.106,0,.212,0L.761.283l.809.012,1.7.02C7.79.357,12.318.277,16.851.186L25.475.013,26.314,0s2.3.121,3.913.341c2.735.307,1.642.65-.047.841.088.015-.922.1-1.954.175l-2.086.16-3.685.067c-4.8.1-9.6.218-14.411.25q-1.8.013-3.609.005L2.629,1.827l-.9-.013-.217,0h0V83.364Z" transform="translate(20.14 42.002)" fill="#202020"/>
    <path id="Fill_50" data-name="Fill 50" d="M.555,1.777a.123.123,0,0,1-.1-.036C.123,1.53-.36.983.421.318A.411.411,0,0,1,.538.256L3.029.227,15.815.077l3.2-.037,1.6-.019L21.957.005l.4,0c.007,0,.02,0,.021,0V7.836l0,71.593s-.154,2.314-.383,3.936c-.32,2.753-.652,1.653-.83-.054-.033.178-.283-4.081-.283-4.081V1.538L15.833,1.6,3.047,1.748Z" transform="translate(122.521 40.883)" fill="#202020"/>
    <path id="Fill_52" data-name="Fill 52" d="M1.931,0H12.308L10.619,3.357H0Z" transform="translate(25.735 130.956)" fill="#231f20"/>
    <path id="Fill_54" data-name="Fill 54" d="M1.931,0H12.308L10.619,3.357H0Z" transform="translate(22.938 137.11)" fill="#231f20"/>
    <path id="Fill_56" data-name="Fill 56" d="M1.931,0H12.308L10.619,3.357H0Z" transform="translate(20.7 142.704)" fill="#231f20"/>
    <path id="Fill_58" data-name="Fill 58" d="M1.931,0H12.308L10.619,3.357H0Z" transform="translate(40.84 130.956)" fill="#231f20"/>
    <path id="Fill_60" data-name="Fill 60" d="M1.931,0H12.308L10.619,3.357H0Z" transform="translate(38.043 137.11)" fill="#231f20"/>
    <path id="Fill_62" data-name="Fill 62" d="M1.931,0H12.308L10.619,3.357H0Z" transform="translate(35.805 142.704)" fill="#231f20"/>
    <path id="Fill_64" data-name="Fill 64" d="M1.931,0H12.308L10.619,3.357H0Z" transform="translate(55.946 130.956)" fill="#231f20"/>
    <path id="Fill_66" data-name="Fill 66" d="M1.931,0H12.308L10.619,3.357H0Z" transform="translate(53.708 137.11)" fill="#231f20"/>
    <path id="Fill_68" data-name="Fill 68" d="M1.95,0H43.638L41.931,3.357H0Z" transform="translate(50.91 142.704)" fill="#231f20"/>
    <path id="Fill_70" data-name="Fill 70" d="M1.931,0H12.308L10.619,3.357H0Z" transform="translate(71.051 130.956)" fill="#231f20"/>
    <path id="Fill_72" data-name="Fill 72" d="M1.931,0H12.308L10.619,3.357H0Z" transform="translate(68.813 137.11)" fill="#231f20"/>
    <path id="Fill_74" data-name="Fill 74" d="M1.931,0H12.308L10.619,3.357H0Z" transform="translate(86.156 130.956)" fill="#231f20"/>
    <path id="Fill_76" data-name="Fill 76" d="M1.931,0H12.308L10.619,3.357H0Z" transform="translate(83.918 137.11)" fill="#231f20"/>
    <path id="Fill_78" data-name="Fill 78" d="M1.931,0H12.308L10.619,3.357H0Z" transform="translate(101.261 130.956)" fill="#231f20"/>
    <path id="Fill_80" data-name="Fill 80" d="M1.931,0H12.308L10.619,3.357H0Z" transform="translate(99.024 137.11)" fill="#231f20"/>
    <path id="Fill_82" data-name="Fill 82" d="M1.931,0H12.308L10.619,3.357H0Z" transform="translate(96.226 142.704)" fill="#231f20"/>
    <path id="Fill_84" data-name="Fill 84" d="M1.931,0H12.308l-.875,3.357H0Z" transform="translate(116.367 130.956)" fill="#231f20"/>
    <path id="Fill_86" data-name="Fill 86" d="M2.144,0H18.462L15.928,3.357H0Z" transform="translate(114.129 137.11)" fill="#231f20"/>
    <path id="Fill_88" data-name="Fill 88" d="M1.931,0H12.308L10.619,3.357H0Z" transform="translate(111.332 142.704)" fill="#231f20"/>
    <path id="Fill_90" data-name="Fill 90" d="M.5,0H8.951l2.238,6.713H0Z" transform="translate(132.031 130.956)" fill="#231f20"/>
    <path id="Fill_92" data-name="Fill 92" d="M1.949,0H13.887l1.218,3.357H0Z" transform="translate(129.234 137.11)" fill="#231f20"/>
    <path id="Fill_94" data-name="Fill 94" d="M1.958,0H18.847l.734,3.357H0Z" transform="translate(126.437 142.704)" fill="#231f20"/>
    <path id="Fill_96" data-name="Fill 96" d="M15.124.054a.123.123,0,0,1,.1.037c.324.215.806.765.013,1.412a.416.416,0,0,1-.118.061c-.834-.006-1.665-.022-2.491-.036a43.913,43.913,0,0,0-5.405.144,15.962,15.962,0,0,0-2.578.451A3.923,3.923,0,0,0,2.668,3.261a4.135,4.135,0,0,0-.33.476,5.448,5.448,0,0,0-.286.536,6.132,6.132,0,0,0-.4,1.16A6.737,6.737,0,0,0,1.5,6.663c-.007.212,0,.406.006.633l.028.7c.034.93.056,1.859.075,2.785l.028,1.543s-.118,2.295-.28,3.9c-.1,1.366-.229,1.786-.385,1.652a4.324,4.324,0,0,1-.444-1.672C.513,16.3.4,15.282.311,14.245L.14,12.152.108,10.485C.089,9.579.065,8.675.029,7.775L.015,7.437,0,7.08c-.007-.25,0-.5.016-.75A8.144,8.144,0,0,1,.263,4.844,7.291,7.291,0,0,1,.8,3.426a5.677,5.677,0,0,1,.874-1.3,4.609,4.609,0,0,1,1.29-.957A7.19,7.19,0,0,1,4.373.633a12.48,12.48,0,0,1,1.4-.291C6.235.269,6.7.207,7.157.162A45.732,45.732,0,0,1,12.649.019c.83.014,1.654.03,2.475.035" transform="translate(26.854 49.275)" fill="#3f3b3c"/>
    <path id="Fill_98" data-name="Fill 98" d="M.684,1.81a.128.128,0,0,1-.1-.022C.216,1.627-.374,1.157.326.366A.4.4,0,0,1,.438.284,20.37,20.37,0,0,1,3.09,0,10.247,10.247,0,0,1,4.915.1,6.63,6.63,0,0,1,6.739.641a5.684,5.684,0,0,1,1.6,1.11A6.256,6.256,0,0,1,9.471,3.3a8.782,8.782,0,0,1,.661,1.727,12.223,12.223,0,0,1,.339,1.76c.072.586.114,1.169.136,1.748s.023,1.144.023,1.715c0,.482-.008.964-.019,1.445,0,0-.052.594-.16,1.392s-.274,1.8-.468,2.612c-.3,1.385-.527,1.777-.654,1.615a4.907,4.907,0,0,1-.193-1.746c-.025.088,0-.942-.012-1.992s-.05-2.119-.05-2.119q.013-.6.014-1.21c0-.553,0-1.115-.023-1.657S9,7.5,8.939,6.974a10.687,10.687,0,0,0-.3-1.547A7.273,7.273,0,0,0,8.1,4.01a4.723,4.723,0,0,0-.854-1.162A4.127,4.127,0,0,0,6.087,2.04a5.068,5.068,0,0,0-1.408-.41,8.732,8.732,0,0,0-1.545-.082,18.842,18.842,0,0,0-2.45.261" transform="translate(127.556 48.716)" fill="#3f3b3c"/>
    <path id="Fill_100" data-name="Fill 100" d="M0,.561a.13.13,0,0,1,.035-.1C.238.121.763-.362,1.4.426a.422.422,0,0,1,.061.118q.012,1.254.046,2.507.143,5.511.661,11c.046.46.087.937.139,1.377l.022.362a6.237,6.237,0,0,0,.115.853,2.728,2.728,0,0,0,.38.95,1.643,1.643,0,0,0,.776.6,1.425,1.425,0,0,0,1.109-.049c.209-.107.309-.143.326-.036a.807.807,0,0,1-.366.594,1.549,1.549,0,0,1-.558.266,2.02,2.02,0,0,1-.716.038,1.513,1.513,0,0,1-.648-.173,2.313,2.313,0,0,1-.671-.455,3.24,3.24,0,0,1-.556-.733A5.6,5.6,0,0,1,.969,16.1c-.09-.42-.13-.69-.13-.69L.719,14.2Q.194,8.662.047,3.092.014,1.827,0,.561" transform="translate(26.294 104.102)" fill="#3f3b3c"/>
    <g id="Group_104" data-name="Group 104" transform="translate(-17.083 -8.902)">
      <path id="Clip_103-2" data-name="Clip 103" d="M70.761,0H0V28.872H70.761Z" fill="none"/>
      <g id="Group_104-2" data-name="Group 104" clip-path="url(#clip-path-2)">
        <path id="Fill_102" data-name="Fill 102" d="M5.184,4.626a.12.12,0,0,0,.031-.093,1.078,1.078,0,0,0-.121-.675c-.136-.215-.4-.38-.931-.281a.393.393,0,0,0-.131.056A10.8,10.8,0,0,0,2.58,5.853l-.018.037-.06.123c-.046.094-.092.187-.132.282-.171.378-.325.762-.464,1.147a23.138,23.138,0,0,0-.689,2.331C.841,11.323.526,12.878.3,14.464a25.119,25.119,0,0,0-.274,4.842A10.9,10.9,0,0,0,.44,21.8a6.3,6.3,0,0,0,.524,1.235c.061.1.119.2.183.3l.209.287c.142.166.275.333.426.489a8.138,8.138,0,0,0,2.041,1.575,12.65,12.65,0,0,0,2.3.956c.781.244,1.523.448,2.315.647s1.572.341,2.362.47a85.993,85.993,0,0,0,9.45.782c6.277.286,12.558.406,18.846.287,3.144-.063,6.29-.185,9.437-.445,1.574-.132,3.148-.3,4.723-.545.788-.118,1.576-.274,2.365-.453l.592-.15c.2-.051.4-.116.593-.174a7.916,7.916,0,0,0,1.223-.476,6.108,6.108,0,0,0,1.977-1.792,11.018,11.018,0,0,0,1.227-2.21c.156-.386.3-.775.424-1.173l.045-.147.008,0,.019.011.174.093c.184.1.368.2.558.281s.377.175.57.254a12.677,12.677,0,0,0,2.382.734,12.442,12.442,0,0,0,1.235.188l.311.031.458.026c.4.019.754,0,1.125-.015l.276-.01.262-.021.523-.042,1.088-.086c.155.02,0-.082-.051-.142l-.2-.2-.409-.4c-.272-.271-.546-.535-.821-.8l-.828-.795-.519-.467-.877-.783c-.583-.517-1.138-1.039-1.662-1.579a11.443,11.443,0,0,1-1.365-1.716,6.726,6.726,0,0,1-.815-1.93l-.1-.513A4.374,4.374,0,0,1,63,12.859a6.811,6.811,0,0,1,.015-1.06c.065-.749.184-1.565.186-2.411a5.832,5.832,0,0,0-.524-2.625,4.214,4.214,0,0,0-.826-1.153,5.181,5.181,0,0,0-1.1-.824A9.394,9.394,0,0,0,58.361,3.9c-.967-.231-1.888-.394-2.831-.588s-1.878-.364-2.819-.537-1.883-.338-2.827-.494l-1.416-.235-1.419-.214c-2.363-.365-4.738-.655-7.115-.923-2.38-.244-4.762-.463-7.151-.6-4.776-.3-9.566-.39-14.35-.23L16.64.14c-.6.02-1.195.062-1.792.092s-1.195.061-1.792.1l-1.79.133-.509.038-.472.037c-.166.018-.333.032-.5.055L9.381.688a9.2,9.2,0,0,0-1,.306,7.39,7.39,0,0,0-2.36,1.384A4.263,4.263,0,0,0,5.06,3.469c-.131.24-.119.341-.016.341a9.329,9.329,0,0,0,1.487-.763,10.735,10.735,0,0,1,1.708-.673,9.159,9.159,0,0,1,1.928-.295c.265-.032.568-.05.861-.073l2.235-.166c1.12-.066,2.24-.13,3.36-.183,1.121-.033,2.242-.092,3.364-.105q6.729-.138,13.454.314c4.479.293,8.943.8,13.383,1.467l1.407.212,1.4.234c.936.155,1.872.312,2.8.49s1.867.341,2.8.533,1.88.362,2.766.574a7.958,7.958,0,0,1,2.006.73A3.062,3.062,0,0,1,61.32,7.431a4.339,4.339,0,0,1,.368,1.949c0,.724-.107,1.465-.18,2.278a8.327,8.327,0,0,0-.019,1.29,5.716,5.716,0,0,0,.058.648l.12.644a8.246,8.246,0,0,0,1,2.387,12.929,12.929,0,0,0,1.555,1.962c.568.586,1.157,1.137,1.747,1.661l1.232,1.1h.007l-.134-.007-.273-.027a10.892,10.892,0,0,1-1.087-.166,11.126,11.126,0,0,1-2.1-.648c-.17-.07-.338-.143-.5-.224s-.33-.161-.491-.248l-.122-.064-.035-.019-.061-.038-.123-.076-.491-.3c-.327-.2-.667-.427-1-.638l-.063-.04a.616.616,0,0,0-.018.07l-.033.146-.067.292-.136.585-.141.585c-.023.1-.048.19-.08.293l-.041.132c-.106.353-.238.7-.374,1.039a9.529,9.529,0,0,1-1.049,1.895,4.633,4.633,0,0,1-1.466,1.351,6.729,6.729,0,0,1-.967.369c-.179.052-.353.109-.535.157l-.547.138c-.739.168-1.488.317-2.25.431-1.52.24-3.065.4-4.613.532-3.1.256-6.219.378-9.341.44-6.244.118-12.5,0-18.746-.286a84.721,84.721,0,0,1-9.278-.764c-.757-.124-1.508-.271-2.247-.447s-1.5-.394-2.212-.618a8.177,8.177,0,0,1-3.7-2.123c-.122-.125-.233-.266-.346-.4l-.137-.188-.125-.2a4.825,4.825,0,0,1-.39-.926,9.408,9.408,0,0,1-.349-2.138,23.626,23.626,0,0,1,.261-4.54c.216-1.52.525-3.044.888-4.541a21.665,21.665,0,0,1,.644-2.18q.189-.528.417-1.033l.186-.391A9.293,9.293,0,0,1,5.184,4.626" transform="translate(0 0)" fill="#3f3b3c"/>
      </g>
    </g>
    <path id="Fill_105" data-name="Fill 105" d="M32.434,2.238a.125.125,0,0,0,.1-.035c.342-.21.84-.758.057-1.443a.422.422,0,0,0-.118-.066L29.947.629,5.639,0S3.317.1,1.686.291c-2.766.256-1.672.627.032.855-.179.029,4.081.4,4.081.4l24.108.629Z" transform="translate(-1.039 -0.565)" fill="#3f3b3c"/>
    <path id="Fill_107" data-name="Fill 107" d="M30.771,1.678a.135.135,0,0,0,.1-.032c.335-.188.822-.675.04-1.27A.422.422,0,0,0,30.792.32l-2.5-.031L5.567,0s-2.294.11-3.9.3C-1.069.549.016.864,1.7,1.047c-.177.027,4.039.308,4.039.308l22.53.291Z" transform="translate(0.08 4.47)" fill="#3f3b3c"/>
    <path id="Fill_109" data-name="Fill 109" d="M24.033,1.678a.141.141,0,0,0,.1-.029c.345-.176.852-.639.072-1.231a.442.442,0,0,0-.118-.057L21.547.288Q14.31.091,7.069.014L5.653,0S3.32.114,1.685.308c-2.773.27-1.665.565.05.728-.09.014.936.08,1.984.147l2.118.131,1.213.012Q14.275,1.4,21.5,1.6Z" transform="translate(6.793 9.505)" fill="#3f3b3c"/>
    <path id="Fill_111" data-name="Fill 111" d="M1.48,7.415A15.929,15.929,0,0,1,10.073.982a15.1,15.1,0,0,1,6.658-.9A8.82,8.82,0,0,1,22.587,3.1,10.356,10.356,0,0,1,24.55,7.922c.313,1.9-.524,2.209-1.606,3.746a10.937,10.937,0,0,1-4.6,3.309,68.661,68.661,0,0,1-8.222,3.045c-1.831.567-4.843,2.069-6.8,1.382-4.5-1.574-3.689-8.91-1.834-11.99" transform="translate(63.778 5.078)" fill="#231f20"/>
    <path id="Fill_113" data-name="Fill 113" d="M13.771.009a.129.129,0,0,1,.107.005c.4.1,1,.494.442,1.366a.417.417,0,0,1-.092.095c-.784.243-1.554.533-2.317.837a32.238,32.238,0,0,0-6.088,3.28c-.382.255-.751.529-1.12.8l-.085.054c-.056.034-.136.085-.234.153l-.8.53c-.633.438-1.433,1-2.089,1.477a12.122,12.122,0,0,1-1.153.806C.106,9.542,0,9.537,0,9.433a1.414,1.414,0,0,1,.266-.567c.085-.131.185-.278.3-.433s.251-.314.393-.481a14.689,14.689,0,0,1,1.4-1.464c.766-.747,1.611-1.444,1.611-1.444l.5-.367.509-.351A33.742,33.742,0,0,1,11.343.887c.8-.319,1.605-.623,2.427-.878" transform="translate(68.813 14.03)" fill="#fff"/>
    <path id="Fill_115" data-name="Fill 115" d="M3.031,0c.007,0,.009,0,.025.03a2.933,2.933,0,0,1,.3,1.313.277.277,0,0,1-.005.061c-.008,0-.15.033-.356.091s-.476.142-.739.244a8.512,8.512,0,0,0-1.019.473,3.817,3.817,0,0,1-.73.013c-.545,0-.588-.356-.42-.674-.022,0,.095-.163.226-.316s.276-.3.276-.3A10.058,10.058,0,0,1,1.765.389c.3-.117.615-.217.853-.283s.4-.1.412-.105" transform="translate(84.478 11.792)" fill="#fff"/>
  </g>
</svg>
