<svg xmlns="http://www.w3.org/2000/svg" xmlns:xlink="http://www.w3.org/1999/xlink" width="151" height="201.227" viewBox="0 0 151 201.227">
  <defs>
    <clipPath id="clip-path">
      <path id="Clip_22" data-name="Clip 22" d="M0,0H57.093V61.275H0Z" fill="none"/>
    </clipPath>
    <clipPath id="clip-path-2">
      <path id="Clip_39" data-name="Clip 39" d="M0,0H90.688V141.594H0Z" fill="none"/>
    </clipPath>
    <clipPath id="clip-path-3">
      <path id="Clip_72" data-name="Clip 72" d="M0,0H55.286V50.358H0Z" fill="none"/>
    </clipPath>
  </defs>
  <g id="illustration4" transform="translate(0 -0.524)">
    <path id="Fill_1" data-name="Fill 1" d="M0,27.041S5.9-1.479,17.088.06l5.671,1.248s.02,9.611,11.806,12.212S57.283,14.7,67.854,5.242c0,0,19.025,7.341,17.859,25.414s-18.79,13.119-18.79,13.119l-.711,18.355s-17.448-6.559-24.775-7.8S20.1,56.483,7.28,50.715L17.1,30.655Z" transform="translate(59.427 70.74)" fill="#ffd087"/>
    <path id="Fill_3" data-name="Fill 3" d="M4.208,0S-2.535,2.381,1.051,10.138L3.7,11.48S5.9,6.241,7.428,4.542Z" transform="translate(74.959 14.689)" fill="#2b2b2b"/>
    <path id="Fill_5" data-name="Fill 5" d="M4.555.106A.183.183,0,0,1,4.682.046a1.049,1.049,0,0,1,.842.093,1.177,1.177,0,0,1,.362,1.1.406.406,0,0,1-.038.138,1.859,1.859,0,0,0-.227.236l-.209.258-.21.257c-.064.091-.123.189-.185.283l-.185.283a2.1,2.1,0,0,0-.173.294l-.32.61A16.6,16.6,0,0,0,3.234,6.945c-.268,1.169-.459,2.37-.618,3.585s-.283,2.445-.432,3.692c-.076.636-.151,1.22-.206,1.828s-.1,1.209-.127,1.815a39.886,39.886,0,0,0,.335,7.269,32.908,32.908,0,0,0,1.76,7.02,22.274,22.274,0,0,0,3.522,6.2A15.773,15.773,0,0,0,13,42.645a16.464,16.464,0,0,0,6.872,1.472l.707-.015c.141-.006.281,0,.421-.018l.84-.068.441-.023c.138-.008.3-.011.492-.026l.619-.056c.225-.014.461-.052.707-.083s.5-.061.754-.109c.512-.076,1.023-.186,1.493-.273.391-.1.717-.177.987-.232a5.415,5.415,0,0,1,.633-.129c.318-.039.432.008.392.125a4.505,4.505,0,0,1-1.731,1.2,3.914,3.914,0,0,1-.633.288c-.211.1-.473.177-.753.281s-.587.2-.9.288-.624.177-.923.246-.578.138-.822.18l-.59.111-.226.033c-.3.022-.605.052-.909.066l-.456.013-.51.011-.962-.023a18.04,18.04,0,0,1-7.415-1.964,17.224,17.224,0,0,1-3.214-2.15,18.931,18.931,0,0,1-2.647-2.792,24.157,24.157,0,0,1-3.59-6.679A34.635,34.635,0,0,1,.342,25.006a41.681,41.681,0,0,1-.289-7.477l.058-.935.083-.934.214-1.836c.14-1.2.264-2.425.428-3.653s.362-2.463.648-3.695A18.326,18.326,0,0,1,2.7,2.824L3.077,2.1a2.808,2.808,0,0,1,.207-.353l.224-.346c.076-.115.148-.231.228-.344L4,.736,4.264.411a2.82,2.82,0,0,1,.292-.3" transform="translate(76.31 19.416)" fill="#202020"/>
    <path id="Fill_7" data-name="Fill 7" d="M1.34,0c-.132.272-2.947,17.693,0,18.752s4.135,1.832,4.722,1.732,3.81-9.467,6.706-4.729c.462.757,1.727,2.365,1.727,2.365s1.348-6.366,4.068-4.07,6.4-3.383,8.1,4.028.32,5.355,1.2,8.26,1.2,4.365,0,5.6,2.382.192,1.781-4.524S28.159,1.3,28.159,1.3l-11,7.131Z" transform="translate(54.7 161.232)" fill="#2b2b2b"/>
    <path id="Fill_9" data-name="Fill 9" d="M0,0,13.3,11.339,31.74,3.6V19.46L.495,31.74Z" transform="translate(85.089 162.582)" fill="#2b2b2b"/>
    <path id="Fill_11" data-name="Fill 11" d="M17.842,27.013h0c-.7-1.532-3.342-6.53-7.973-6.53a7.08,7.08,0,0,0-1.606.191c-2.19.511-3.706,1.379-4.5,2.578A13.8,13.8,0,0,1,13.845,0,13.821,13.821,0,0,1,27.688,13.8,13.648,13.648,0,0,1,24.9,22.1a13.948,13.948,0,0,1-7.059,4.909Zm-4-16.884a5.06,5.06,0,1,0,5.078,5.06A5.075,5.075,0,0,0,13.845,10.129Z" transform="translate(15.532 40.351)" fill="#ffd087"/>
    <path id="Fill_13" data-name="Fill 13" d="M12.134,4.362a.2.2,0,0,1,.014.148,1.093,1.093,0,0,1-.43.784,1.174,1.174,0,0,1-1.153-.1.435.435,0,0,1-.118-.085c-.046-.1-.078-.2-.133-.3l-.152-.29L9.986,4.24c-.055-.095-.129-.177-.192-.267a2.505,2.505,0,0,0-.207-.256,3,3,0,0,0-.222-.244c-.079-.077-.154-.157-.235-.231l-.251-.214c-.078-.067-.166-.123-.247-.186a2.282,2.282,0,0,0-.256-.173c-.089-.052-.172-.115-.264-.16L7.84,2.366c-.092-.044-.187-.081-.28-.123a2.491,2.491,0,0,0-.286-.107,2.749,2.749,0,0,0-.289-.09l-.293-.074-.351-.056c-.117-.015-.234-.018-.352-.028s-.235,0-.352,0a2.992,2.992,0,0,0-.353.028,2.966,2.966,0,0,0-.394.028,5.368,5.368,0,0,0-.994.205,6.429,6.429,0,0,0-2.426,1.43A11.157,11.157,0,0,0,.4,4.828c-.2.251-.32.3-.374.188a3.269,3.269,0,0,1,.7-2.154,2.734,2.734,0,0,1,.455-.612A7.012,7.012,0,0,1,2.64,1.011,6.856,6.856,0,0,1,4.448.2,5.611,5.611,0,0,1,5.1.056l.254-.04C5.5,0,5.639.006,5.781,0c.071,0,.142,0,.213,0l.212.014a4.17,4.17,0,0,1,.423.041l.419.067.4.1a4.1,4.1,0,0,1,.4.122,3.724,3.724,0,0,1,.388.144c.127.055.255.106.379.166l.367.191c.124.062.236.142.355.213a3.6,3.6,0,0,1,.343.231c.11.083.225.16.331.249l.335.286c.108.1.211.206.316.309s.2.217.3.328a3.9,3.9,0,0,1,.28.345c.087.121.183.234.26.363l.239.379.211.4c.073.131.124.275.186.413" transform="translate(77.661 27.52)" fill="#202020"/>
    <path id="Fill_15" data-name="Fill 15" d="M1.641,4.1c-.017.032-.022.043-.083.066a1.578,1.578,0,0,1-.787.175c-.3-.033-.641-.21-.768-.9a.615.615,0,0,1,.01-.187,3.927,3.927,0,0,1,.223-.4,3.91,3.91,0,0,1,.253-.376,3.731,3.731,0,0,1,.28-.353,3.793,3.793,0,0,1,.3-.331A4.038,4.038,0,0,1,1.4,1.49a4.311,4.311,0,0,1,.347-.282c.12-.088.238-.179.366-.256S2.361.79,2.494.724l.292-.15.3-.129c.15-.071.312-.116.468-.173s.322-.089.483-.134.33-.061.495-.091S4.87.014,5.037,0l.149.007c.1.008.236.007.409.033A5.385,5.385,0,0,1,8.427,1.3,5.307,5.307,0,0,1,9.546,2.628a3.658,3.658,0,0,1,.584,1.709c0,.338-.072.433-.179.373A2.26,2.26,0,0,1,9.5,4.157a7.365,7.365,0,0,0-.79-.944c.018.047-.147-.144-.456-.4a4.706,4.706,0,0,0-1.273-.743A4.043,4.043,0,0,0,5.568,1.8a3.126,3.126,0,0,0-.64.055,2.092,2.092,0,0,0-.29.04,2.022,2.022,0,0,0-.288.062,2.313,2.313,0,0,0-.285.084,2.857,2.857,0,0,0-.279.1l-.211.092-.2.108a3.115,3.115,0,0,0-.27.161,2.83,2.83,0,0,0-.258.18,2.664,2.664,0,0,0-.244.2A2.422,2.422,0,0,0,2.37,3.1a2.261,2.261,0,0,0-.212.23,2.275,2.275,0,0,0-.193.244,2.279,2.279,0,0,0-.173.257,2.334,2.334,0,0,0-.151.268" transform="translate(93.868 28.195)" fill="#202020"/>
    <path id="Fill_17" data-name="Fill 17" d="M2.174.442c.009-.036.013-.048.066-.085a1.468,1.468,0,0,1,.7-.349c.291-.036.645.056.919.7a.615.615,0,0,1,.029.181c-.038.145-.069.3-.118.43s-.09.278-.14.412l-.158.392c-.054.128-.112.25-.169.375s-.116.243-.174.362l-.177.351-.349.676c-.1.194-.2.39-.285.579s-.169.378-.248.565a5.192,5.192,0,0,0-.18.548,4.33,4.33,0,0,0-.11.53,3.027,3.027,0,0,0-.008.507,1.347,1.347,0,0,0,.024.244,1.4,1.4,0,0,0,.052.232,1.328,1.328,0,0,0,.077.228,1.428,1.428,0,0,0,.1.222,2.513,2.513,0,0,0,.272.418,1.124,1.124,0,0,0,.1.12c.036.039.07.08.108.117a3.106,3.106,0,0,0,.24.214,2.453,2.453,0,0,0,.261.19c.088.063.186.108.279.163l.082.047a2.12,2.12,0,0,0,.232.124,2.942,2.942,0,0,0,.855.274,3.932,3.932,0,0,0,1.26-.025,5.534,5.534,0,0,0,1.308-.433,15.147,15.147,0,0,0,1.351-.827c.261-.167.383-.176.4-.05A3.23,3.23,0,0,1,7.506,9.649a2.494,2.494,0,0,1-.6.429,5.2,5.2,0,0,1-1.757.658,4.447,4.447,0,0,1-2-.1,5.325,5.325,0,0,1-.641-.233l-.234-.116c-.128-.067-.244-.156-.365-.235s-.231-.178-.345-.268-.218-.2-.321-.3-.2-.215-.295-.337A4.315,4.315,0,0,1,.483,8.43a3.141,3.141,0,0,1-.182-.4,2.977,2.977,0,0,1-.142-.417,3.7,3.7,0,0,1-.145-.869A4.97,4.97,0,0,1,.03,5.889a6.127,6.127,0,0,1,.163-.808,7.112,7.112,0,0,1,.245-.745c.1-.232.191-.465.3-.68s.209-.427.313-.638l.348-.675.165-.328c.053-.108.109-.217.156-.323s.1-.214.143-.319l.127-.315c.039-.1.069-.207.105-.311A3.149,3.149,0,0,0,2.174.442" transform="translate(86.44 36.974)" fill="#202020"/>
    <path id="Fill_19" data-name="Fill 19" d="M.056,2.873a.187.187,0,0,1-.046-.134.974.974,0,0,1,.244-.811A1.26,1.26,0,0,1,1.4,1.771a.425.425,0,0,1,.131.05,2.118,2.118,0,0,0,.194.236,2.618,2.618,0,0,0,.213.223c.077.069.145.147.229.209s.159.134.244.195l.259.179.272.161c.092.051.189.095.283.143s.195.082.291.125a2.819,2.819,0,0,0,.279.1,2.341,2.341,0,0,0,.285.085c.1.022.191.055.289.069s.194.038.292.051l.175.017c.058,0,.117.015.175.016l.175,0c.058,0,.117.006.174,0l.174-.01c.058,0,.116,0,.174-.011l.171-.024c.057-.009.115-.012.171-.025l.1-.014c.064-.012.161-.015.279-.042a5.16,5.16,0,0,0,.946-.281,5.524,5.524,0,0,0,1.16-.665A5.984,5.984,0,0,0,9.546,1.6,9.783,9.783,0,0,0,10.381.282c.152-.266.257-.337.331-.24a1.3,1.3,0,0,1,.079.745,4.023,4.023,0,0,1-.4,1.364,2.478,2.478,0,0,1-.362.636,6.118,6.118,0,0,1-1.28,1.356A6.2,6.2,0,0,1,7.014,5.1a6.434,6.434,0,0,1-.649.194l-.255.05a3.921,3.921,0,0,1-.426.044c-.142.005-.285.022-.427.015s-.284,0-.426-.013l-.421-.043C4.273,5.327,4.138,5.3,4,5.276s-.268-.061-.4-.093a3.809,3.809,0,0,1-.394-.116c-.13-.044-.261-.083-.386-.138s-.271-.106-.4-.173-.261-.127-.389-.2l-.375-.222L1.3,4.09c-.118-.085-.228-.18-.341-.271s-.215-.2-.322-.294a4.2,4.2,0,0,1-.3-.315,3.61,3.61,0,0,1-.278-.337" transform="translate(89.816 51.156)" fill="#202020"/>
    <g id="Group_23" data-name="Group 23" transform="translate(75.133 0.524)">
      <path id="Clip_22-2" data-name="Clip 22" d="M0,0H57.093V61.275H0Z" transform="translate(0 0)" fill="none"/>
      <g id="Group_23-2" data-name="Group 23" transform="translate(0 0)" clip-path="url(#clip-path)">
        <path id="Fill_21" data-name="Fill 21" d="M48.1,14.323c1.2-2.946-.379-6.31-2.443-8.724C40.715-.175,33.879-.89,26.883.8,20.922,2.241,11.513,11.736,3.55,2.362-1.233,5.736-.561,9.186,1.925,14.5A11.952,11.952,0,0,0,8.1,19.662a17.5,17.5,0,0,0,7.024.535c7.306-1.1,13.3-3.1,20.04.528a12.032,12.032,0,0,1,5.3,6.72,30.852,30.852,0,0,1,1.408,7.188,13.594,13.594,0,0,0,.893-2.26,3.882,3.882,0,0,1,2.09-2.505c.931-.463,3.184.649,3.5,1.678,1.255,4.051-1.387,9.468-4.8,11.967-.534,4.744-2.715,13.065-5.174,17.435,2.4,1.89,6.661-4.858,8.245-7.694,5.862-10.5,14.4-23.612,8.465-34.413-1.542-2.807-4.433-5.644-7.483-4.7" transform="translate(0 0)" fill="#2b2b2b"/>
      </g>
    </g>
    <path id="Fill_24" data-name="Fill 24" d="M5.52,10.865c.009-.008.011-.01.052.014a1.155,1.155,0,0,0,.256.1c.113.03.243.04.389.07a.622.622,0,0,1,.411.24.935.935,0,0,1,.032.892.848.848,0,0,1-.139.213,2.278,2.278,0,0,1-1.073.423,2.336,2.336,0,0,1-.554,0,2.382,2.382,0,0,1-.278-.048L4.4,12.707a2.452,2.452,0,0,0-.268-.058c-.11-.019-.255-.046-.4-.079a3.313,3.313,0,0,1-.9-.359,4.06,4.06,0,0,1-.563-.4,6.415,6.415,0,0,1-.468-.448,4.789,4.789,0,0,1-.407-.5,3.883,3.883,0,0,1-.365-.552,4.909,4.909,0,0,1-.3-.578C.65,9.54.555,9.344.492,9.143L.3,8.538.171,7.924A4.755,4.755,0,0,1,.1,7.452c-.02-.158-.042-.316-.059-.474L.014,6.5A4.7,4.7,0,0,1,0,6.028s.018-.194.048-.521c.009-.163.056-.355.091-.572.02-.108.041-.222.062-.341s.063-.24.1-.366a6.265,6.265,0,0,1,.247-.783l.153-.4c.054-.134.125-.263.188-.395l.2-.389.23-.364.229-.348L1.8,1.239A4.016,4.016,0,0,1,3.1.1c.281-.147.4-.119.386.006a1.77,1.77,0,0,1-.317.65c-.1.142-.181.329-.291.508a5.649,5.649,0,0,0-.314.6c.042-.031-.1.183-.246.577l-.128.312c-.042.113-.074.24-.115.367s-.085.258-.116.4-.059.28-.089.422l-.045.211L1.8,4.366c-.018.141-.036.281-.053.417-.018.273-.027.528-.035.746.008.218.014.4.019.528a1.33,1.33,0,0,0,.013.2l.016.329a3.171,3.171,0,0,0,.024.327l.043.324a2.572,2.572,0,0,0,.051.321l.1.48.144.46c.047.154.119.29.176.437a3.187,3.187,0,0,0,.208.405A2.251,2.251,0,0,0,2.75,9.7a2.922,2.922,0,0,0,.285.349c.1.109.21.211.315.3a2.348,2.348,0,0,0,.314.222,1.616,1.616,0,0,0,.449.177c.092.021.185.039.313.061a4.038,4.038,0,0,1,.441.1L5,10.953a.707.707,0,0,0,.079.013.674.674,0,0,0,.168,0,.6.6,0,0,0,.274-.1" transform="translate(72.934 14.689)" fill="#202020"/>
    <path id="Fill_26" data-name="Fill 26" d="M32.294,6.383a.14.14,0,0,1,.1-.064,1.235,1.235,0,0,1,.83-.016c.283.115.526.4.537,1.043a.546.546,0,0,1-.031.166c-.308.435-.663.83-1,1.241-.176.2-.36.389-.54.584s-.362.387-.556.567A22.166,22.166,0,0,1,23.386,15a22.048,22.048,0,0,1-9.573,1.08,21.043,21.043,0,0,1-4.747-1.042,16.018,16.018,0,0,1-4.375-2.3A12.293,12.293,0,0,1,1.34,8.959c-.027-.046-.055-.091-.079-.139L1.2,8.706,1.146,8.6l-.112-.216C.955,8.239.9,8.088.827,7.941c-.141-.293-.249-.6-.369-.9,0,0-.048-.184-.129-.492A11.454,11.454,0,0,1,.1,5.3,10.879,10.879,0,0,1,.161,1.986,5.778,5.778,0,0,1,.651.294C.8,0,.912-.056.979.049A9.622,9.622,0,0,1,1.16,2.1a19.159,19.159,0,0,0,.312,2.254,11.841,11.841,0,0,0,.472,1.57l.2.5.087.185c.094.256.206.5.32.751.052.126.122.242.183.363l.047.091.044.084c.02.04.042.079.065.117l.273.459a11.107,11.107,0,0,0,2.956,3.044,16.971,16.971,0,0,0,8.171,2.758A20.256,20.256,0,0,0,22.947,13.2a20.319,20.319,0,0,0,7.435-4.627c.178-.165.346-.339.509-.519s.332-.353.493-.534c.306-.376.632-.735.912-1.133" transform="translate(85.089 68.039)" fill="#202020"/>
    <path id="Fill_28" data-name="Fill 28" d="M3.377,27.695a.16.16,0,0,1-.04.118c-.234.406-.84.98-1.575.044a.518.518,0,0,1-.07-.14q-.016-1.488-.061-2.976c-.084-2.756-.24-5.514-.472-8.257C.925,13.76.509,11.027.193,8.247.131,7.689.069,7.131.018,6.569c0,0,0-.174-.011-.467s-.014-.7,0-1.193A10.7,10.7,0,0,1,.525,1.73,4.41,4.41,0,0,1,1.312.206c.214-.234.324-.253.356-.136a2.126,2.126,0,0,1-.071.7c-.059.339-.132.766-.178,1.237a15.468,15.468,0,0,0-.018,2.2c.041.588.123,1.175.192,1.641l.115.768.15,1.408c.311,2.731.731,5.482.974,8.288q.355,4.18.481,8.365.046,1.506.063,3.013" transform="translate(125.608 109.233)" fill="#202020"/>
    <path id="Fill_30" data-name="Fill 30" d="M34.19,35.1a.15.15,0,0,1-.126.008c-.473-.07-1.276-.437-.727-1.556a.5.5,0,0,1,.1-.127L36.2,32.17c7.422-3.36,14.871-6.631,22.175-10.178,3.652-1.774,7.27-3.61,10.823-5.563l.817-.455h0l-.033-.02-.071-.045L68.271,14.9q-2.6-1.581-5.238-3.1Q57.751,8.78,52.308,6.06,49.586,4.7,46.83,3.421c-.921-.424-1.841-.849-2.767-1.26l-.382-.172-.311.126-1.414.576q-11.316,4.6-22.7,9.038l-6.187,2.4-5,1.918-1.424.541S3.98,17.4,2.059,17.821c-3.23.8-2.133-.048-.293-.974-.213.04,4.459-2.061,4.459-2.061l1.31-.5,5.371-2.06L18.6,10.02Q29.97,5.589,41.274.991L42.687.415l.4-.162.354-.144.177-.072L43.7,0c.029-.008.058.02.087.029L44.8.484c.934.415,1.862.843,2.79,1.271q2.78,1.3,5.525,2.662Q58.6,7.16,63.932,10.2q2.663,1.522,5.282,3.121l1.308.8,2.248,1.408.577.361.144.09.072.045c.014.015.077.03.025.046l-.334.186-1.334.744-1.853,1.032c-3.586,1.971-7.232,3.822-10.9,5.605-7.346,3.568-14.808,6.846-22.219,10.2Z" transform="translate(51.324 126.115)" fill="#202020"/>
    <path id="Fill_32" data-name="Fill 32" d="M.84.614A.152.152,0,0,1,.893.5c.287-.388,1-.929,1.742.076A.491.491,0,0,1,2.7.722L2.518,3.75l-.576,9.5-.1,1.688s-.357,2.767-.758,4.7C.487,22.914.155,21.569.057,19.507,0,19.719,0,14.587,0,14.587l.087-1.449.571-9.5Z" transform="translate(118.179 162.582)" fill="#202020"/>
    <path id="Fill_34" data-name="Fill 34" d="M.2,1.542a.151.151,0,0,1-.076-.1C-.074,1.006-.2.141,1.043,0A.519.519,0,0,1,1.2.016L2.479.829l1.283.8q4.031,2.5,8.178,4.813t8.4,4.428q4.25,2.116,8.6,4.029l2.179.945,1.094.462,1.009.426.137.058c.018.013.057.012.057.036v.96l0,1.291c0,.392,0,.784.009,1.177.012.785.016,1.57.037,2.355.063,3.141.181,6.285.31,9.432l.4,9.45c.122,3.154.224,6.312.259,9.477l.012,1.3v.891s0,.044-.009.123c-.006.144-.015.354-.027.617-.025.528-.06,1.27-.1,2.123,0,.01,0,.031-.005.032l-.039-.022-.078-.043-.155-.087-.314-.175-.63-.354-1.206-.689c-.454-.289-.908-.587-1.314-.867-2.792-1.825-1.43-1.6.514-.869a3.818,3.818,0,0,1,.64.241l.729.3a.26.26,0,0,0,.1.034l.046.006a.44.44,0,0,0,.074,0c.038-.008.076.007.04-.076a.352.352,0,0,0-.051-.107.068.068,0,0,0-.02-.018c0-.006,0,.011,0-.014s0-.044,0-.065c0-.042,0-.08-.007-.115-.008-.138-.013-.217-.013-.217l0-.868-.025-2.17c-.051-3.087-.158-6.178-.281-9.271-.247-6.187-.571-12.382-.685-18.6l-.031-2.333,0-1.168v-.494l-1.673-.708-2.159-.942q-4.308-1.91-8.524-4.016T10.9,7.947Q6.787,5.651,2.786,3.17l-1.3-.807Z" transform="translate(52.674 142.323)" fill="#202020"/>
    <path id="Fill_36" data-name="Fill 36" d="M8.461,24.663c.041.018.056.025.092.09.275.405.52,1.242-.677,1.571a.5.5,0,0,1-.16.01c-.918-.4-1.852-.788-2.8-1.194-.722-.31-1.448-.637-2.164-.993-.358-.176-.714-.362-1.065-.553-.384-.21-.569-.312-1.341-.77l-.241-.142C.073,22.655.014,22.642,0,22.6l.005-.145.02-.578.026-.749.041-1.158.079-2.315c.1-3.086.2-6.17.26-9.253l.03-1.684s.23-2.768.511-4.713c.388-3.3.8-1.989,1.018.066.021-.107.105,1.121.175,2.376s.126,2.539.126,2.539l-.1,4.489L2.043,16.65,1.874,21.6l.356.2c.366.207.738.4,1.112.594.751.379,1.522.728,2.309,1.066.923.4,1.868.784,2.811,1.2" transform="translate(51.999 159.881)" fill="#202020"/>
    <g id="Group_40" data-name="Group 40" transform="translate(60.312 60.156)">
      <path id="Clip_39-2" data-name="Clip 39" d="M0,0H90.688V141.594H0Z" transform="translate(0 0)" fill="none"/>
      <g id="Group_40-2" data-name="Group 40" transform="translate(0 0)" clip-path="url(#clip-path-2)">
        <path id="Fill_38" data-name="Fill 38" d="M53.609.518A.17.17,0,0,1,53.677.4,1.125,1.125,0,0,1,54.42,0c.3-.013.634.171.934.686A.456.456,0,0,1,55.4.831c-.009.026-.046.3-.11.751a14.858,14.858,0,0,0-.1,1.863V3.59l.007.159c.013.256.018.513.048.768s.048.512.091.766a11.539,11.539,0,0,0,.824,2.967c.109.231.206.471.335.69l.183.337.206.321c.129.221.294.413.443.619l.02.027.044.04.132.122a3.477,3.477,0,0,0,.281.233A10.077,10.077,0,0,0,60.6,12.067c1.042.38,2.148.677,3.3,1.067,2.163.747,4.474,1.291,6.814,2.074a34.283,34.283,0,0,1,3.466,1.37c1.108.5,2.239,1.007,3.366,1.564A31.2,31.2,0,0,1,80.9,20.02a17.03,17.03,0,0,1,3.064,2.52,13.591,13.591,0,0,1,1.289,1.57l.291.421c.1.14.173.281.261.422l.51.846c.173.281.314.58.473.87s.319.58.453.883c.274.6.57,1.2.8,1.823a31.332,31.332,0,0,1,1.256,3.8,39.186,39.186,0,0,1,.8,3.936,60.151,60.151,0,0,1,.586,8.029q.048,4.03-.131,8.094c-.239,5.421-.751,10.885-1.462,16.357-.174,1.369-.367,2.737-.564,4.106-.106.687-.195,1.381-.317,2.066l-.377,2.055c-.511,2.727-1.06,5.457-1.668,8.181a139.4,139.4,0,0,1-4.55,16.175q-1.4,3.973-3.1,7.83l-.433.959-.217.479-.11.241-.131.257a9.806,9.806,0,0,1-1.257,1.9,16.773,16.773,0,0,1-3.274,2.913c-.582.413-1.171.8-1.756,1.177l-1.747,1.12-1.758,1.116-1.776,1.082c-2.378,1.421-4.773,2.8-7.215,4.069s-4.893,2.494-7.384,3.6-4.989,2.169-7.515,3.109c-1.256.49-2.531.918-3.792,1.367-1.273.415-2.537.848-3.814,1.222-1.269.4-2.549.744-3.821,1.1-.637.174-1.278.327-1.915.491l-.9.227h0l-.2.131-.413.271a32.936,32.936,0,0,1-7.048,3.632,19.781,19.781,0,0,1-7.81,1.086l-.491-.028-.489-.062c-.325-.045-.651-.076-.973-.133a18.094,18.094,0,0,1-1.907-.451,17.366,17.366,0,0,1-1.843-.647c-.3-.126-.588-.278-.882-.417l-.438-.213-.419-.248a14.826,14.826,0,0,1-3.073-2.344l-.663-.7c-.22-.233-.4-.5-.6-.745A15.493,15.493,0,0,1,1.372,134c-.166-.27-.3-.558-.446-.836l-.216-.42-.054-.1a.931.931,0,0,1-.063-.146L.529,132.3c-.016-.055-.024-.094-.036-.142a8.821,8.821,0,0,1-.169-.978c-.039-.307-.072-.609-.1-.909-.11-1.2-.176-2.374-.21-3.558l-.009-.446,0-.433C0,125.529,0,125.221.02,124.9a11.51,11.51,0,0,1,.267-1.839,15.231,15.231,0,0,1,1.209-3.39,16.007,16.007,0,0,1,.861-1.546c.154-.251.32-.493.488-.734.083-.121.174-.237.261-.355l.133-.178c.062-.073.124-.151.188-.218a3.726,3.726,0,0,1,.855-.677,3.181,3.181,0,0,1,1.079-.381,2.82,2.82,0,0,1,2.214.635,4.865,4.865,0,0,1,.709.738,3.616,3.616,0,0,1,.533.926,15.78,15.78,0,0,1,.5,1.627,15.82,15.82,0,0,1,.461,3.307,16.144,16.144,0,0,1-.032,1.645c-.017.272-.047.543-.077.813l-.056.4c-.8-.049,1.78.253-1.805-.085v-.288c0-1.023,0-2.046.084-3.089a13.462,13.462,0,0,1,.2-1.57,9.619,9.619,0,0,1,.418-1.55,9.4,9.4,0,0,1,.655-1.45c.124-.231.259-.453.4-.669a6.2,6.2,0,0,1,.47-.661,4.878,4.878,0,0,1,1.288-1.146,3.163,3.163,0,0,1,.911-.366,2.52,2.52,0,0,1,1.073,0,2.408,2.408,0,0,1,.969.453,2.916,2.916,0,0,1,.669.74,4.916,4.916,0,0,1,.6,1.553,13.127,13.127,0,0,1,.207,1.417c.049.446.093.892.128,1.339q.013.174.025.344c.021.334.039.626.045.868.021.483.014.763.014.763s0,.053-.01.149-.016.236-.037.412-.035.384-.076.621-.072.5-.138.774c-.05.23-.1.471-.178.717q-.053.184-.109.371l-.136.371a6.852,6.852,0,0,1-.314.72,7.337,7.337,0,0,1-.371.653,5.107,5.107,0,0,1-.668.864,2.51,2.51,0,0,1-.516.439c-.274.18-.394.171-.4.047a1.8,1.8,0,0,1,.239-.674c.063-.163.148-.339.231-.532.067-.2.165-.406.232-.634-.016.023,0-.044.043-.174l.079-.239.084-.328c.07-.237.113-.531.171-.833.037-.311.08-.636.093-.96.023-.255.015-.512.022-.745s-.011-.453-.014-.636c-.018-.369-.036-.609-.036-.609s0-.062,0-.18-.01-.291-.018-.511c-.006-.11-.013-.233-.021-.367q-.006-.1-.013-.208l-.007-.11-.025-.309q-.026-.3-.053-.595c-.038-.394-.084-.815-.132-1.2a5.978,5.978,0,0,0-.224-1.065,1.878,1.878,0,0,0-.4-.74c-.3-.274-.647-.311-1.2.08a3.647,3.647,0,0,0-.739.76c-.111.145-.218.319-.33.5s-.205.357-.311.535a8.153,8.153,0,0,0-.811,2.346,16.515,16.515,0,0,0-.238,2.676c-.011.468-.014.943-.015,1.426v.454c1.616.137-2.2-.068-1.8-.095l.023-.17c.034-.226.056-.455.08-.684a14.064,14.064,0,0,0-.627-5.578c-.034-.115-.078-.227-.117-.341l-.058-.163c-.012-.033-.026-.065-.043-.1a2.238,2.238,0,0,0-.316-.458,1.6,1.6,0,0,0-.779-.567,1.051,1.051,0,0,0-.39-.008,1.543,1.543,0,0,0-.439.178,1.793,1.793,0,0,0-.411.332l-.079.093-.111.15c-.074.1-.15.2-.221.3a14.08,14.08,0,0,0-2.381,5.574,8.8,8.8,0,0,0-.135,1.513l.007.815q.011.41.023.822c.043,1.1.111,2.228.226,3.329.029.275.063.546.1.808.02.126.043.258.067.363l.018.076a.272.272,0,0,0,.015.057c0,.009.018.008-.007.028-.476.212.326-.1.045.063l.372.721.186.362.219.342.439.686c.161.219.335.429.5.645l.252.323c.086.106.186.2.279.3l.565.6a13.9,13.9,0,0,0,5.764,3.279,16.917,16.917,0,0,0,6.867.494,20.377,20.377,0,0,0,6.771-2.217c1.087-.555,2.15-1.192,3.205-1.864l.789-.513.214-.141.2-.133a1.243,1.243,0,0,1,.231-.069l.515-.13,1.845-.467A127.1,127.1,0,0,0,60.55,122.328c2.349-1.286,4.656-2.671,6.944-4.1l1.71-1.086,1.709-1.1a22.653,22.653,0,0,0,3.127-2.374,11.026,11.026,0,0,0,1.256-1.4l.267-.379.239-.394c.084-.13.143-.271.216-.4l.1-.206.1-.232.837-1.856.8-1.877q1.555-3.771,2.829-7.661a148.431,148.431,0,0,0,4.174-15.822c.564-2.665,1.084-5.354,1.562-8.012.421-2.659.784-5.366,1.111-8.039.651-5.359,1.093-10.7,1.267-15.986a73.766,73.766,0,0,0-.758-15.5l-.184-.927-.219-.916c-.134-.614-.332-1.206-.5-1.807A28.49,28.49,0,0,0,85.8,28.776a27.818,27.818,0,0,0-1.759-3.218,12.484,12.484,0,0,0-2.3-2.625,25.707,25.707,0,0,0-6.083-3.684L74.013,18.5l-.827-.374c-.269-.116-.534-.239-.8-.349-1.077-.45-2.176-.834-3.293-1.177s-2.251-.655-3.385-.989q-.852-.248-1.7-.521l-.834-.278c-.264-.089-.535-.173-.808-.258a34.123,34.123,0,0,1-3.34-1.146,11.357,11.357,0,0,1-1.639-.842,8.131,8.131,0,0,1-.774-.551,4.2,4.2,0,0,1-.366-.315l-.193-.179a.823.823,0,0,1-.119-.139l-.073-.1a11.091,11.091,0,0,1-1.707-3.2,14.676,14.676,0,0,1-.711-3.426c-.033-.287-.037-.574-.053-.86l-.006-.122,0-.082V3.43a16.7,16.7,0,0,1,.108-2.072c.071-.506.113-.809.123-.839" transform="translate(0 0)" fill="#202020"/>
      </g>
    </g>
    <path id="Fill_41" data-name="Fill 41" d="M1.8,6.788a.145.145,0,0,1-.053.108,1.289,1.289,0,0,1-.673.47C.781,7.432.416,7.343.061,6.794A.538.538,0,0,1,0,6.633c.093-1.091.285-2.108.42-3.1.033-.248.066-.5.091-.739q.02-.184.035-.365a2.652,2.652,0,0,1,.1-.576A2.4,2.4,0,0,1,1.31.812,3.042,3.042,0,0,1,3.265,0a2.475,2.475,0,0,1,.578.05,2.141,2.141,0,0,1,.586.21A2.7,2.7,0,0,1,5.289,1,4.387,4.387,0,0,1,5.8,1.83c.137.283.22.545.321.813s.167.543.247.816.118.555.178.833.074.561.111.842a12.981,12.981,0,0,1-.163,3.33A18.97,18.97,0,0,1,5.648,11.6c-.179.506-.377,1-.586,1.491-.1.246-.214.485-.322.727L4.658,14l0,.006c1.492.585-2.037-.79-1.672-.652l0-.012.007-.025.014-.049.029-.1c.038-.133.083-.27.13-.408a4.28,4.28,0,0,1,.983-1.678,2.577,2.577,0,0,1,2.115-.732,2.063,2.063,0,0,1,1.185.56,2.028,2.028,0,0,1,.41.584c.023.051.046.1.064.154l.027.077.014.044c.017.055.032.111.045.164A4.514,4.514,0,0,1,8.1,13.008c0,.134,0,.268-.008.4s-.012.267-.023.4l-.092.516a8.991,8.991,0,0,1-.365,1.25,8.184,8.184,0,0,1-.735,1.511,7.787,7.787,0,0,1-1.022,1.327,4.6,4.6,0,0,1-1.378,1.081c-.3.134-.415.108-.4-.017A13.687,13.687,0,0,1,5.1,17.745c-.042.031.106-.187.292-.565a8.684,8.684,0,0,0,.583-1.463,7.83,7.83,0,0,0,.294-1.563c.021-.215.02-.4.029-.521s0-.2,0-.2c.009-.141.017-.282.012-.423a2.944,2.944,0,0,0-.041-.634.5.5,0,0,0-.029-.09.158.158,0,0,0-.027-.039.3.3,0,0,0-.163-.062.838.838,0,0,0-.346.042.784.784,0,0,0-.162.077.7.7,0,0,0-.138.11,2.48,2.48,0,0,0-.535.965c-.036.106-.071.214-.1.328l-.025.086-.012.043-.006.022,0,.011c.364.147-3.183-1.248-1.68-.661l0-.005.077-.17c.1-.228.209-.454.3-.683.2-.457.379-.918.543-1.383a17.081,17.081,0,0,0,.761-2.825A11.108,11.108,0,0,0,4.86,5.3c-.032-.231-.052-.465-.092-.693s-.079-.459-.146-.68a6.9,6.9,0,0,0-.2-.662c-.08-.214-.154-.445-.243-.624a1.6,1.6,0,0,0-.572-.733.9.9,0,0,0-.714.038.9.9,0,0,0-.524.46c-.008-.046-.036.345-.064.591-.028.27-.063.535-.1.8-.144,1.04-.329,2.039-.408,2.991" transform="translate(74.284 177.439)" fill="#202020"/>
    <path id="Fill_43" data-name="Fill 43" d="M15.816,16.78a.156.156,0,0,1,.112.064c.368.324.809,1.073-.255,1.7a.49.49,0,0,1-.15.05c-.244-.043-.488-.08-.733-.115s-.489-.075-.735-.1l-.737-.092L12.58,18.2c-.687-.07-1.376-.122-2.065-.162s-1.38-.06-2.071-.071-1.381,0-2.071.019-1.38.059-2.068.111-1.376.118-2.061.2c-.342.044-.686.081-1.027.134L.7,18.509l-.128.019h0c.5,1.533-.687-2.088-.563-1.716l.007,0L.031,16.8l.029-.015.059-.031.233-.123,3.735-1.974h0c1.791-.949,3.589-1.9,5.4-2.819s3.641-1.825,5.5-2.676,3.732-1.667,5.648-2.4,3.852-1.41,5.833-1.962c.491-.151.991-.274,1.489-.4s1-.26,1.489-.373l2.954-.7.185-.044.094-.022a.958.958,0,0,1,.185-.035l.4-.041.762-.078c.508-.045,1.016-.1,1.524-.136,1.017-.087,2.035-.152,3.053-.213a112.813,112.813,0,0,1,12.238-.014l.382.021h0l.222-.121c.349-.183.7-.362,1.055-.53q1.066-.507,2.172-.919C55.41.921,56.16.681,56.917.472c.378-.106.759-.2,1.142-.289l.288-.065.4-.086L58.887,0a.427.427,0,0,1,.138.023L59.3.091l.28.067,1.111.267,1.124.294c.754.183,1.488.429,2.228.653.372.109.737.236,1.1.367l1.093.386c.725.267,1.438.563,2.157.843.705.311,1.417.609,2.117.93s1.4.646,2.082,1,1.376.688,2.048,1.059,1.353.727,2.018,1.11,1.332.76,1.99,1.152,1.313.788,1.966,1.187c1.3.8,2.592,1.622,3.875,2.448l6.642,4.352.483.318.225.149c-.089.015-.2.024-.305.037l-1.3.148-1.1.093-.262.023-.261.033-.571.073c-.205.024-.362.059-.555.089L87,17.25c-.9.135-2.063.364-3.046.492a7.751,7.751,0,0,1-1.705.13c-.324-.028-.42-.1-.353-.209a6.44,6.44,0,0,1,1.852-.916c-.1.014,1.029-.411,2.237-.826l.455-.15c.137-.045.353-.109.342-.115l.053-.026c.02-.009.03-.016.028-.02a.034.034,0,0,0,0-.024c-.01-.027-.057-.037-.055-.037l-3.3-2.157c-1.275-.821-2.552-1.636-3.84-2.426-.645-.394-1.288-.792-1.94-1.171s-1.3-.767-1.958-1.134-1.316-.734-1.98-1.089-1.334-.694-2-1.035-1.354-.648-2.03-.974-1.372-.6-2.058-.9c-.7-.271-1.388-.559-2.089-.816l-1.056-.373c-.351-.127-.7-.25-1.062-.354-.713-.216-1.421-.454-2.145-.629L60.268,2.2l-1.105-.267-.275-.065-.154.033-.268.06c-.357.083-.714.171-1.067.27-.707.2-1.406.419-2.093.676s-1.363.542-2.026.857c-.331.157-.658.323-.983.493l-.279.152-.25.136-.125.068c-.046,0-.094,0-.142-.005l-.756-.04A110.907,110.907,0,0,0,38.7,4.587c-1,.06-2,.123-3,.209-.5.038-1,.089-1.5.133l-.749.076-.354.037h0L33,5.063l-.185.044-2.955.7c-.5.114-.973.242-1.457.365s-.966.243-1.443.389c-1.921.535-3.81,1.2-5.68,1.911s-3.714,1.509-5.54,2.35-3.635,1.727-5.432,2.645S6.726,15.33,4.936,16.278h0L1.2,18.256l-.234.124L.9,18.41l-.029.016-.015.007-.007,0c.12.375-1.064-3.257-.561-1.72h0L.429,16.7l.533-.078c.354-.055.711-.094,1.066-.14.712-.086,1.426-.153,2.141-.209s1.431-.09,2.148-.115,1.434-.028,2.151-.02,1.434.034,2.149.074,1.431.1,2.144.168l.766.081.765.1c.255.03.509.072.763.108s.509.075.761.119" transform="translate(41.869 124.089)" fill="#202020"/>
    <path id="Fill_45" data-name="Fill 45" d="M.092,17.368a.153.153,0,0,1-.054-.115c-.108-.466-.059-1.348,1.18-1.24a.5.5,0,0,1,.155.047l2.172,2.118c2.659,2.587,5.324,5.164,8.026,7.694l2.036,1.885L14.8,28.838l1.1-.61,1.23-.667c.82-.446,1.644-.879,2.468-1.313,3.39-1.78,6.8-3.492,10.181-5.25,1.688-.881,3.372-1.766,5.036-2.682s3.313-1.855,4.945-2.818c1.621-.98,3.233-1.974,4.8-3.032l.376-.252,0,0s0,0,0,0l-.016-.034-.066-.136-.279-.537c-.208-.414-.446-.811-.67-1.216-.243-.394-.473-.8-.731-1.181-.5-.782-1.044-1.531-1.61-2.264L41.135,6.3c-.059-.077-.125-.149-.187-.224-.253-.3-.5-.6-.765-.881L39.9,4.836c-.174-.225-.432-.529-.72-.889s-.633-.751-.988-1.14-.714-.785-1.035-1.151c-.289-.291-.521-.543-.708-.749a5.459,5.459,0,0,1-.425-.5c-.19-.262-.2-.386-.079-.406a4.9,4.9,0,0,1,1.907.914,3.944,3.944,0,0,1,.571.394c.188.134.4.3.636.488s.484.382.726.595c.494.412.971.857,1.331,1.192l.586.575c.268.3.523.61.784.914l.217.272.446.561.429.575c.567.77,1.1,1.563,1.6,2.382.253.406.487.823.721,1.24.121.207.225.422.338.633l.166.318.086.167.136.282.543,1.127.068.141.034.071c-.011.019-.045.033-.066.05l-.29.194-.578.387-1.357.909C44.2,14.9,43.4,15.4,42.611,15.9c-.8.484-1.594.988-2.406,1.455-6.453,3.818-13.182,7.061-19.753,10.509-.819.431-1.638.862-2.451,1.3l-1.219.661-1.336.74-.611.338-.152.084-.076.042-.038.021c-.013.01-.026.016-.036,0l-.259-.232-.869-.779L12.37,29.1l-2.051-1.9C7.6,24.66,4.929,22.077,2.266,19.486Z" transform="translate(83.739 144.349)" fill="#202020"/>
    <path id="Fill_47" data-name="Fill 47" d="M15.719.019a.156.156,0,0,1,.128-.01c.484.059,1.271.425.742,1.547a.488.488,0,0,1-.1.128c-.452.207-.894.433-1.341.651-.222.11-.442.227-.662.341s-.442.227-.659.348A56.649,56.649,0,0,0,7.14,7.245q-1.6,1.17-3.111,2.45l-.823.711s0,0,0,0l.2.1q3.58,1.8,7.205,3.511t7.3,3.313q3.671,1.606,7.382,3.115t7.464,2.912l1.878.7.683.251h0l.315-.206q1.7-1.1,3.428-2.155l1.053-.634.773-.457s.52-.261,1.294-.626c.856-.4,2.063-.928,3.071-1.3,1.552-.615,2.085-.659,2.012-.424a5.63,5.63,0,0,1-1.591,1.349c.126-.042-1.475.969-2.7,1.782l-1.379.92L40.851,23,39.2,24,37.54,25.047l-.826.531-.419.274-.414.27-.207.136-.1.068c-.016.018-.035.013-.055,0l-.058-.021-2.239-.821-1.856-.695q-3.707-1.4-7.377-2.9t-7.3-3.1q-3.628-1.6-7.215-3.287c-1.193-.567-2.386-1.136-3.573-1.718l-1.778-.876-1.813-.909-1.76-.893L.11,10.89,0,10.834l.091-.083.183-.166.732-.663.732-.662.511-.448c.253-.22.5-.441.764-.654Q4.553,6.865,6.177,5.68A58.772,58.772,0,0,1,12.972,1.4c.224-.124.453-.24.68-.359s.454-.239.684-.353c.46-.226.917-.459,1.383-.673" transform="translate(37.142 142.998)" fill="#202020"/>
    <path id="Fill_49" data-name="Fill 49" d="M.44,2.889a.161.161,0,0,1-.106-.081A1.047,1.047,0,0,1,.767,1.031.454.454,0,0,1,.921.993l.711.205.718.17c.241.053.478.122.72.162l.726.135c.393.082.793.128,1.19.183l.6.08.6.052c.4.037.8.073,1.2.08s.8.042,1.2.029.8,0,1.2-.022.8-.04,1.2-.073l1.2-.125,1.192-.18c.271-.039.539-.1.809-.156s.54-.1.806-.169l.448-.076c.28-.05.679-.1,1.128-.2s.968-.183,1.48-.314L18.826.6l.737-.189.55-.143.45-.124a5.071,5.071,0,0,1,.644-.133c.323-.038.437.015.4.14A1.729,1.729,0,0,1,21.054.7c-.153.116-.331.241-.53.372s-.423.249-.658.378a3.812,3.812,0,0,1-.621.337c-.426.187-1.01.463-1.617.7l-.9.338c-.288.109-.565.186-.8.265l-.571.182c-.138.046-.218.065-.218.065l-.735.149c-.246.046-.489.106-.736.14l-1.264.192-1.271.133c-.424.035-.849.052-1.274.078s-.851.015-1.276.024-.851-.017-1.277-.03-.85-.045-1.274-.085L5.4,3.879,4.763,3.8C4.34,3.737,3.917,3.687,3.5,3.6l-.771-.143c-.258-.044-.511-.116-.766-.172L1.2,3.105Z" transform="translate(125.608 114.635)" fill="#202020"/>
    <path id="Fill_51" data-name="Fill 51" d="M22.707.232c.022-.037.03-.05.1-.077a1.286,1.286,0,0,1,.832-.13c.3.073.578.317.673.938a.508.508,0,0,1-.01.165l-.395.684-.2.342-.223.325-.448.649-.224.324c-.077.106-.144.22-.23.319l-.675.832a10.214,10.214,0,0,1-.7.812c-.5.513-.964,1.054-1.507,1.518l-.791.719c-.271.231-.558.443-.836.666s-.553.45-.849.648l-.885.6-.443.3c-.15.1-.307.18-.46.27l-.925.533c-.3.187-.632.325-.95.485l-.961.466-.99.4-.5.2a4.707,4.707,0,0,1-.5.181L9.6,12.719l-.509.161-.519.125-.851.2-.426.1-.432.071-.481.045-.535.046a5.809,5.809,0,0,1-.673.032c-.488,0-1.036,0-1.585-.015-.552-.052-1.1-.112-1.6-.179-1.676-.287-2.135-.543-1.944-.7a1.724,1.724,0,0,1,.715-.194c.18-.024.384-.044.606-.061s.46-.019.711-.057a3.567,3.567,0,0,1,.657-.076l.756-.061c.279-.033.578-.088.877-.131l.882-.134.765-.175.747-.17c.231-.029.453-.1.68-.15l.678-.163.482-.116.472-.151.945-.3a4.129,4.129,0,0,0,.467-.168l.46-.185.921-.37.893-.434c.3-.149.6-.276.884-.452l.86-.5c.142-.084.289-.162.428-.251l.411-.278.823-.555c.276-.184.524-.4.788-.6s.525-.4.776-.618l.733-.668c.506-.429.936-.932,1.4-1.407a8.918,8.918,0,0,0,.645-.751l.624-.768c.08-.091.141-.2.212-.295l.206-.3.413-.6.206-.3.181-.315Z" transform="translate(99.271 74.116)" fill="#202020"/>
    <path id="Fill_53" data-name="Fill 53" d="M17.2.357a.151.151,0,0,1,.083-.095c.382-.284,1.2-.6,1.6.578a.5.5,0,0,1,.018.16L17.829,3.834q-2.846,7.4-6,14.677l-1.6,3.628c-.541,1.2-1.069,2.413-1.669,3.626a37.21,37.21,0,0,1-1.984,3.529l-.313.483-.259.378c-.172.253-.347.5-.531.748l-.311.365c-.2.221-.482.538-.827.88-.174.17-.353.354-.549.534l-.609.544-.642.515c-.215.164-.434.314-.638.456-.343.248-.648.424-.89.568a4.838,4.838,0,0,1-.6.28c-.3.112-.422.082-.4-.041a7.035,7.035,0,0,1,1.273-1.6,3.836,3.836,0,0,1,.432-.5l.494-.574.554-.688.533-.716.446-.645.419-.646c.167-.226.322-.463.484-.694.082-.115.157-.235.234-.353l.169-.262c.085-.132.172-.263.252-.4A37.821,37.821,0,0,0,7.11,24.6c.548-1.136,1.073-2.332,1.6-3.51l1.559-3.551q3.078-7.121,5.864-14.364Z" transform="translate(58.077 97.752)" fill="#202020"/>
    <path id="Fill_55" data-name="Fill 55" d="M.422,1.653a.154.154,0,0,1-.1-.073C0,1.238-.37.482.791.029A.546.546,0,0,1,.952,0L3.9.818l2.36.659L7.9,1.934s2.651.918,4.466,1.7c3.105,1.243,1.7,1.252-.356.9.2.094-4.871-1.01-4.871-1.01L5.732,3.124,3.37,2.47Z" transform="translate(54.7 101.129)" fill="#202020"/>
    <path id="Fill_57" data-name="Fill 57" d="M4.736.1a.165.165,0,0,1,.12-.058,1.183,1.183,0,0,1,.855.084c.265.158.444.487.4,1.081a.463.463,0,0,1-.042.149,17.9,17.9,0,0,0-3.49,5.005l-.344.761a7.037,7.037,0,0,0-.279.7A2.011,2.011,0,0,0,1.85,8.4a1.159,1.159,0,0,0,.092.483c.2.481.44.972.7,1.467l.393.749c.066.123.134.262.2.373l.193.332a9.268,9.268,0,0,0,2.031,2.354,15.581,15.581,0,0,0,2.711,1.786,29.71,29.71,0,0,0,3.055,1.379c.526.207,1.06.4,1.6.6a10.425,10.425,0,0,0,1.518.465c.053.011.13.024.162.028l.089.013c.06.007.119.015.177.018a2.7,2.7,0,0,0,.341.008,3.291,3.291,0,0,0,.694-.106s.141-.021.388-.083a8.858,8.858,0,0,0,1.022-.334,14.266,14.266,0,0,0,2.633-1.366c.664-.457,1.081-.795,1.355-.964s.4-.182.413-.06a3.849,3.849,0,0,1-1.133,1.811,3.244,3.244,0,0,1-.5.506,12.055,12.055,0,0,1-1.436,1.1,11.381,11.381,0,0,1-1.665.9,6.045,6.045,0,0,1-.887.3,4.913,4.913,0,0,1-1.092.1,5.308,5.308,0,0,1-.542-.043l-.131-.019-.1-.015L14,20.159c-.164-.031-.323-.069-.478-.109-.623-.167-1.164-.374-1.7-.569s-1.079-.4-1.617-.618a29.763,29.763,0,0,1-3.185-1.476,16.37,16.37,0,0,1-2.955-2.029A10.977,10.977,0,0,1,1.73,12.546c-.165-.276-.286-.514-.416-.761l-.393-.752c-.131-.254-.259-.513-.385-.778l-.184-.4L.264,9.645l-.044-.1L.171,9.4A2.986,2.986,0,0,1,.005,8.236,4.037,4.037,0,0,1,.223,7.189C.33,6.876.452,6.6.569,6.335l.353-.779A19.771,19.771,0,0,1,4.736.1" transform="translate(8.779 62.636)" fill="#202020"/>
    <path id="Fill_59" data-name="Fill 59" d="M11.182,11.2c.039.018.053.024.085.085a1.212,1.212,0,0,1,.2.8c-.048.3-.269.593-.9.743a.56.56,0,0,1-.17.006c-.248-.1-.485-.224-.725-.343L9.321,12.3c-.12-.059-.234-.128-.351-.192-.231-.133-.469-.255-.694-.4L7.6,11.294l-.764-.529c-.25-.182-.492-.374-.738-.562-.481-.388-.947-.792-1.391-1.218s-.87-.871-1.27-1.336c-.208-.226-.393-.471-.587-.709s-.373-.487-.552-.735-.351-.5-.517-.759-.329-.516-.48-.782l-.231-.4L.858,3.862c-.142-.271-.28-.543-.4-.823L.269,2.622.222,2.516.163,2.37A2.791,2.791,0,0,1,.04,1.958,1.551,1.551,0,0,1,.5.458,1.712,1.712,0,0,1,1.235.07,2.745,2.745,0,0,1,2.1.011,3.449,3.449,0,0,1,2.7.12c.1.025.19.056.285.088l.141.054.109.046q.415.171.821.363c.137.061.269.132.4.2s.267.134.4.206a14.438,14.438,0,0,1,1.413.987A14.5,14.5,0,0,1,7.475,3.116a12.445,12.445,0,0,1,1.084,1.2,6.382,6.382,0,0,1,.951,1.423c.127.3.1.414-.022.4A7.6,7.6,0,0,1,7.8,4.974c.062.084-.852-.681-1.883-1.31a16.375,16.375,0,0,0-1.458-.808c-.41-.2-.691-.323-.691-.323-.207-.1-.41-.209-.621-.3s-.421-.189-.633-.278l-.1-.041-.067-.025c-.047-.015-.094-.032-.142-.044a1.557,1.557,0,0,0-.278-.051l-.013,0,.236.525c.108.254.234.5.363.745l.191.369.209.359c.136.241.28.479.436.709s.3.466.469.689.323.453.5.667.343.439.534.645c.364.423.753.826,1.156,1.215s.829.755,1.266,1.108c.224.17.444.345.671.51l.694.48.614.384c.2.129.42.238.63.359.106.057.209.121.318.174l.325.161c.216.107.431.218.656.31" transform="translate(0 62.636)" fill="#202020"/>
    <path id="Fill_61" data-name="Fill 61" d="M8.775,9.853c.037.019.05.025.079.089a1.267,1.267,0,0,1,.165.81c-.059.3-.283.591-.9.721a.508.508,0,0,1-.165,0c-.228-.127-.46-.246-.685-.379s-.451-.263-.669-.408-.438-.284-.651-.435-.423-.306-.633-.462a18.923,18.923,0,0,1-2.55-2.354c-.383-.436-.759-.879-1.1-1.35-.178-.23-.337-.475-.505-.712S.85,4.9.689,4.624A4.588,4.588,0,0,1,.008,2.667a2.58,2.58,0,0,1,.223-1.26,2.428,2.428,0,0,1,.867-1A2.607,2.607,0,0,1,2.249.021,3.73,3.73,0,0,1,3.3.059,5.9,5.9,0,0,1,5.121.693l.212.12.188.115c.122.077.247.15.368.23q.365.234.72.485s.565.444,1.255,1.119c.343.339.716.737,1.07,1.155A15,15,0,0,1,9.895,5.19a6.963,6.963,0,0,1,.841,1.486c.11.3.082.424-.038.407A6.876,6.876,0,0,1,9.12,5.818c.052.093-.783-.743-1.732-1.464-.471-.365-.963-.707-1.339-.952s-.637-.4-.637-.4c-.186-.131-.379-.251-.568-.376l-.289-.178c-.047-.029-.1-.063-.14-.084L4.287,2.3A4.157,4.157,0,0,0,3.02,1.851a1.471,1.471,0,0,0-.975.094.623.623,0,0,0-.2.234.723.723,0,0,0-.057.364,2.866,2.866,0,0,0,.435,1.151c.118.2.278.436.415.653.153.213.295.434.456.641.309.425.649.824.995,1.219A17.132,17.132,0,0,0,6.4,8.334c.189.141.376.286.572.417s.388.267.588.393.4.246.6.368.412.227.617.341" transform="translate(1.351 56.558)" fill="#202020"/>
    <path id="Fill_63" data-name="Fill 63" d="M8,10.605c.034.023.047.031.068.1a1.3,1.3,0,0,1,.072.833c-.091.293-.346.561-.973.618A.516.516,0,0,1,7,12.135c-.217-.149-.428-.308-.643-.462s-.414-.327-.621-.491-.4-.345-.6-.52-.386-.36-.574-.546c-.418-.424-.826-.858-1.2-1.322A17.766,17.766,0,0,1,2.3,7.359c-.168-.247-.322-.5-.483-.756s-.3-.517-.441-.783A17.242,17.242,0,0,1,.6,4.192c-.12-.276-.22-.56-.323-.843A4.078,4.078,0,0,1,.009,2.293a2.071,2.071,0,0,1,.07-.766,1.985,1.985,0,0,1,.373-.7A2.271,2.271,0,0,1,1.6.091,2.473,2.473,0,0,1,2.863.073,3.7,3.7,0,0,1,3.875.49a7.316,7.316,0,0,1,.787.535c.244.189.485.382.71.59.115.1.224.2.33.31s.218.21.319.32l.305.331c.1.11.194.226.292.339,0,0,.116.145.284.4s.407.615.649,1.039A20.016,20.016,0,0,1,8.9,7.241c.617,1.566.65,2.1.423,2.029A5.835,5.835,0,0,1,8,7.678c.031.106-.605-.933-1.331-1.9-.36-.487-.742-.957-1.043-1.289-.148-.17-.275-.306-.367-.4l-.142-.147c-.072-.088-.15-.166-.225-.249s-.15-.166-.228-.244c-.16-.152-.31-.317-.477-.457C4,2.816,3.8,2.657,3.6,2.5A5.639,5.639,0,0,0,3,2.086a1.972,1.972,0,0,0-.532-.226.7.7,0,0,0-.39,0,.51.51,0,0,0-.255.148c-.031.056-.03.013-.029.124a2.588,2.588,0,0,0,.172.592c.093.253.181.507.29.754a15.521,15.521,0,0,0,.689,1.459c.124.239.266.468.4.7s.283.457.434.679a15.83,15.83,0,0,0,.963,1.29c.337.417.7.807,1.079,1.188.169.167.344.326.516.491l.536.466c.186.146.37.3.557.44s.381.28.575.413" transform="translate(4.727 52.507)" fill="#202020"/>
    <path id="Fill_65" data-name="Fill 65" d="M6.463,7.057c.018-.04.024-.054.088-.089.394-.258,1.238-.54,1.576.663a.506.506,0,0,1,.009.163c-.248.563-.512,1.135-.826,1.7-.154.283-.326.561-.5.835l-.14.2-.035.051-.017.026-.129.176a10,10,0,0,1-.974,1.128l-.134.13-.067.065-.033.032L5.21,12.2a3.8,3.8,0,0,1-.376.266c-.216.138-.427.257-.644.375a7.9,7.9,0,0,1-1.41.609c-.063.022-.14.039-.212.057a2,2,0,0,1-.231.048,1.935,1.935,0,0,1-.264.031,1.512,1.512,0,0,1-.33-.01A1.813,1.813,0,0,1,1.42,13.5l-.253-.094a1.952,1.952,0,0,1-.257-.133L.783,13.2C.739,13.17.695,13.132.652,13.1a1.793,1.793,0,0,1-.633-1.154,2.918,2.918,0,0,1,.063-.987A13.05,13.05,0,0,1,.49,9.63c.124-.367.245-.793.37-1.2.249-.823.507-1.657.794-2.482s.594-1.64.913-2.445l.487-1.2c.022-.053.037-.094.066-.156l.09-.19a2.5,2.5,0,0,1,.208-.372,2.5,2.5,0,0,1,.259-.353A2.641,2.641,0,0,1,3.984.907,3.418,3.418,0,0,1,5.518.117,5.038,5.038,0,0,1,7.08.021,9.071,9.071,0,0,1,9.832.766a13.033,13.033,0,0,1,2.4,1.367,11.619,11.619,0,0,1,1.083.88q.259.24.506.5l.241.274.22.272a14.968,14.968,0,0,1,2.429,4.868c.068.213.129.426.19.639l.074.266.1.237.5,1.181,1.009,2.363,4.037,9.45,8.074,18.9,4.037,9.45.02.046s0-.006,0-.009l.451-1.946c.194-.839.405-1.674.61-2.51,1.67-6.688,3.782-13.237,5.862-19.763.258-.806.526-1.655.835-2.476s.636-1.634,1-2.43a50.168,50.168,0,0,1,2.382-4.659,50.691,50.691,0,0,1,2.846-4.39,20.643,20.643,0,0,1,3.623-3.955,13.868,13.868,0,0,1,2.326-1.492,12.871,12.871,0,0,1,2.619-.918,16.784,16.784,0,0,1,5.405-.208c1.765.2,3.44.532,5.119.793a31.1,31.1,0,0,0,4.95.493l.418-.009a1.888,1.888,0,0,0,.194-.013l.382-.035a2.908,2.908,0,0,0,.367-.057c.117-.025.245-.038.353-.071l.362-.078.044-.009h.006l.171-.049h.006l.013,0a.479.479,0,0,1,.054-.009.274.274,0,0,0,.125-.025.8.8,0,0,0,.307-.175,2.681,2.681,0,0,0,.65-1.01,7.95,7.95,0,0,0,.405-1.394c.13-.783.161-1.313.214-1.626s.118-.416.222-.347a3.529,3.529,0,0,1,.568,2.093,2.9,2.9,0,0,1,0,.731A5.748,5.748,0,0,1,77.2,7.781a3.034,3.034,0,0,1-.7,1,2.255,2.255,0,0,1-.521.372,2.84,2.84,0,0,1-.556.212l-.033.01h0l.165-.047h0l-.006,0-.012,0-.048.019-.094.036-.174.065-.286.1a1.577,1.577,0,0,1-.182.051l-.064.016-.474.088c-.157.026-.308.033-.463.049s-.31.034-.459.036l-.471.011a21.455,21.455,0,0,1-2.628-.149C68.47,9.477,66.8,9.174,65.148,8.9A27.209,27.209,0,0,0,60.3,8.4a11.246,11.246,0,0,0-4.536.945,9.906,9.906,0,0,0-1.985,1.192c-.319.222-.605.5-.907.749l-.427.414q-.217.2-.417.428l-.407.441-.388.463c-.264.3-.5.635-.752.955-.489.657-.966,1.334-1.419,2.024-.915,1.375-1.751,2.805-2.528,4.264a45.028,45.028,0,0,0-2.069,4.492c-.306.766-.568,1.533-.824,2.323L42.871,29.5c-2.047,6.414-4.059,12.816-5.626,19.331l-.578,2.446L35.7,55.631l-.27,1.23-.067.308-.034.154-.017.077c-.007.01-.02-.039-.029-.056l-.248-.58-.992-2.321-1.476-3.454L28.6,41.7,20.661,23.117l-3.97-9.291L15.7,11.5l-.248-.581-.124-.29-.083-.2-.058-.208q-.161-.589-.353-1.161A12.391,12.391,0,0,0,12.638,4.94a8.727,8.727,0,0,0-1.713-1.491,10.989,10.989,0,0,0-2.046-1.1,6.569,6.569,0,0,0-2.137-.517,2.035,2.035,0,0,0-1.612.5L5,2.487c-.035.059-.071.117-.11.174l-.094.2-.118.283L4.216,4.3c-.306.774-.6,1.549-.865,2.329S2.837,8.2,2.6,9c-.123.4-.235.8-.382,1.234-.139.412-.278.794-.346,1.106a1.262,1.262,0,0,0-.038.358c0,.011.006,0,0,0a.138.138,0,0,1,.021.007c.017,0,.012.016.042.023s.065.023.065.023,0,0,.006,0-.009,0,.006,0,.049-.008.072-.009a.611.611,0,0,0,.1-.021c.038-.01.072-.015.115-.031a6.207,6.207,0,0,0,1.07-.469c.18-.1.362-.2.527-.306.072-.045.179-.121.179-.121-.014-.015.016.021.058.069l.108.122.112.12c-.138-.15.469.5-.28-.308l.027-.026.055-.053.109-.106a8.171,8.171,0,0,0,.795-.922l.106-.145.015-.021.029-.042.116-.169c.149-.231.295-.465.429-.71.272-.489.513-1.011.751-1.55" transform="translate(16.207 59.935)" fill="#202020"/>
    <path id="Fill_67" data-name="Fill 67" d="M.012.965a.151.151,0,0,1,0-.126C.132.376.574-.4,1.641.248a.5.5,0,0,1,.118.112l1,2.883L3.778,6.436l.964,3.208q.935,3.214,1.8,6.443c.294,1.075.574,2.153.853,3.23l.835,3.231,1.651,6.46q.824,3.228,1.685,6.441l.882,3.206.921,3.193c.633,2.121,1.28,4.238,1.992,6.331l.36,1.085c.09.281.193.558.293.836,0,0,.182.668.429,1.57.116.454.248.967.381,1.486s.278,1.037.391,1.514c.845,3.211-.014,2.148-.977.3a3.778,3.778,0,0,1-.316-.607c-.2-.408-.469-.973-.716-1.554l-1.016-2.345c-.1-.276-.194-.555-.287-.835L13.36,48c-.172-.522-.352-1.042-.516-1.566l-.487-1.574-.487-1.574-.462-1.58c-.622-2.105-1.2-4.22-1.771-6.334L8.8,32.2l-.82-3.178L6.354,22.67,5.534,19.5q-.409-1.585-.838-3.163-.842-3.161-1.762-6.294C2.619,9,2.316,7.956,1.992,6.917L1,3.811Z" transform="translate(22.961 82.22)" fill="#202020"/>
    <path id="Fill_69" data-name="Fill 69" d="M1.676,5.106c-.011.029-.014.039-.068.064A2.074,2.074,0,0,1,.9,5.431a.689.689,0,0,1-.468-.1,1.064,1.064,0,0,1-.415-.649A.635.635,0,0,1,0,4.488a4.878,4.878,0,0,1,.4-.819,7.2,7.2,0,0,1,.473-.692A8.144,8.144,0,0,1,2,1.761,7.487,7.487,0,0,1,3.376.808,6.854,6.854,0,0,1,4.947.2,6.285,6.285,0,0,1,6.637,0,5.939,5.939,0,0,1,8.327.289,7.626,7.626,0,0,1,9.85.961a8.439,8.439,0,0,1,1.337.97A7.481,7.481,0,0,1,12.3,3.168a6.4,6.4,0,0,1,.815,1.5c.054.153.109.306.159.46l.113.479a4.485,4.485,0,0,1,.075.475c.009.079.023.158.027.237l.013.238s0,.049,0,.139a3.516,3.516,0,0,1-.025.382,4.756,4.756,0,0,1-.076.571,6.668,6.668,0,0,1-.159.7A7.18,7.18,0,0,1,12.6,9.874a5.848,5.848,0,0,1-1.025,1.311,3.422,3.422,0,0,1-1.472.934c-.317.077-.422.025-.388-.09.068-.238.67-.721,1.133-1.513-.019.015.007-.029.062-.118s.134-.231.223-.408a5.98,5.98,0,0,0,.507-1.4,5.865,5.865,0,0,0,.148-1.485c0-.1-.008-.193-.012-.275l-.026-.209c-.013-.115-.021-.182-.021-.182l-.039-.3a1.919,1.919,0,0,0-.057-.286c-.024-.093-.038-.188-.069-.28l-.1-.275a4.615,4.615,0,0,0-.6-1.088,5.7,5.7,0,0,0-.857-.948,6.7,6.7,0,0,0-1.045-.758A5.882,5.882,0,0,0,7.8,2a4.188,4.188,0,0,0-1.2-.207,4.534,4.534,0,0,0-1.222.141,5.069,5.069,0,0,0-1.164.455,5.655,5.655,0,0,0-1.044.727,6.3,6.3,0,0,0-.881.949,5.441,5.441,0,0,0-.364.531,3.1,3.1,0,0,0-.251.514" transform="translate(22.961 47.779)" fill="#202020"/>
    <g id="Group_73" data-name="Group 73" transform="translate(0 29.128)">
      <path id="Clip_72-2" data-name="Clip 72" d="M0,0H55.286V50.358H0Z" transform="translate(0 0)" fill="none"/>
      <g id="Group_73-2" data-name="Group 73" transform="translate(0 0)" clip-path="url(#clip-path-3)">
        <path id="Fill_71" data-name="Fill 71" d="M34.552,42.681a.164.164,0,0,1-.132,0,1.138,1.138,0,0,1-.716-.44,1.067,1.067,0,0,1,.125-1.149.469.469,0,0,1,.1-.114l.017-.006h0c.472.148-1.054-.332,1.058.331h0l0,0,.006.008.022.031.043.062.087.125.173.249.342.5.675,1,.335.5,1.934,2.873.853,1.234h0l.3-.2q3.08-2.044,6.326-3.825l.185-.1h0l0,0-.154-.175c-.208-.235-.407-.472-.606-.709-.795-.95-1.547-1.913-2.3-2.86l-.985-1.22-.5-.6-.194-.228-.261-.3-.523-.595-.131-.149-.016-.019.017-.018.034-.036.069-.072.275-.287.548-.577.333-.37.246-.287c.324-.386.636-.783.929-1.193s.572-.83.834-1.26.514-.878.732-1.315q.165-.333.313-.673l.143-.343.107-.277c.047-.123.092-.247.135-.373l.262-.752c0-.047.043-.026.075-.024l.1.015.2.03.392.061.753.114.386.053q1.376.185,2.763.281.693.048,1.387.075l.787.023h0l.038-.363.157-1.406.33-2.8.226-1.962.083-.765s0,0,0,0l-1.225-.016H50.069l-1.988.02-1.132.015-1,.013-.124,0c-.026-.02-.026-.074-.04-.109l-.067-.238-.132-.476c-.047-.16-.083-.314-.137-.482l-.069-.224c-.044-.15-.1-.3-.149-.445-.1-.3-.212-.589-.335-.878a17.31,17.31,0,0,0-.815-1.7,17.558,17.558,0,0,0-1-1.6c-.18-.258-.365-.515-.561-.763-.1-.125-.192-.25-.295-.371l-.185-.224-.326-.378-.325-.375-.162-.187-.081-.093c0-.032.045-.064.066-.1l.628-.768.737-.92q.6-.77,1.187-1.558,1.162-1.576,2.225-3.221l.422-.663s0,0,0,0l-1.143-.671Q43.552,4.97,41.856,3.907l-1.69-1.074-.275-.178h0l-.023.039L39,4.163q-.492.852-.966,1.714T37.1,7.608l-.456.872-.407.8-.225.441c-.085.122-.113.389-.3.238L34.784,9.6l-.232-.089c-.065-.027-.195-.069-.206-.074l-.223-.076c-.3-.107-.6-.186-.9-.275A16.892,16.892,0,0,0,31.381,8.7a15.656,15.656,0,0,0-3.759-.077c-.313.035-.625.07-.935.123-.156.022-.311.049-.465.081l-.231.045-.134.026-.246.057-.968.225-.121.028L24.467,9.1l-.11-.222-.219-.443-.566-1.145L21.815,3.734,21.05,2.184s0,0,0,0l-.159.052-.452.159a23.139,23.139,0,0,0-3.479,1.6Q16.122,4.462,15.329,5l-.089.061,0,0,.146.3L17.124,8.93l.869,1.783.682,1.4.054.111.027.056c.016.02.015.036-.008.049l-.185.166-.372.333-.366.338-.181.175a15.085,15.085,0,0,0-2.351,2.9,12.878,12.878,0,0,0-.839,1.654c-.062.143-.118.288-.174.432l-.142.387-.159.474-.157.473-.078.236c-.008.017-.01.045-.023.054l-.06-.016-.12-.033-.958-.261-4.1-1.119-3.85-1.05-.438-.12h0s0,0,0,0l-.237.748c-.1.309-.185.621-.276.933-.178.624-.344,1.255-.506,1.89l-.344,1.385-.077.315-.309,1.265-.084.281c-.054.162-.158.469-.3.887l-.123.349-.017.046-.006.006-.013.014-.029.035a1.223,1.223,0,0,0-.069.1.478.478,0,0,0-.038.065A.333.333,0,0,0,1.8,25.7c.027.02.062.042.1.064a.61.61,0,0,0,.242.09c.3.082.6.166.876.249,3.219.875,1.83,1.071-.2.982.033.011-.071.009-.268,0l-.36-.025-.222-.017-.12-.009-.212-.023L.645,26.9.108,26.84l-.069-.008-.035,0c-.011,0,0-.018,0-.027l.028-.126L.09,26.42c.079-.352.16-.707.239-1.056.02-.09.04-.179.059-.268l.031-.156c.018-.094.035-.187.052-.277l.167-.908.094-.519L1.034,22l.038-.155.453-1.809c.163-.632.335-1.264.521-1.9.091-.316.19-.63.287-.945l.175-.54.312-.914.157-.458.039-.114c.028-.01.075.015.112.021l.234.063.941.255,1.13.308,1.878.512,3.756,1.024,1.485.405.07-.184c.063-.159.127-.318.2-.475a14.168,14.168,0,0,1,2.145-3.516,18.792,18.792,0,0,1,1.376-1.5l.205-.2-.149-.306L14.7,8.091l-.85-1.742L13.238,5.1l-.208-.435-.052-.109L12.951,4.5c-.018-.021,0-.033.017-.044l.2-.141.786-.566.541-.37.423-.276q.426-.271.863-.525.873-.507,1.786-.943t1.857-.8c.314-.121.632-.234.952-.341l.372-.123.463-.142L21.671.1,21.9.025l.058-.018c.023-.015.035,0,.042.02l.054.108,2.031,4.1,1.429,2.892.2-.04c.335-.07.673-.123,1.012-.173a18.254,18.254,0,0,1,2.047-.166,17.4,17.4,0,0,1,4.086.391,16.8,16.8,0,0,1,1.979.556l.138.047.087-.17q.9-1.736,1.859-3.44.48-.852.977-1.695l.612-1.025.472-.779.252-.414c.021-.033.041-.071.063-.1l.1.066.2.132,2.265,1.463,1.638,1.029q1.645,1.019,3.313,2l1.17.68.838.488c.034.021.073.04.1.062l-.063.1-.127.206-.253.412-.509.824-.276.436-.535.826q-1.084,1.641-2.266,3.217-.591.787-1.205,1.556l-.189.235.1.122a19.783,19.783,0,0,1,2.245,3.379,19.026,19.026,0,0,1,.849,1.85q.186.475.347.959l.14.45v0l3.045-.033,1.962,0,.984.013,1.824.047.243.007c.024,0,.041,0,.031.028l-.006.06-.012.12-.049.481-.1.961L55,23.412l-.222,1.93-.329,2.8-.155,1.394-.11,1.039-.074.7-.018.175a.308.308,0,0,1-.014.082h-.088l-.354,0-1.324-.014-.723-.022q-.723-.028-1.445-.078-1.443-.1-2.878-.293l-.434-.06v0l-.038.094-.161.387q-.166.385-.353.76c-.124.249-.257.5-.392.738s-.27.474-.413.71q-.429.705-.911,1.377c-.321.448-.66.882-1.015,1.3l-.269.313-.137.155-.059.065h0l.58.691,1,1.242c.762.955,1.509,1.91,2.276,2.827.193.228.384.457.58.678l.148.168c.105.122.208.228.315.342l.633.673.318.333.159.167.079.084.04.042.02.021c.008.007.015.014,0,.017l-.809.431-1.431.769q-3.175,1.742-6.194,3.746L39.584,50l-.378.252-.094.063-.047.031c-.007,0-.016.013-.023.013l-.017-.023-.134-.183-.537-.733-.267-.368-.18-.255-.264-.379-.52-.758-1.94-2.881-.333-.5-.669-.985-.337-.489-.169-.242-.085-.121-.042-.061-.021-.03,0-.007,0,0h0c2.112.663.585.184,1.056.332h0Z" transform="translate(0 0)" fill="#202020"/>
      </g>
    </g>
    <path id="Fill_74" data-name="Fill 74" d="M.386,1.64a.157.157,0,0,1-.1-.077A1.068,1.068,0,0,1,0,.808C.039.519.252.234.82.024A.517.517,0,0,1,.975,0c.461.154.937.292,1.405.437L3.8.845a101.6,101.6,0,0,0,17.85,3.118c1.507.158,3.021.21,4.533.293.756.053,1.513.05,2.271.062l2.271.031c.757,0,1.513-.037,2.27-.054s1.514-.034,2.269-.072l1.895-.138,1.614,0c.466.015.989,0,1.518-.016s1.065-.014,1.552-.008c3.3-.03,2.078.5.066.957.109.006-1.1.235-2.334.464l-2.518.337-.877.064-.439.032-.353.026c-.189.017-.379.02-.569.026l-2.276.064c-.759.016-1.517.06-2.276.035L28,6.04l-1.138-.018-1.136-.059L23.45,5.844c-.758-.04-1.511-.126-2.267-.187-3.023-.247-6.027-.673-9.012-1.183S6.229,3.3,3.3,2.509L1.842,2.092C1.356,1.942.872,1.8.386,1.64" transform="translate(71.583 110.583)" fill="#202020"/>
    <path id="Fill_76" data-name="Fill 76" d="M.43,1.745a.159.159,0,0,1-.1-.076A1.153,1.153,0,0,1,0,.893C.02.589.219.279.778.032A.5.5,0,0,1,.932,0c.952.269,1.922.51,2.894.737q2.41.556,4.855.978l1.653.269,1.585.361,1.493.343c.521.117,1.047.241,1.522.365,3.243.706,1.908.981-.174.99.106.026-1.132-.011-2.394-.1-.632-.039-1.27-.09-1.75-.136l-.8-.071L8.369,3.5C6.709,3.208,5.056,2.881,3.412,2.5c-1-.232-1.988-.479-2.982-.758" transform="translate(70.232 119.362)" fill="#202020"/>
    <path id="Fill_78" data-name="Fill 78" d="M6.069,2.077c.01.009.015.012,0,.053a2.178,2.178,0,0,1-1.16,1.18.288.288,0,0,1-.082.026c-.014-.009-.26-.2-.64-.47s-.9-.6-1.433-.909c-.128-.073-.286-.162-.38-.21L2.3,1.714H2.3s0,0,0,0l-.015.024-.119.2-.107.179a8.1,8.1,0,0,1-1.115.958C.1,3.717-.074,3.223.025,2.63a11.949,11.949,0,0,1,.4-1.344l.105-.177L.671.871A2.068,2.068,0,0,1,1.07.4,1.77,1.77,0,0,1,2.582.04a3.034,3.034,0,0,1,.775.285c.178.094.3.165.454.251.583.333,1.146.7,1.559.989s.683.5.7.512" transform="translate(80.362 32.923)" fill="#202020"/>
    <path id="Fill_80" data-name="Fill 80" d="M1.689,4.04c-.006.011-.008.015-.056.01A2.466,2.466,0,0,1,.956,3.9,2.2,2.2,0,0,1,.046,3.3.249.249,0,0,1,0,3.216,8.155,8.155,0,0,1,1.9.743c.074-.063.145-.127.221-.187L2.233.464c.037-.031.125-.1.187-.141A1.668,1.668,0,0,1,3.319,0a1.8,1.8,0,0,1,.874.2c.059.028.142.076.192.105l.125.079c.079.052.152.1.217.155a6.811,6.811,0,0,1,.536.471l.165.157.074.115.162.263a2.566,2.566,0,0,0,.47.579c.308.239.59.268.618.469a.4.4,0,0,1-.179.331,1.118,1.118,0,0,1-.6.219c.024.012-.111.028-.314,0a2.62,2.62,0,0,1-.718-.2,3.2,3.2,0,0,1-.355-.178c-.1-.058-.194-.114-.267-.16l-.237-.153-.166-.157a4.3,4.3,0,0,0-.372-.322c-.034-.025-.069-.049-.1-.07L3.414,1.9l.005,0h0l-.128.1-.166.143A6.38,6.38,0,0,0,2.07,3.378a6.465,6.465,0,0,0-.381.662" transform="translate(93.868 32.923)" fill="#202020"/>
    <path id="Fill_82" data-name="Fill 82" d="M.857,1.351c0,.007,0,.008-.019.018a.913.913,0,0,0-.227.249.305.305,0,0,1-.2.128.4.4,0,0,1-.364-.21A.388.388,0,0,1,0,1.417,1.354,1.354,0,0,1,.421.366,1.377,1.377,0,0,1,1.358,0,1.848,1.848,0,0,1,2.72.639,2.749,2.749,0,0,1,3.319,2a4.7,4.7,0,0,1,.053.945,5.616,5.616,0,0,1-.153.869,5.481,5.481,0,0,1-.623,1.5,2.831,2.831,0,0,1-.518.675c-.12.1-.178.107-.188.046a4.923,4.923,0,0,1,.292-.969,10.1,10.1,0,0,0,.268-1.09,5.851,5.851,0,0,0,.076-.809c0-.223,0-.367,0-.367a3.612,3.612,0,0,0-.044-.638A1.828,1.828,0,0,0,2.1,1.271,1.029,1.029,0,0,0,1.365.919a.72.72,0,0,0-.212.037.554.554,0,0,0-.161.1.426.426,0,0,0-.134.3" transform="translate(118.855 31.572)" fill="#4d4d4d"/>
    <path id="Fill_84" data-name="Fill 84" d="M0,.638C0,.621,0,.614.029.577a1.419,1.419,0,0,1,.559-.4A2.619,2.619,0,0,1,1.651,0a.264.264,0,0,1,.085.015l.082.228c.062.133.139.325.259.54.064.106.124.224.2.343l.253.364.3.367c.114.115.223.238.341.352s.242.223.369.324.252.2.38.285.252.167.373.24l.348.19c.222.1.406.192.54.24l.21.075.123.08.321.187c.129.085.283.153.44.242s.323.16.475.249c.525.223.724.406.668.59s-.363.353-.765.428c.02.012-.089.029-.266.048a5.572,5.572,0,0,1-.672.012c-.249-.01-.5-.045-.691-.064l-.314-.059-.272-.1c-.166-.076-.412-.172-.689-.319-.138-.076-.289-.155-.445-.245l-.475-.309-.483-.367-.47-.417L1.44,3.066,1.051,2.59.722,2.114C.625,1.957.54,1.8.458,1.662.3,1.377.2,1.122.115.944L0,.638" transform="translate(20.935 70.065)" fill="#202020"/>
  </g>
</svg>
