<svg id="illustration9" xmlns="http://www.w3.org/2000/svg" xmlns:xlink="http://www.w3.org/1999/xlink" width="151.785" height="196" viewBox="0 0 151.785 196">
  <defs>
    <clipPath id="clip-path">
      <path id="Clip_2" data-name="Clip 2" d="M0,0H62.989V117.43H0Z" fill="#ffd087"/>
    </clipPath>
  </defs>
  <g id="Group_3" data-name="Group 3" transform="translate(12.672 78.57)">
    <path id="Clip_2-2" data-name="Clip 2" d="M0,0H62.989V117.43H0Z" transform="translate(0 0)" fill="none"/>
    <g id="Group_3-2" data-name="Group 3" transform="translate(0 0)" clip-path="url(#clip-path)">
      <path id="Fill_1" data-name="Fill 1" d="M8.166,2.51S-2.493,20.746.545,52.433s9.375,54.441,17.3,60.129,50.282,10.04,44.63-8.885S48.871,85.7,43.656,73.06s-10.1-50.995-3-62.351,12.7-8.743,12.7-8.743-7.231-7.742-24.543,7.5S8.777,22.072,7.219,15.051,13.089.383,13.089.383Z" transform="translate(0 0)" fill="#ffc468"/>
    </g>
  </g>
  <path id="Fill_4" data-name="Fill 4" d="M29.165,3.213s9.459-6.94,18.2-.42,4.908,14.474,4.908,14.474,12.77-3.086,14.82,11.291S56.418,43.265,53.939,42.209c0,0,8.027,3.2,5.977,15.457S44.622,70.54,41.982,69.7c-6.445-2.049-3.2-7.574-3.2-7.574s-6.812,6.357-14.435,0-7.289-8.753-7.289-8.753S8.931,55.712,8.162,46.65c0,0-11.639-4.193-7.12-15.9C4.43,21.977,12.98,18.828,20.114,21.705c0,0-9.677-7.061-4.689-12.248,6.6-6.861,13.74-6.244,13.74-6.244" transform="translate(79.852 41.576)" fill="#231f20"/>
  <path id="Fill_6" data-name="Fill 6" d="M.363,29.947a.175.175,0,0,1-.1-.1,1.2,1.2,0,0,1-.245-.872c.06-.324.33-.631.959-.828a.529.529,0,0,1,.168-.016l.719.3.739.25a15.224,15.224,0,0,0,1.5.435,21.215,21.215,0,0,0,10.723-.212A21.337,21.337,0,0,0,24.1,23.533a23.559,23.559,0,0,0,3.411-4.22,25.968,25.968,0,0,0,2.441-4.866A28.824,28.824,0,0,0,31.4,9.186l.105-.647.065-.461c.043-.307.078-.615.111-.924,0,0,.134-.715.267-1.694s.257-2.225.345-3.266A17.405,17.405,0,0,1,32.449.388c.065-.341.154-.442.261-.361A5.061,5.061,0,0,1,33.389,2.2a17.544,17.544,0,0,1,.246,2.609c.028.693.025,1.4.013,1.926s-.035.885-.035.885c-.037.323-.076.645-.124.967-.022.161-.045.322-.073.482l-.069.42-.13.7a30.769,30.769,0,0,1-1.63,5.5,29.022,29.022,0,0,1-2.674,5.091,25.85,25.85,0,0,1-3.71,4.425,23.145,23.145,0,0,1-10.04,5.651,23.217,23.217,0,0,1-11.542.175,17,17,0,0,1-1.651-.478l-.815-.276Z" transform="translate(50.815 32.337)" fill="#202020"/>
  <path id="Fill_8" data-name="Fill 8" d="M.2,1.535C.211,1.5.213,1.486.27,1.451a.806.806,0,0,1,.78-.019c.152.067.308.161.483.256.041.022.1.048.13.064l-.012-.006a.182.182,0,0,0-.039-.012h0s-.013,0,.011,0,.016,0,.05-.011a.54.54,0,0,0,.149-.08.555.555,0,0,0,.108-.1c.016-.018.021-.033.009-.01a.558.558,0,0,0-.047.291.229.229,0,0,0,.026.089c-.006-.007,0,.005-.01-.01a.148.148,0,0,0-.048-.034l-.338.068-.012,0a.165.165,0,0,0-.035,0,.221.221,0,0,0-.052.006.267.267,0,0,0-.058.014.43.43,0,0,0-.092.038s0,0,0-.006-.005,0-.006-.006a.423.423,0,0,0,.047-.087.226.226,0,0,0,.019-.055.194.194,0,0,0,.01-.05.131.131,0,0,0,0-.034.051.051,0,0,0,0-.012l.781-.278a2.059,2.059,0,0,0-.162.414s-.079.085-.19.223-.25.332-.388.528c-.183.328-.353.5-.559.509a.7.7,0,0,1-.568-.428,1.542,1.542,0,0,1-.207-.651A3.666,3.666,0,0,1,0,1.31a3.968,3.968,0,0,1,.3-.758L.543.1,1.05.021A1.976,1.976,0,0,1,1.567.013a2.063,2.063,0,0,1,.472.122,2.044,2.044,0,0,1,.729.5,1.988,1.988,0,0,1,.447.752,1.934,1.934,0,0,1,.085.47,1.841,1.841,0,0,1-.052.5l-.04.165-.091.131a1.439,1.439,0,0,1-1.029.634,1.576,1.576,0,0,1-.508-.017,1.678,1.678,0,0,1-.415-.133A1.885,1.885,0,0,1,.81,2.924,1.777,1.777,0,0,1,.5,2.612a1.512,1.512,0,0,1-.243-.463A1.342,1.342,0,0,1,.2,1.535" transform="translate(78.532 38.276)" fill="#202020"/>
  <path id="Fill_10" data-name="Fill 10" d="M.468,8.214a.175.175,0,0,1-.115-.082A1.2,1.2,0,0,1,0,7.3c.02-.327.242-.653.828-.921a.514.514,0,0,1,.163-.036c.5.138,1.019.265,1.545.394l.8.2.788.212c.178.047.353.09.51.116a1.846,1.846,0,0,0,.4.037.321.321,0,0,0,.123-.019c.01,0,0,0,.008-.006A.874.874,0,0,0,5.3,6.9a.668.668,0,0,0,.03-.092c.016-.066.039-.162.068-.282a8.145,8.145,0,0,0,.115-1.108c.046-.936-.024-2.182-.053-3.224C5.351.429,5.515-.139,5.724.028a6.4,6.4,0,0,1,.81,2.057A18.479,18.479,0,0,1,7.1,4.606a10.666,10.666,0,0,1,.158,2c0,.142-.02.288-.028.409a2.265,2.265,0,0,1-.046.33l-.06.3a2.3,2.3,0,0,1-.687,1.107,1.972,1.972,0,0,1-.664.375,2.451,2.451,0,0,1-.644.114,3.7,3.7,0,0,1-.82-.059c-.246-.041-.468-.095-.685-.151l-.778-.209-.777-.195c-.524-.129-1.056-.259-1.6-.408" transform="translate(77.212 47.515)" fill="#202020"/>
  <path id="Fill_12" data-name="Fill 12" d="M6.48,4.734c.017-.007.023-.009.062.025A2.011,2.011,0,0,1,7.253,6.5a.29.29,0,0,1-.03.1c-.011.007-.137.061-.352.15a7.91,7.91,0,0,1-.923.315,4.956,4.956,0,0,1-1.439.19,4.147,4.147,0,0,1-1.688-.4A5.5,5.5,0,0,1,1.45,5.905l-.272-.264A4.423,4.423,0,0,1,.891,5.3,4.451,4.451,0,0,1,.5,4.646a6.254,6.254,0,0,1-.376-.987c-.063-.238-.1-.374-.1-.374a6.272,6.272,0,0,1-.019-.854A5.546,5.546,0,0,1,.286.879,1.884,1.884,0,0,1,.666.115C.787-.011.89-.025.974.032c.171.116.267.494.369.924.019-.045.091.472.225.97.068.249.147.493.214.669s.117.289.117.289.022.1.074.263a4,4,0,0,0,.25.627l.1.169c.036.047.07.107.107.151a4.17,4.17,0,0,0,.329.336,3.571,3.571,0,0,0,.875.593,2.308,2.308,0,0,0,.942.21A3.2,3.2,0,0,0,5.486,5.1a7.141,7.141,0,0,0,.994-.367" transform="translate(66.653 50.155)" fill="#202020"/>
  <path id="Fill_14" data-name="Fill 14" d="M1.466,3.035c-.025.029-.034.039-.1.046A1.594,1.594,0,0,1,.5,3c-.3-.135-.576-.416-.488-1.158a.683.683,0,0,1,.063-.192A5.555,5.555,0,0,1,3.555.026,7.024,7.024,0,0,1,5.856.2a8.8,8.8,0,0,1,2.1.787,10.3,10.3,0,0,1,.962.565,10.2,10.2,0,0,1,.887.684,9.469,9.469,0,0,1,.813.786c.228.276.475.539.686.829a20.164,20.164,0,0,1,3.484,7.665c1.307,5.426,1.2,10.922,1.593,16.222.046.66.112,1.32.184,1.994l.208,2.008.416,4.016.831,8.032,1.061,10.262s.109,2.994.029,5.113c-.046,3.585-.621,2.222-1.079.053-.019.234-.909-5.207-.909-5.207L16,43.18l-.819-7.908-.41-3.954c-.133-1.315-.288-2.634-.373-3.981-.178-2.672-.25-5.314-.444-7.928a44.857,44.857,0,0,0-1.122-7.678A22.492,22.492,0,0,0,11.6,8.143,15.49,15.49,0,0,0,9.691,4.96C9.5,4.724,9.3,4.48,9.1,4.263l-.3-.307c-.1-.1-.219-.19-.327-.287a7.291,7.291,0,0,0-1.459-.963,6.752,6.752,0,0,0-1.623-.6,5.055,5.055,0,0,0-1.649-.126A3.591,3.591,0,0,0,1.466,3.035" transform="translate(56.094 77.212)" fill="#202020"/>
  <path id="Fill_16" data-name="Fill 16" d="M12.5,109.825a.166.166,0,0,1,0,.137c-.118.5-.576,1.337-1.7.643a.528.528,0,0,1-.124-.12c-.351-1.035-.719-2.064-1.057-3.1A198.7,198.7,0,0,1,2.417,79,154.517,154.517,0,0,1,.022,49.76,111.611,111.611,0,0,1,4.22,20.7,88.57,88.57,0,0,1,9.453,6.954l1.173-2.335.258-.435c.16-.273.416-.638.7-1.064s.611-.9.944-1.376c.171-.242.327-.466.512-.715a2.531,2.531,0,0,1,.769-.664A2.391,2.391,0,0,1,15.043,0a1.049,1.049,0,0,1,.505.128.89.89,0,0,1,.177.154.96.96,0,0,1,.092.173.453.453,0,0,1-.05.393.088.088,0,0,1-.144.007.53.53,0,0,1-.08-.072L15.506.737c-.017-.012-.035-.02-.05-.03-.071-.042-.1-.014-.183.008a2.172,2.172,0,0,0-.875.565,3.716,3.716,0,0,0-.289.414L13.347,3.31l-.792,1.671-.334.78-.418.832-.209.416-.369.735c-.267.525-.491,1.071-.739,1.605a88.938,88.938,0,0,0-4.8,13.311A110.874,110.874,0,0,0,1.942,50.769,153.61,153.61,0,0,0,4.406,79.133a196.885,196.885,0,0,0,7.05,27.618c.335,1.03.7,2.049,1.048,3.074" transform="translate(9.239 73.253)" fill="#202020"/>
  <path id="Fill_18" data-name="Fill 18" d="M71.933,35.111c-.028-11.433-5.366-23-14.816-29.544-13.878-9.608-32.75-6.3-43.2,6.243A60.5,60.5,0,0,0,0,50.7C.1,61.37,3.23,80.639,14.118,86.226c9.8,5.031,25.5-3.4,33.493-8.508-5.227-5.739-7.619-9.017-9.3-16.562-.9-4.068.652-13.33-1.173-16.5-1.175-2.042-4.063-2.3-4.8-5.683-.688-3.146,1.381-6.34,4.021-6.634,3.154-.352,12.612,5.168,22.976,2.842a27.974,27.974,0,0,0,0-15.635c4.457,5.088,4.687,11.441,4.191,15.635" transform="translate(13.199 0)" fill="#231f20"/>
  <path id="Fill_20" data-name="Fill 20" d="M3.727.094a.11.11,0,0,1,.066.047.549.549,0,0,1,.161.45c-.027.167-.175.3-.415.438a.186.186,0,0,1-.063.02A1.555,1.555,0,0,0,3.189,1a1.82,1.82,0,0,0-.3.008,1.864,1.864,0,0,0-.595.179,2.027,2.027,0,0,0-.435.285,2.173,2.173,0,0,0-.354.394,3.083,3.083,0,0,0-.463,1.032A4.4,4.4,0,0,0,.916,3.7a5.474,5.474,0,0,0-.053.814A13.751,13.751,0,0,0,.985,6.137c.131.884.121,1.176.006,1.114a2.8,2.8,0,0,1-.51-1A7.409,7.409,0,0,1,.129,4.966a6.839,6.839,0,0,1-.122-1c-.013-.282,0-.474,0-.474a5.362,5.362,0,0,1,.145-.859A4.106,4.106,0,0,1,.766,1.264,3.159,3.159,0,0,1,1.278.7,2.943,2.943,0,0,1,1.907.281,2.74,2.74,0,0,1,2.788.017,2.578,2.578,0,0,1,3.256.006a2.4,2.4,0,0,1,.47.089" transform="translate(46.855 33.657)" fill="#3f3b3c"/>
  <path id="Fill_22" data-name="Fill 22" d="M36.312.566A.161.161,0,0,1,36.38.448c.344-.384,1.152-.885,1.84.249a.508.508,0,0,1,.056.162l-.482,3.179q-.5,3.365-.937,6.738l-.217,1.686-.115.927-.1.823-.026.211a.892.892,0,0,1-.193.08l-.406.145-.711.24-.424.135-.848.257q-.849.25-1.7.474a61.175,61.175,0,0,1-14.161,2.056,70.617,70.617,0,0,1-7.152-.272c-.594-.059-1.188-.114-1.781-.185l-.845-.1c-.436-.049-.871-.125-1.307-.186,0,0-.188-.038-.5-.114l-1.256-.325a22.805,22.805,0,0,1-3.244-1.161c-.423-.182-.759-.37-1.029-.515a4.459,4.459,0,0,1-.593-.417c-.269-.225-.3-.352-.173-.4a1.89,1.89,0,0,1,.791.055c.185.044.411.07.645.119s.484.108.756.15a3.935,3.935,0,0,1,.706.127c.231.05.516.09.817.145s.628.107.96.15c1.318.2,2.683.308,2.683.308.409.062.818.122,1.23.169l.317.039c.279.035.559.071.84.1.562.057,1.122.118,1.686.158a64.385,64.385,0,0,0,6.763.212A59.383,59.383,0,0,0,31.6,13.881q.827-.218,1.646-.459l.815-.247.514-.165.316-2.481q.443-3.388.939-6.768Z" transform="translate(77.872 153.104)" fill="#202020"/>
  <path id="Fill_24" data-name="Fill 24" d="M.24,7.021a.178.178,0,0,1-.09-.112,1.168,1.168,0,0,1-.081-.9c.12-.3.45-.542,1.08-.62a.582.582,0,0,1,.164.01c.211.133.424.262.646.381.108.063.22.122.333.177s.224.115.339.169c.231.105.46.213.7.307s.477.185.716.277a32.66,32.66,0,0,0,5.587,1.3c1.925.332,3.863.582,5.807.786a93.387,93.387,0,0,0,11.709.466C29.1,9.214,31.052,9.1,33,8.94c1.946-.18,3.888-.4,5.819-.7.484-.069.964-.156,1.446-.234l.723-.119c.234-.039.443-.083.661-.135a7.774,7.774,0,0,0,1.242-.412q.3-.128.579-.283c.211-.115.448-.245.67-.36.447-.234.911-.453,1.279-.659a2.5,2.5,0,0,0,.215-.135.291.291,0,0,0,.041-.031c-.009-.01.02.017.048.041a.548.548,0,0,1,.065.06.748.748,0,0,0,.088.087.8.8,0,0,0,.1.075c.032.022.089.047.093.056.224.116.144-.01-.1.134a.807.807,0,0,0-.2.129c-.015.021-.1.067-.139.1l-.005,0a.029.029,0,0,1-.007-.011L45.563,6.5A8.5,8.5,0,0,0,43.339,5.14a31.827,31.827,0,0,0-5.457-1.7c-1.889-.43-3.81-.77-5.74-1.04a56.2,56.2,0,0,0-5.8-.427c-1.952-.057-3.911-.05-5.868,0A89.161,89.161,0,0,0,8.815,3l-.969.171-.461.089c-.307.062-.613.125-.916.194,0,0-.725.1-1.687.289a15.169,15.169,0,0,0-3.046.872,3.4,3.4,0,0,0-1.3.95c-.188.249-.282.352-.369.243a1.037,1.037,0,0,1,.069-.887A3.323,3.323,0,0,1,1.2,3.68a2.864,2.864,0,0,1,.655-.448A13.073,13.073,0,0,1,3.6,2.4a27.2,27.2,0,0,1,2.683-.885c.316-.068.633-.134.949-.194l.475-.089.708-.124C8.907,1.028,9.4.954,9.883.884A98.486,98.486,0,0,1,21.622.017C23.581-.016,25.542,0,27.508.08c.983.041,1.967.1,2.954.187s1.988.215,2.953.364c1.945.3,3.88.664,5.8,1.138a28.14,28.14,0,0,1,5.7,1.978c.231.122.461.256.691.384s.453.3.679.447.439.358.655.538a.989.989,0,0,1,.087.079l.113.125a1.631,1.631,0,0,1,.233.345,1.171,1.171,0,0,1,.1.274,1.039,1.039,0,0,1,.04.333,1.291,1.291,0,0,1-.055.352,1.848,1.848,0,0,1-.128.288,1.9,1.9,0,0,1-.516.54,4.14,4.14,0,0,1-.4.256c-.245.139-.467.249-.687.361-.436.219-.847.427-1.25.652a9.692,9.692,0,0,1-3.046,1.055c-.971.156-1.934.334-2.908.463a94.8,94.8,0,0,1-11.73.963c-1.962.037-3.926.009-5.888-.067-1.961-.1-3.92-.225-5.872-.436s-3.9-.462-5.832-.8A34.049,34.049,0,0,1,3.372,8.525c-.269-.1-.539-.2-.805-.311s-.531-.229-.795-.349c-.132-.061-.26-.129-.391-.194s-.26-.132-.386-.2C.739,7.329.488,7.177.24,7.021" transform="translate(73.912 117.468)" fill="#202020"/>
  <path id="Fill_26" data-name="Fill 26" d="M6.594,41.536a.31.31,0,0,1-.019.257,2.783,2.783,0,0,1-.991,1.484c-.544.366-1.331.474-2.475-.317a1.114,1.114,0,0,1-.251-.267l-.234-.827c-.074-.276-.162-.553-.225-.827-.133-.55-.277-1.1-.4-1.65l-.355-1.649L1.328,36.09c-.153-.906-.319-1.811-.444-2.72l-.2-1.364L.52,30.638C.4,29.727.333,28.807.238,27.892.18,26.97.09,26.054.064,25.125.048,24.661.021,24.2.013,23.734L0,22.332c-.012-.464.023-.942.032-1.412l.024-.708c.014-.238.038-.479.056-.718A23.606,23.606,0,0,1,.5,16.577l.18-.756c.061-.251.12-.51.2-.728.15-.454.28-.915.452-1.36.112-.3.221-.609.335-.912l.369-.9c.118-.3.261-.592.393-.887s.266-.59.417-.876c0,0,.2-.346.549-.915l.651-.99c.263-.366.552-.776.875-1.2A28.9,28.9,0,0,1,7.2,4.434,23.941,23.941,0,0,1,9.83,2.12c.356-.292.7-.538,1.011-.753s.6-.409.864-.561.5-.289.711-.4.4-.185.568-.248c.652-.251.907-.188.872.078-.065.54-1.286,1.858-2.6,3.535A11.276,11.276,0,0,1,10.4,4.887,31.881,31.881,0,0,0,8.424,7.756a30.862,30.862,0,0,0-1.672,3.122c-.21.436-.355.815-.471,1.073s-.169.412-.169.412l-.305.666c-.106.22-.192.449-.287.674s-.189.45-.276.679l-.251.688c-.152.391-.263.8-.4,1.193a4.953,4.953,0,0,0-.152.571l-.132.553A19.781,19.781,0,0,0,4,19.805c-.016.209-.038.415-.05.625l-.02.639c-.008.427-.041.847-.029,1.281l.01,1.294c.008.432.034.867.05,1.3.023.867.11,1.741.164,2.611.092.871.154,1.744.271,2.615l.159,1.306.188,1.3c.121.869.279,1.732.425,2.6l.3,1.569L5.8,38.5c.116.516.25,1.023.373,1.535.059.258.138.5.206.754Z" transform="translate(99.65 81.832)" fill="#202020"/>
  <path id="Fill_28" data-name="Fill 28" d="M11.616,15.73c.039-.008.052-.011.113.024a1.647,1.647,0,0,1,.679.55c.171.276.244.688-.237,1.253a.657.657,0,0,1-.159.118c-.156.036-.314.054-.471.08s-.315.032-.473.047l-.471.016L10.13,17.8c-.154-.014-.31-.023-.462-.042s-.306-.038-.456-.067c-.3-.053-.6-.119-.89-.2a11.1,11.1,0,0,1-2.188-.867,12.672,12.672,0,0,1-1.959-1.257,12.134,12.134,0,0,1-1.7-1.611,10.807,10.807,0,0,1-1.351-1.948A9.543,9.543,0,0,1,.251,9.569,8.992,8.992,0,0,1,0,7.158a8.836,8.836,0,0,1,.408-2.4,7.894,7.894,0,0,1,1.1-2.2c.1-.146.217-.278.325-.417s.237-.263.356-.394a4.564,4.564,0,0,1,.39-.368A3.942,3.942,0,0,1,3,1.045L3.129.96A3.619,3.619,0,0,1,3.5.748,6.6,6.6,0,0,1,4.852.217,6.786,6.786,0,0,1,6.7,0,5.42,5.42,0,0,1,8.524.35a3.571,3.571,0,0,1,1.631,1.044c.226.283.224.414.093.433-.269.049-1.039-.348-2.03-.422.048.024-.218-.019-.646-.023a5.674,5.674,0,0,0-1.581.243,5.33,5.33,0,0,0-1.444.694l-.24.171-.171.148-.149.127-.24.213a2.983,2.983,0,0,0-.229.232A2.334,2.334,0,0,0,3.3,3.46c-.066.088-.142.168-.2.261a5.914,5.914,0,0,0-.816,1.648A6.842,6.842,0,0,0,1.969,7.22,7.021,7.021,0,0,0,2.161,9.1a7.591,7.591,0,0,0,.692,1.771,8.86,8.86,0,0,0,1.1,1.589A10.174,10.174,0,0,0,5.38,13.8a10.69,10.69,0,0,0,1.659,1.063,9.129,9.129,0,0,0,1.8.714c.234.065.47.116.7.158.118.023.235.034.353.051s.234.02.352.032l.349.011.346-.011c.113-.012.228-.018.34-.034s.225-.031.334-.057" transform="translate(79.192 84.471)" fill="#202020"/>
  <path id="Fill_30" data-name="Fill 30" d="M9.83,18.254a.272.272,0,0,0-.022-.112A.488.488,0,0,0,9.728,18a.7.7,0,0,0,.166.125.565.565,0,0,0,.191.077c.048.019.086-.019.061.005a.45.45,0,0,0,.018.261l.034.139h0V18.6l0-.007-.005-.014-.01-.029-.02-.058-.038-.119c-.024-.081-.045-.164-.063-.25s-.034-.175-.046-.267a.506.506,0,0,1,.1-.3.513.513,0,0,1,.278-.107.335.335,0,0,1,.14.017.863.863,0,0,1,.176.071.807.807,0,0,1,.307.283.994.994,0,0,1,.106.215,1.143,1.143,0,0,1,.05.146,2.546,2.546,0,0,1,.044.285,1.146,1.146,0,0,1,.009.215,1.4,1.4,0,0,1,0,.165,2.181,2.181,0,0,1-.095.613,1.416,1.416,0,0,1-.446.664,1.08,1.08,0,0,1-.115.084,2.1,2.1,0,0,1-.238.121,1.629,1.629,0,0,1-.329.1,1.4,1.4,0,0,1-.335.027,2.709,2.709,0,0,1-.535-.1c-.165-.043-.4-.1-.692-.181a11.892,11.892,0,0,1-2.238-.958,12.327,12.327,0,0,1-4.915-5.052A11.3,11.3,0,0,1,.1,10.536,11.089,11.089,0,0,1,.149,7.208,12.429,12.429,0,0,1,.427,5.92c.114-.373.219-.7.313-.961l.245-.6c.056-.139.091-.211.091-.211l.312-.466a5.184,5.184,0,0,1,.371-.5c.153-.181.3-.393.5-.591A9.574,9.574,0,0,1,3.607,1.384,7.645,7.645,0,0,1,5.176.476,6.088,6.088,0,0,1,5.771.223c.188-.061.358-.109.512-.147A2.38,2.38,0,0,1,7.035,0c.382.026.539.176.548.385a1.433,1.433,0,0,1-.332.783c-.2.316-.473.656-.747,1.035.05-.014-.113.179-.345.5a10.088,10.088,0,0,0-.791,1.243c-.122.241-.239.483-.339.713s-.187.446-.24.641-.108.347-.144.458L4.6,5.941l-.058.143a4.182,4.182,0,0,0-.155.406c-.051.18-.142.391-.192.646l-.1.4q-.034.214-.072.449a7.312,7.312,0,0,0,.018,2.13,7.463,7.463,0,0,0,.8,2.332A8.351,8.351,0,0,0,8.155,15.8a7.879,7.879,0,0,0,1.447.618l.438.112.123.033.02.005.009,0h0c.079-.37-.692,3.223-.365,1.7h0v0c0-.005,0-.009,0-.011" transform="translate(90.411 89.091)" fill="#202020"/>
  <path id="Fill_32" data-name="Fill 32" d="M.005,6.608a.2.2,0,0,1,.024-.151,1.152,1.152,0,0,1,.66-.667,1.3,1.3,0,0,1,1.171.422.533.533,0,0,1,.1.118l.056.336L2.1,7a2.677,2.677,0,0,0,.106.327,3.169,3.169,0,0,0,.124.323l.143.318.168.308a2.877,2.877,0,0,0,.184.3c.067.1.122.2.2.292a7.223,7.223,0,0,0,1.518,1.52,7.36,7.36,0,0,0,1.9,1.021,8.717,8.717,0,0,0,2.158.457,10.8,10.8,0,0,0,2.25-.049,12.783,12.783,0,0,0,2.234-.487,15.247,15.247,0,0,0,2.142-.851A11.519,11.519,0,0,0,18.844,7.8a7.519,7.519,0,0,0,.51-.638c.08-.11.159-.219.229-.335s.148-.226.21-.343l.066-.1c.045-.061.1-.155.174-.274A7.867,7.867,0,0,0,21,3.69a7.913,7.913,0,0,0,.177-1.54A13.151,13.151,0,0,0,21.012.431c-.043-.336,0-.464.131-.424a3.324,3.324,0,0,1,1.129,2.07,2.809,2.809,0,0,1,.134.785,7.908,7.908,0,0,1-.076,1.995,8.957,8.957,0,0,1-.564,1.982c-.108.264-.213.48-.291.629s-.122.234-.122.234q-.277.443-.594.857a10.479,10.479,0,0,1-.783.906,12.652,12.652,0,0,1-2.294,1.872,15.864,15.864,0,0,1-2.591,1.346,16.038,16.038,0,0,1-2.79.87,13.823,13.823,0,0,1-2.942.307,11.49,11.49,0,0,1-2.976-.416,9.552,9.552,0,0,1-2.763-1.3,9.313,9.313,0,0,1-2.193-2.128c-.1-.119-.173-.254-.259-.38a4.416,4.416,0,0,1-.241-.394L.706,8.834.514,8.41C.446,8.271.4,8.12.346,7.975A4.239,4.239,0,0,1,.2,7.529L.084,7.074Z" transform="translate(107.569 85.791)" fill="#fff"/>
  <path id="Fill_34" data-name="Fill 34" d="M2.422,22.4a.171.171,0,0,1,.043-.134c.266-.472.975-1.073,1.859-.1a.512.512,0,0,1,.087.144,17.812,17.812,0,0,0,.377,3.059,10.483,10.483,0,0,0,1.621,3.837,7.33,7.33,0,0,0,3.066,2.578,8.569,8.569,0,0,0,4.069.53,12.405,12.405,0,0,0,4.146-1,11.952,11.952,0,0,0,3.481-2.411,14.237,14.237,0,0,0,1.415-1.62,10.681,10.681,0,0,0,1.091-1.792,16.727,16.727,0,0,0,1.332-8.43,18.437,18.437,0,0,0-2.58-8.213A14.86,14.86,0,0,0,16.09,3.173a12.079,12.079,0,0,0-8.339-.81L7.3,2.491a.97.97,0,0,0-.106.035l-.21.075-.421.149c-.273.118-.55.229-.817.358l-.431.18c-.138.052-.3.13-.474.218s-.384.176-.587.3a12.434,12.434,0,0,0-1.322.831c-.219.163-.45.32-.652.5s-.419.34-.6.518C1.059,6.249.693,6.692.441,6.927S.055,7.2.012,7.072a1.767,1.767,0,0,1,.148-.8,6.89,6.89,0,0,1,.711-1.35,2.776,2.776,0,0,1,.455-.629,7.89,7.89,0,0,1,.6-.672c.224-.251.5-.481.767-.728s.567-.458.841-.668c.285-.191.549-.382.787-.526L4.9,1.355a2.07,2.07,0,0,1,.227-.12c.316-.132.624-.284.95-.39L6.565.673c.041-.014.081-.03.122-.04L7.169.494c.391-.123.8-.19,1.2-.281A13.607,13.607,0,0,1,13.256.23a15.526,15.526,0,0,1,4.567,1.617,16.862,16.862,0,0,1,3.845,2.876,17.243,17.243,0,0,1,2.87,3.812,20.831,20.831,0,0,1,2.5,9.018,21.566,21.566,0,0,1-.273,4.69,15.327,15.327,0,0,1-1.514,4.537,12.659,12.659,0,0,1-1.341,2.028,16.412,16.412,0,0,1-1.629,1.769A13.547,13.547,0,0,1,18.2,33.232a13.331,13.331,0,0,1-2.348.731l-.6.115c-.2.031-.393.062-.592.088-.4.053-.8.1-1.2.121a10.268,10.268,0,0,1-4.935-.772,9.432,9.432,0,0,1-3.794-3.258A12.489,12.489,0,0,1,2.844,25.79,19.7,19.7,0,0,1,2.422,22.4" transform="translate(124.727 53.455)" fill="#202020"/>
  <path id="Fill_36" data-name="Fill 36" d="M.025,1.414a.238.238,0,0,1-.018-.169A1.125,1.125,0,0,1,.459.371,1.381,1.381,0,0,1,1.72.459a.41.41,0,0,1,.123.082c.048.1.1.2.152.3s.113.194.18.286.128.188.2.275a3.447,3.447,0,0,0,.227.263c.077.087.161.17.248.25s.176.158.267.236.19.147.284.222.2.138.3.208A7.734,7.734,0,0,0,5.117,3.3c.25.093.511.166.765.251s.525.12.787.184.535.074.8.114.541.027.811.045.543-.017.814-.023.541-.062.812-.089a3.693,3.693,0,0,0,.418-.075l.416-.085a3.921,3.921,0,0,0,.41-.109l.408-.118.122-.026.331-.1c.141-.042.314-.085.506-.146l.625-.228a12.5,12.5,0,0,0,1.432-.674c.254-.121.479-.285.717-.428s.453-.306.667-.456C16.66.8,17.087.4,17.366.181s.422-.232.449-.1A1.9,1.9,0,0,1,17.562.9a4.976,4.976,0,0,1-.37.623c-.074.111-.15.229-.235.346l-.283.34c.026-.018-.015.036-.107.144a4.376,4.376,0,0,1-.431.45,10.916,10.916,0,0,1-1.563,1.262l-.466.305c-.156.1-.319.178-.472.265l-.448.243-.418.187a7.306,7.306,0,0,1-.882.356l-.416.121c-.137.044-.281.067-.421.1l-.424.088A3.958,3.958,0,0,1,10.2,5.8c-.323.035-.643.093-.968.107s-.65.04-.975.028-.652-.016-.977-.053-.65-.072-.971-.137-.644-.13-.959-.224-.629-.193-.94-.308a9.636,9.636,0,0,1-1.787-.908c-.13-.09-.262-.175-.389-.27s-.256-.188-.377-.295-.246-.205-.362-.32-.235-.224-.345-.347S.932,2.83.827,2.7s-.2-.266-.3-.4S.348,2.013.259,1.87s-.16-.3-.234-.456" transform="translate(118.128 108.229)" fill="#202020"/>
  <path id="Fill_38" data-name="Fill 38" d="M7.787,28.4c.038,0,.051.014.1.059a1.619,1.619,0,0,1,.491.712c.087.316.053.713-.589,1.123a.463.463,0,0,1-.192.064L7.1,30.288a4.1,4.1,0,0,1-.481-.113,3.45,3.45,0,0,1-.469-.146l-.454-.18c-.147-.067-.286-.146-.43-.219a3.275,3.275,0,0,1-.412-.242l-.4-.263L4.1,28.835A9.813,9.813,0,0,1,1.928,26.26,11.711,11.711,0,0,1,.639,23.24a17.487,17.487,0,0,1-.561-6.363,19.307,19.307,0,0,1,1.633-6.15,19.07,19.07,0,0,1,3.555-5.3,16.985,16.985,0,0,1,5.225-3.76,18.442,18.442,0,0,1,6.235-1.6,19.964,19.964,0,0,1,6.4.531l.719.18c.162.05.323.106.484.159l.966.324s.046.019.128.061l.349.177.526.271a6.01,6.01,0,0,1,.646.365,13.881,13.881,0,0,1,1.437.983l.7.563c.221.2.422.407.616.6l.45.445c.132.138.234.281.33.4a5.812,5.812,0,0,1,.411.592c.177.3.163.433.028.434a1.876,1.876,0,0,1-.735-.315c-.167-.1-.352-.218-.548-.351l-.663-.388a4.222,4.222,0,0,1-.6-.363l-.717-.385-.407-.221c-.141-.073-.293-.132-.441-.2l-.873-.386-.791-.277c-.232-.08-.422-.154-.56-.194l-.219-.057L23.5,2.724A3.535,3.535,0,0,0,23.07,2.6l-1.091-.273a17.9,17.9,0,0,0-5.672-.26A16.169,16.169,0,0,0,10.9,3.659a15.328,15.328,0,0,0-4.453,3.4A17.378,17.378,0,0,0,2.032,17.246,15.464,15.464,0,0,0,2.571,22.8a9.978,9.978,0,0,0,1.087,2.5,7.794,7.794,0,0,0,1.706,2.026l.275.219.289.19a1.877,1.877,0,0,0,.295.173c.1.051.2.108.3.155l.31.121a1.879,1.879,0,0,0,.315.1,2.339,2.339,0,0,0,.318.076Z" transform="translate(77.212 57.414)" fill="#202020"/>
  <path id="Fill_40" data-name="Fill 40" d="M.018,8.522a.194.194,0,0,1-.008-.149,1.123,1.123,0,0,1,.44-.792,1.267,1.267,0,0,1,1.24.087.442.442,0,0,1,.121.093,1.992,1.992,0,0,0,.149.316l.164.311a1.84,1.84,0,0,0,.181.3l.2.293a2,2,0,0,0,.21.284l.227.273a2.332,2.332,0,0,0,.237.266l.254.252a8.212,8.212,0,0,0,1.746,1.29,10.474,10.474,0,0,0,.984.49A10.793,10.793,0,0,0,7.2,12.2a9.5,9.5,0,0,0,2.171.38,9.4,9.4,0,0,0,2.185-.131,11.525,11.525,0,0,0,2.126-.641,12.416,12.416,0,0,0,1.968-1.064,13.035,13.035,0,0,0,1.757-1.411,13.836,13.836,0,0,0,1.513-1.685c.085-.112.172-.221.256-.334l.238-.347c.078-.117.162-.229.236-.349l.219-.359.072-.1c.046-.065.118-.158.194-.281.159-.244.39-.584.623-1a12.414,12.414,0,0,0,1.269-2.82,12.925,12.925,0,0,0,.3-1.674c.041-.328.117-.44.229-.37a1.437,1.437,0,0,1,.377.728,4.951,4.951,0,0,1,.159,1.526,3.024,3.024,0,0,1-.068.769,11.3,11.3,0,0,1-.474,1.85,17.279,17.279,0,0,1-.739,1.788c-.109.244-.219.438-.292.576l-.117.217c-.165.284-.362.547-.544.819-.09.137-.19.267-.291.4l-.395.511a17.038,17.038,0,0,1-2,2.052,14.209,14.209,0,0,1-2.37,1.659c-.419.245-.865.445-1.308.649a14.139,14.139,0,0,1-1.385.488l-.353.105-.36.081c-.242.047-.475.119-.726.144l-.741.1-.744.037a12.089,12.089,0,0,1-2.943-.308,12.515,12.515,0,0,1-2.762-1.038A10.742,10.742,0,0,1,2.07,11.437l-.316-.314a3.519,3.519,0,0,1-.3-.333l-.286-.344a2.992,2.992,0,0,1-.267-.36L.652,9.713a2.858,2.858,0,0,1-.231-.385l-.211-.4a3.057,3.057,0,0,1-.192-.407" transform="translate(91.731 65.333)" fill="#fff"/>
  <path id="Fill_42" data-name="Fill 42" d="M16.612.83A.16.16,0,0,1,16.644.7C16.866.237,17.5-.47,18.471.444a.517.517,0,0,1,.1.143c.135,1.075.268,2.158.369,3.252a33.017,33.017,0,0,1,.046,6.744,18.1,18.1,0,0,1-1.965,6.606,14.641,14.641,0,0,1-.932,1.5,13.876,13.876,0,0,1-1.129,1.368,15.143,15.143,0,0,1-2.7,2.254A19.568,19.568,0,0,1,9.2,23.95l-.535.221-.469.18c-.316.117-.624.228-.951.331,0,0-.192.054-.52.121a13,13,0,0,1-1.332.214,9.649,9.649,0,0,1-1.788.032,6.64,6.64,0,0,1-1.794-.378A3.655,3.655,0,0,1,.18,23.641c-.224-.281-.221-.41-.09-.428.27-.041,1.033.344,2.03.423-.048-.022.22.017.657.025A7.93,7.93,0,0,0,4.435,23.5a12.116,12.116,0,0,0,1.679-.461c.228-.079.416-.151.547-.2l.207-.083c.285-.1.569-.2.849-.309.141-.052.28-.11.419-.167l.266-.11.353-.157a16.922,16.922,0,0,0,2.671-1.5,12.97,12.97,0,0,0,2.264-1.976,11.739,11.739,0,0,0,1.69-2.451,14.507,14.507,0,0,0,1.092-2.815,18.41,18.41,0,0,0,.565-3.008,31.47,31.47,0,0,0-.063-6.244c-.1-1.058-.229-2.121-.363-3.19" transform="translate(124.727 85.131)" fill="#202020"/>
  <path id="Fill_44" data-name="Fill 44" d="M1.6,9.329a.151.151,0,0,1-.112.067,1.393,1.393,0,0,1-.9.022C.282,9.3.015,9.007,0,8.334a.544.544,0,0,1,.033-.174l.258-.337c.088-.111.167-.229.263-.333l.562-.636L1.4,6.536c.092-.108.2-.2.3-.3L2.3,5.64A22.058,22.058,0,0,1,5.892,2.927,22.561,22.561,0,0,1,9.985,1.038,20.2,20.2,0,0,1,14.41.093a17.21,17.21,0,0,1,4.546.131A16.913,16.913,0,0,1,23.32,1.517,19.8,19.8,0,0,1,27.2,3.843a20.545,20.545,0,0,1,3.215,3.151l.391.5c.1.133.212.258.3.4l.562.825.07.119a3.35,3.35,0,0,1,.18.337c.142.294.349.7.562,1.178l.3.771a7.521,7.521,0,0,1,.284.83l.24.849c.078.277.115.561.166.824a6.824,6.824,0,0,1,.177,1.825c-.021.343-.1.445-.216.374A1.82,1.82,0,0,1,33,15.159c-.083-.173-.169-.373-.259-.59s-.214-.445-.323-.687a5,5,0,0,1-.294-.633c-.218-.411-.462-1-.8-1.543-.166-.274-.308-.562-.483-.81l-.462-.685a5.269,5.269,0,0,0-.345-.474L29.9,9.563c-.17-.242-.325-.495-.508-.728l-.275-.348-.2-.258c-.106-.129-.2-.268-.317-.387a18.375,18.375,0,0,0-2.928-2.716A16.049,16.049,0,0,0,22.2,3.154a16.5,16.5,0,0,0-1.877-.662l-.968-.231c-.322-.077-.654-.107-.981-.164A16.148,16.148,0,0,0,14.4,2.039a19.445,19.445,0,0,0-3.911.877A20.7,20.7,0,0,0,6.848,4.625a19.78,19.78,0,0,0-3.2,2.423L3.1,7.587c-.09.091-.188.175-.271.273l-.254.288-.509.575c-.088.093-.158.2-.237.3Z" transform="translate(102.949 36.956)" fill="#202020"/>
  <path id="Fill_46" data-name="Fill 46" d="M3.174,12.393c.026.027.036.036.038.105a1.747,1.747,0,0,1-.088.856c-.131.293-.42.587-1.161.483a.651.651,0,0,1-.186-.073,4.52,4.52,0,0,1-.325-.365,4.456,4.456,0,0,1-.292-.388A4.676,4.676,0,0,1,.9,12.6a4.761,4.761,0,0,1-.224-.424c-.075-.142-.131-.29-.191-.437s-.11-.3-.159-.448-.089-.3-.127-.456-.068-.307-.095-.462a7.2,7.2,0,0,1,.447-4,9.24,9.24,0,0,1,2.257-3.2,11.149,11.149,0,0,1,1.518-1.19c.268-.176.545-.338.827-.486a9.445,9.445,0,0,1,.859-.423A12.317,12.317,0,0,1,9.68.083,13.258,13.258,0,0,1,13.464.2a12.176,12.176,0,0,1,6.643,3.525l.411.449c.119.124.223.261.332.395l.322.4.3.422.074.122c.051.077.115.2.192.345l.274.531.3.688c.1.251.189.524.287.8.082.285.164.577.237.872a10.464,10.464,0,0,1,.242,1.751c.012.233.023.443.025.635s-.017.366-.028.52a3.447,3.447,0,0,1-.118.711c-.092.338-.194.421-.288.328a1.8,1.8,0,0,1-.283-.726c-.056-.183-.116-.391-.172-.617s-.141-.466-.208-.718a6.153,6.153,0,0,1-.223-.651c-.065-.217-.178-.466-.278-.739-.116-.268-.245-.553-.386-.834s-.291-.557-.454-.8l-.225-.361-.221-.311a5.3,5.3,0,0,0-.343-.456l-.136-.169c-.158-.242-.354-.453-.529-.681-.09-.112-.192-.213-.288-.321L18.726,5.1c-.09-.1-.19-.184-.284-.277a10.243,10.243,0,0,0-2.572-1.811,10.693,10.693,0,0,0-3.015-.929A11.166,11.166,0,0,0,9.685,2.05a10.765,10.765,0,0,0-3.031.881A9.388,9.388,0,0,0,4.063,4.676,7.172,7.172,0,0,0,2.339,7.165a5.345,5.345,0,0,0-.358,1.418,5.282,5.282,0,0,0,.048,1.457,3.144,3.144,0,0,0,.068.334,3.274,3.274,0,0,0,.091.326,3.121,3.121,0,0,0,.113.318,3.064,3.064,0,0,0,.134.306,2.919,2.919,0,0,0,.155.293,2.7,2.7,0,0,0,.175.277,2.751,2.751,0,0,0,.195.259,2.652,2.652,0,0,0,.214.24" transform="translate(92.391 45.535)" fill="#fff"/>
  <path id="Fill_48" data-name="Fill 48" d="M22.438,11.219A11.219,11.219,0,1,1,11.219,0,11.219,11.219,0,0,1,22.438,11.219" transform="translate(126.707 67.313)" fill="#ffd087"/>
  <path id="Fill_50" data-name="Fill 50" d="M13.859,6.6a6.771,6.771,0,0,1-6.929,6.6A6.771,6.771,0,0,1,0,6.6,6.77,6.77,0,0,1,6.929,0a6.77,6.77,0,0,1,6.929,6.6" transform="translate(93.051 48.835)" fill="#ffd087"/>
  <path id="Fill_52" data-name="Fill 52" d="M13.859,6.6a6.77,6.77,0,0,1-6.929,6.6A6.77,6.77,0,0,1,0,6.6,6.77,6.77,0,0,1,6.929,0a6.77,6.77,0,0,1,6.929,6.6" transform="translate(128.687 100.97)" fill="#ffd087"/>
  <path id="Fill_54" data-name="Fill 54" d="M68.914,42.376a.165.165,0,0,1-.071-.117c-.169-.487-.224-1.441,1.124-1.47a.556.556,0,0,1,.172.033l.7.548c.419.332,1.007.8,1.7,1.39l.13.111.107.093c.257.223.512.449.766.683a23.188,23.188,0,0,1,2.884,3.131,14.193,14.193,0,0,1,2.125,3.966,11.425,11.425,0,0,1,.614,4.666,8.71,8.71,0,0,1-.549,2.41A9.633,9.633,0,0,1,77.411,60a15.5,15.5,0,0,1-3.486,3.377,37.37,37.37,0,0,1-8.592,4.38C62.3,68.908,59.158,69.839,56,70.733c-1.571.442-3.171.917-4.8,1.323s-3.261.795-4.917,1.126a101.127,101.127,0,0,1-20.321,2.049,47.393,47.393,0,0,1-5.186-.208,16.417,16.417,0,0,1-5.2-1.359,18.681,18.681,0,0,1-4.411-2.975,20.653,20.653,0,0,1-3.378-4.014,31.732,31.732,0,0,1-3.905-9.359,73.567,73.567,0,0,1-1.715-9.595c-.381-3.161-.642-6.259-.926-9.283S.709,32.447.482,29.557C.37,28.112.265,26.686.175,25.277S0,22.489,0,21.067c0-.182,0-.349.011-.552s.021-.4.04-.552q.048-.5.1-1,.1-1,.2-1.99a23.975,23.975,0,0,1,.7-3.957A15.391,15.391,0,0,1,2.59,9.394,21.311,21.311,0,0,1,4.74,6.367,22.16,22.16,0,0,1,7.247,3.895c.222-.179.437-.365.66-.535l.673-.5c.156-.116.115-.082.134-.1l.029-.02L8.8,2.7l.8-.529.713-.429s.174-.094.478-.226.723-.328,1.224-.508c.247-.1.513-.192.793-.276s.561-.186.857-.252.585-.147.874-.207L15.38.133c.457-.073.838-.1,1.144-.13a5.7,5.7,0,0,1,.724.017c.35.036.452.122.376.232a7.654,7.654,0,0,1-2.009.95,3.854,3.854,0,0,1-.656.28c-.434.187-1.03.444-1.61.746s-1.152.625-1.568.893c-.21.13-.386.237-.5.323l-.187.129-.167.1c-.107.068-.273.156-.468.292l-.327.219-.186.124-.1.066-.154.112L9.409,4.7c-.19.141-.385.28-.568.437A18.82,18.82,0,0,0,6.67,7.17,17.969,17.969,0,0,0,4.746,9.657a14.386,14.386,0,0,0-1.48,2.905,16.006,16.006,0,0,0-.8,3.343c-.17,1.189-.274,2.444-.4,3.739a12.706,12.706,0,0,0-.089,1.846c.012.639.038,1.295.072,1.958.138,2.655.355,5.417.588,8.253s.5,5.75.775,8.733S3.971,46.45,4.4,49.5A58.909,58.909,0,0,0,6.31,58.626a26.222,26.222,0,0,0,4.12,8.367,17.2,17.2,0,0,0,3.321,3.264l.471.347.492.318c.322.221.667.407,1.01.6a10.782,10.782,0,0,0,2.106.908,19.1,19.1,0,0,0,4.678.76c1.618.09,3.29.079,4.941.065A100.041,100.041,0,0,0,47.068,71c1.6-.344,3.176-.73,4.741-1.145s3.129-.878,4.68-1.319c3.1-.885,6.127-1.821,9.005-2.962a31.813,31.813,0,0,0,7.878-4.26,11.919,11.919,0,0,0,2.8-3.029,7.024,7.024,0,0,0,1.038-3.664,10.038,10.038,0,0,0-.749-3.789,12.81,12.81,0,0,0-1.968-3.3,23.058,23.058,0,0,0-2.678-2.77l-.487-.425-.123-.1c-.649-.553-1.213-1-1.619-1.325l-.677-.533" transform="translate(50.155 84.471)" fill="#202020"/>
  <path id="Fill_56" data-name="Fill 56" d="M.251,10.768a.186.186,0,0,1-.09-.116,1.259,1.259,0,0,1-.113-.929C.155,9.4.472,9.138,1.11,9.034a.488.488,0,0,1,.164.01c.21.146.443.256.663.385.113.062.221.13.339.182l.346.168c.116.055.229.115.347.167l.356.15c.236.1.475.2.72.283a25.606,25.606,0,0,0,7.093,1.341c1.223.08,2.456.112,3.7.12s2.481,0,3.722-.037a105.045,105.045,0,0,0,14.808-1.459,43.6,43.6,0,0,0,7.15-1.676c.568-.2,1.115-.431,1.654-.678.264-.133.532-.259.787-.4L43,7.562c.006,0,.018-.012,0-.009H43l-.15-.011a6.767,6.767,0,0,1-2.124-.493A4.513,4.513,0,0,1,39.7,6.443a4.419,4.419,0,0,1-.842-.862,4,4,0,0,1-.84-2.376,2.182,2.182,0,0,1,.017-.345,2.42,2.42,0,0,1,.037-.266l.04-.176a2.114,2.114,0,0,1,.106-.344,2.957,2.957,0,0,1,.323-.641,3.274,3.274,0,0,1,.991-.965L39.69.385a3.594,3.594,0,0,1,.459-.19,4.019,4.019,0,0,1,1.581-.18,3.967,3.967,0,0,1,.964.194,4.116,4.116,0,0,1,.921.437,5.952,5.952,0,0,1,1.4,1.236A6.83,6.83,0,0,1,46.08,3.457c.144.326.126.461-.008.454a8.522,8.522,0,0,1-1.828-1.24c.028.039-.128-.079-.4-.256a4.8,4.8,0,0,0-1.092-.536,2.633,2.633,0,0,0-1.272-.1,2.087,2.087,0,0,0-.865.335,2,2,0,0,0-.187.149,1.187,1.187,0,0,0-.328.4.474.474,0,0,0-.05.116.493.493,0,0,0-.038.121L40,2.966l-.005.018c0,.021,0,.042-.006.064a.662.662,0,0,0-.01.129,1.5,1.5,0,0,0,.1.565,2.51,2.51,0,0,0,.765,1.068,3.1,3.1,0,0,0,.268.2,2.812,2.812,0,0,0,.3.154,3.664,3.664,0,0,0,.7.24,5.654,5.654,0,0,0,.776.129l.2.016c.014,0,.122.01.192.009l.233,0c.307.012.629,0,.951-.009l3.843-.173.465-.02.058,0c0,.006-.018.018-.027.027l-.062.057-.124.114-.572.527L46.911,7.128c-.178.169-.379.338-.572.507l-.292.253a2.932,2.932,0,0,1-.31.253c-.482.334-.916.683-1.46,1l-.59.332-.44.222c-.292.152-.593.274-.889.412-.6.248-1.2.483-1.815.676a52.306,52.306,0,0,1-7.354,1.635,107.878,107.878,0,0,1-14.832,1.409c-1.242.028-2.484.044-3.726.028s-2.492-.044-3.748-.131a27.291,27.291,0,0,1-7.5-1.445c-.272-.093-.539-.2-.805-.316l-.4-.169c-.132-.058-.262-.125-.393-.188l-.391-.191c-.132-.06-.257-.137-.385-.206-.252-.147-.515-.274-.757-.44" transform="translate(73.912 128.687)" fill="#202020"/>
  <path id="Fill_58" data-name="Fill 58" d="M4.033.028A.4.4,0,0,1,4.285.012,1.074,1.074,0,0,1,4.9.288a.611.611,0,0,1,.2.5.993.993,0,0,1-.238.477.785.785,0,0,0-.229.563c0,.021.013.065.01.08a.354.354,0,0,0-.089.052A1.19,1.19,0,0,0,4.4,2.1a2.384,2.384,0,0,0-.326.471c-.048.09-.094.184-.134.279s-.087.226-.132.344c-.095.246-.18.5-.268.744a30.059,30.059,0,0,0-1.162,4.5q-.2,1.144-.317,2.3a14.759,14.759,0,0,0-.088,2.245,4.606,4.606,0,0,0,.464,1.907,2.877,2.877,0,0,0,1.258,1.227,5.853,5.853,0,0,0,3.981.089,11.939,11.939,0,0,0,2.064-.77c.166-.085.329-.163.5-.253l.507-.283c.339-.185.675-.377,1-.583a33.118,33.118,0,0,0,3.79-2.679,32.684,32.684,0,0,0,3.384-3.187l.1-.106c.031-.031.076-.082.08-.087l.077-.088.154-.175.308-.35c.209-.231.4-.472.6-.713l.335-.354c.216-.218.49-.546.826-.911s.685-.8,1.058-1.23c.351-.444.731-.878,1.049-1.291a17.225,17.225,0,0,1,1.146-1.4c.249-.243.377-.276.419-.148a5.244,5.244,0,0,1-.672,2.174,3.214,3.214,0,0,1-.323.673l-.414.757c-.156.279-.34.569-.518.866s-.366.59-.549.861-.347.533-.5.746l-.516.716c-.2.254-.419.492-.632.737l-.32.364-.08.091-.178.191-.416.439a35.786,35.786,0,0,1-3.569,3.264A33.91,33.91,0,0,1,12.4,16.214a24.465,24.465,0,0,1-2.168,1.154,13.642,13.642,0,0,1-2.39.823,9.489,9.489,0,0,1-2.591.28,5.76,5.76,0,0,1-2.693-.734A4.9,4.9,0,0,1,.6,15.589a6.934,6.934,0,0,1-.588-2.674,17.931,17.931,0,0,1,.115-2.5Q.248,9.2.464,8A31.969,31.969,0,0,1,1.688,3.29c.094-.265.185-.531.285-.794.052-.137.09-.249.161-.418s.139-.308.219-.457A4.337,4.337,0,0,1,2.959.757a3.084,3.084,0,0,1,.448-.4A2.257,2.257,0,0,1,4.033.028" transform="translate(19.138 82.492)" fill="#202020"/>
  <path id="Fill_60" data-name="Fill 60" d="M.008.949A.169.169,0,0,1,.023.813C.183.322.709-.456,1.743.345a.527.527,0,0,1,.111.131l.763,3.168q1.761,7.219,3.709,14.388L6.8,19.784s.608,2.936.908,5.037c.594,3.54-.2,2.3-1.027.243.013.117-.437-1.127-.882-2.4l-.888-2.584L4.5,18.567Q2.545,11.375.775,4.129Z" transform="translate(73.253 159.044)" fill="#202020"/>
  <path id="Fill_62" data-name="Fill 62" d="M.006.888A.167.167,0,0,1,.028.753C.213.27.791-.456,1.814.387A.525.525,0,0,1,1.92.52l.31,1.569c.054.261.117.52.174.78l.177.78.2.867L3,5.378c.152.573.287,1.151.453,1.721l.492,1.71c.167.569.356,1.132.533,1.7l.271.847.294.84c.2.558.382,1.123.6,1.677l.634,1.663c.215.553.45,1.1.674,1.647s.46,1.093.705,1.633.474,1.088.736,1.62l.771,1.6c.262.532.541,1.055.81,1.584s.551,1.051.84,1.568.563,1.044.869,1.552l1,1.7s.347.647.8,1.534c.222.447.49.942.755,1.445s.519,1.022.758,1.486c1.7,3.1.545,2.229-.925.559a3.348,3.348,0,0,1-.471-.558l-1.118-1.45-1.1-1.522-.363-.508-.132-.2L9.782,27.346c-.573-1.046-1.167-2.082-1.7-3.149-.56-1.054-1.064-2.136-1.583-3.21-.485-1.09-.992-2.171-1.435-3.279-.469-1.1-.886-2.216-1.311-3.331-.207-.559-.4-1.125-.6-1.688s-.388-1.129-.565-1.7-.371-1.134-.534-1.708l-.495-1.72c-.165-.574-.3-1.155-.455-1.732L.883,4.963l-.2-.873L.5,3.292c-.06-.266-.124-.531-.179-.8Z" transform="translate(26.397 158.384)" fill="#202020"/>
  <path id="Fill_64" data-name="Fill 64" d="M12.028.4a.163.163,0,0,1,.088-.1c.405-.316,1.277-.654,1.718.606a.551.551,0,0,1,.023.172c-.363,1.02-.734,2.036-1.081,3.061A257.383,257.383,0,0,0,4.869,31.814c-.534,2.338-1,4.695-1.514,7.063s-1.054,4.7-1.3,7c-.237,2.275-.166,4.655.965,6.348l.1.161a.953.953,0,0,0,.089.116l.064.078.128.156.127.157c.046.049.1.094.145.141l.291.283c.1.087.215.168.322.253l.084.078a1.846,1.846,0,0,0,.247.2c.11.081.239.185.392.294l.532.336a14.308,14.308,0,0,0,2.894,1.191c.83.236,1.39.368,1.709.493s.4.228.307.319a4.579,4.579,0,0,1-2.25.254,10.468,10.468,0,0,1-3.635-.832L4.1,55.7l-.4-.222c-.124-.071-.241-.131-.34-.193l-.251-.173-.219-.153a3.541,3.541,0,0,1-.4-.356c-.129-.125-.26-.249-.385-.378l-.346-.419L1.674,53.7l-.1-.132-.139-.215-.275-.432c-.091-.144-.154-.3-.232-.454s-.15-.306-.217-.461L.54,51.534c-.051-.16-.119-.317-.154-.479l-.111-.485a11.93,11.93,0,0,1-.255-1.916,20.444,20.444,0,0,1,.192-3.732c.333-2.426.885-4.742,1.375-7.055s.962-4.646,1.5-6.962A260.334,260.334,0,0,1,10.94,3.481c.35-1.033.723-2.057,1.088-3.085" transform="translate(0 96.35)" fill="#202020"/>
  <path id="Fill_66" data-name="Fill 66" d="M.086,0,.117.03C.293.2.744.649,1.271,1.187l.049.051-.092.082s-.14-.113-.338-.291A7.956,7.956,0,0,1,.208.344C.18.318,0,.086,0,.086L.086,0" transform="translate(73.912 136.606)" fill="#202020"/>
  <path id="Fill_68" data-name="Fill 68" d="M9.218.981c.022.034.029.047.011.113a.813.813,0,0,1-.523.6c-.3.135-.711.106-1.109.281a.385.385,0,0,0-.07.039c.006-.006-.013.017.02-.008-.031.027-.011.007-.029,0A.361.361,0,0,0,7.3,1.942a1.993,1.993,0,0,0-.767.219,12.193,12.193,0,0,0-1.142.587,11.3,11.3,0,0,0-1.073.7c-.332.238-.623.485-.868.7s-.439.4-.571.54-.208.213-.208.213l-.154.115c-.1.071-.236.172-.393.293-.32.236-.714.553-1.069.811-.561.466-.849.566-.983.405a1.283,1.283,0,0,1,.079-1.02,4.5,4.5,0,0,1,.485-1c.151-.251.307-.506.437-.69s.215-.31.215-.31l.24-.243c.154-.153.377-.37.659-.614s.62-.521,1-.8A14.271,14.271,0,0,1,5.747.379,3.847,3.847,0,0,1,7.335,0,2.381,2.381,0,0,1,8.748.477a1.973,1.973,0,0,1,.469.5" transform="translate(66.653 136.606)" fill="#202020"/>
  <path id="Fill_70" data-name="Fill 70" d="M7.625,1.818a.311.311,0,0,1,.045.2,1.2,1.2,0,0,1-.112.569.692.692,0,0,1-.375.361c-.32.129-.71-.092-1.2-.145a.343.343,0,0,1-.1-.03,1.253,1.253,0,0,0-.291-.342,1.791,1.791,0,0,0-.452-.274A2.02,2.02,0,0,0,4.6,2.016a2.375,2.375,0,0,0-.579,0,2.285,2.285,0,0,0-1,.355.842.842,0,0,0-.412.573.8.8,0,0,0,.216.636,2.131,2.131,0,0,0,.9.521c.407.145.886.254,1.4.378a8.742,8.742,0,0,1,1.657.546,4.019,4.019,0,0,1,.873.547,2.625,2.625,0,0,1,.742.989,2.4,2.4,0,0,1,.152,1.3A2.688,2.688,0,0,1,8.08,9a3.451,3.451,0,0,1-.944.879,4.731,4.731,0,0,1-1.049.5,4.4,4.4,0,0,1-.6.126,5.771,5.771,0,0,1-3.336-.512A4.165,4.165,0,0,1,.632,8.76a2.547,2.547,0,0,1-.61-1.927c.075-.37.2-.438.288-.344a5.435,5.435,0,0,1,.352.635,3.124,3.124,0,0,0,.8.912c-.023-.046.16.129.515.317a4.024,4.024,0,0,0,1.474.426,4.4,4.4,0,0,0,1.559-.123,3.151,3.151,0,0,0,.634-.241,2.465,2.465,0,0,0,.495-.265,1.415,1.415,0,0,0,.328-.312.53.53,0,0,0,.1-.507A.644.644,0,0,0,6.38,7.1a2.075,2.075,0,0,0-.439-.268,6.89,6.89,0,0,0-1.284-.413,16.312,16.312,0,0,1-1.591-.434A4.032,4.032,0,0,1,1.343,4.9a2.8,2.8,0,0,1-.7-2.239,2.693,2.693,0,0,1,.448-1.147A3.115,3.115,0,0,1,1.9.723,4.247,4.247,0,0,1,3.789.032,4.154,4.154,0,0,1,5.909.318,3.926,3.926,0,0,1,6.4.57,3.6,3.6,0,0,1,6.862.9a3.24,3.24,0,0,1,.763.919" transform="translate(133.966 73.253)" fill="#fff"/>
  <path id="Fill_72" data-name="Fill 72" d="M2.216,3.281c0,.006,0,.007-.056.009A7.518,7.518,0,0,1,.088,3.1.441.441,0,0,1,0,3.075c0-.009.016-.173.049-.413S.135,2.107.2,1.795C.331,1.171.529.569.529.569A2.415,2.415,0,0,1,1.292.1.819.819,0,0,1,2.444.514c.028,0,.07.177.112.357l.084.357s-.16.5-.264,1.007c-.053.255-.095.513-.121.709s-.038.33-.039.337" transform="translate(137.266 70.613)" fill="#fff"/>
  <path id="Fill_74" data-name="Fill 74" d="M.572.006C.575,0,.576,0,.63,0A6.133,6.133,0,0,1,2.563.641.525.525,0,0,1,2.64.687c0,.008-.058.148-.126.357a6.775,6.775,0,0,0-.2.771,6.976,6.976,0,0,0-.13,1.134,4.208,4.208,0,0,1-.544.664.836.836,0,0,1-.655.346.788.788,0,0,1-.555-.284C.406,3.695.288,3.5.186,3.291S0,2.86,0,2.86A8.958,8.958,0,0,1,.163,1.425,8.762,8.762,0,0,1,.416.454C.5.191.568.016.572.006" transform="translate(135.946 82.492)" fill="#fff"/>
  <path id="Fill_76" data-name="Fill 76" d="M18.478,9.239A9.239,9.239,0,1,1,9.239,0a9.239,9.239,0,0,1,9.239,9.239" transform="translate(81.172 82.492)" fill="#ffd087"/>
  <path id="Fill_78" data-name="Fill 78" d="M6.366,1.483a.363.363,0,0,1,.061.206,1.273,1.273,0,0,1-.078.6.666.666,0,0,1-.36.383c-.311.133-.7-.108-1.167-.094a.337.337,0,0,1-.1-.014A1.255,1.255,0,0,0,4,2.074a1.789,1.789,0,0,0-1.03.051,1.334,1.334,0,0,0-.506.3.447.447,0,0,0-.144.3.521.521,0,0,0,.108.34.869.869,0,0,0,.163.166,1.609,1.609,0,0,0,.28.168,4.746,4.746,0,0,0,.811.28c.311.083.645.157,1.019.264A5.8,5.8,0,0,1,5.859,4.4,2.7,2.7,0,0,1,7.018,5.531a2.246,2.246,0,0,1,.234.826,2.342,2.342,0,0,1-.081.826,2.522,2.522,0,0,1-.323.707,2.816,2.816,0,0,1-.462.535,3,3,0,0,1-.583.38,4.091,4.091,0,0,1-1.5.417A4.726,4.726,0,0,1,2.4,9,3.874,3.874,0,0,1,.761,7.963a2.817,2.817,0,0,1-.667-1.11,1.868,1.868,0,0,1-.081-.8c.064-.38.193-.446.276-.352s.177.338.357.617a2.675,2.675,0,0,0,.84.819c-.027-.041.165.105.528.246a3.507,3.507,0,0,0,1.465.2,2.874,2.874,0,0,0,1.354-.425,1.4,1.4,0,0,0,.293-.251.642.642,0,0,0,.072-.1.587.587,0,0,0,.081-.12.389.389,0,0,0,.035-.1A.186.186,0,0,0,5.3,6.469a.829.829,0,0,0-.346-.285,3.909,3.909,0,0,0-.772-.3C3.9,5.8,3.555,5.728,3.2,5.633a6.544,6.544,0,0,1-1.146-.4,3.511,3.511,0,0,1-.612-.371,2.867,2.867,0,0,1-.57-.586A2.6,2.6,0,0,1,.38,2.6,2.512,2.512,0,0,1,1.091,1,3.232,3.232,0,0,1,2.344.213,3.645,3.645,0,0,1,4.493.12,3.4,3.4,0,0,1,5.52.6a3.023,3.023,0,0,1,.846.886" transform="translate(87.111 87.111)" fill="#fff"/>
  <path id="Fill_80" data-name="Fill 80" d="M1.709,2.63s0,.006-.043.006a5.678,5.678,0,0,1-1.6-.175A.347.347,0,0,1,0,2.437C0,2.43.014,2.3.033,2.1s.057-.448.1-.7C.22.9.351.417.351.417A1.594,1.594,0,0,1,.915.062.665.665,0,0,1,1.8.452a.92.92,0,0,1,.1.291l.077.287s-.1.386-.168.785c-.034.2-.061.4-.078.553s-.024.257-.025.263" transform="translate(89.751 85.131)" fill="#fff"/>
  <path id="Fill_82" data-name="Fill 82" d="M.381.005c0-.006,0-.008.044,0A4.822,4.822,0,0,1,1.92.624a.494.494,0,0,1,.06.041c0,.006-.037.118-.08.285s-.094.391-.129.616a6.906,6.906,0,0,0-.083.906,3.458,3.458,0,0,1-.422.536A.663.663,0,0,1,.755,3.3.575.575,0,0,1,.33,3.071c-.018.016-.107-.145-.186-.319S0,2.392,0,2.392a9.329,9.329,0,0,1,.109-1.2C.156.893.22.6.277.38s.1-.367.1-.375" transform="translate(89.091 95.03)" fill="#fff"/>
  <path id="Fill_84" data-name="Fill 84" d="M4.121.928a.146.146,0,0,1,.02.095.438.438,0,0,1-.256.434c-.163.061-.362-.041-.612-.077a.165.165,0,0,1-.054-.016.806.806,0,0,0-.376-.313,1.242,1.242,0,0,0-.572-.1,1.391,1.391,0,0,0-.609.167.492.492,0,0,0-.278.326.416.416,0,0,0,.134.365,1.378,1.378,0,0,0,.557.281c.246.076.527.13.833.2a3.868,3.868,0,0,1,.965.345,1.647,1.647,0,0,1,.481.386,1.123,1.123,0,0,1,.263.639,1.325,1.325,0,0,1-.55,1.116,2.591,2.591,0,0,1-1.053.467,2.992,2.992,0,0,1-.305.032,3.359,3.359,0,0,1-.752-.041,3.1,3.1,0,0,1-.918-.3A2.128,2.128,0,0,1,.3,4.322,1.181,1.181,0,0,1,.013,3.4c.039-.175.1-.207.148-.162a2.114,2.114,0,0,1,.176.3,1.643,1.643,0,0,0,.4.448c-.011-.022.079.065.257.163a2.2,2.2,0,0,0,.743.238,2.651,2.651,0,0,0,.81-.01A2.039,2.039,0,0,0,2.891,4.3a1.476,1.476,0,0,0,.525-.245.408.408,0,0,0,.193-.331A.212.212,0,0,0,3.553,3.6a.66.66,0,0,0-.2-.15,2.89,2.89,0,0,0-.7-.242c-.272-.065-.576-.122-.9-.219a2.342,2.342,0,0,1-.983-.532A1.327,1.327,0,0,1,.385,1.284,1.26,1.26,0,0,1,.662.7,1.694,1.694,0,0,1,1.134.307,2.438,2.438,0,0,1,2.22,0,2.317,2.317,0,0,1,3.281.2a1.779,1.779,0,0,1,.839.732" transform="translate(97.67 52.795)" fill="#fff"/>
  <path id="Fill_86" data-name="Fill 86" d="M1.1,1.311s0,0-.028,0a4.556,4.556,0,0,1-1.025-.07A.366.366,0,0,1,0,1.234s.011-.069.026-.165S.071.847.105.723A4.246,4.246,0,0,1,.277.234,1.328,1.328,0,0,1,.661.042.434.434,0,0,1,1.23.2c.014,0,.033.07.052.142s.038.142.038.142A3.611,3.611,0,0,0,1.18.889c-.028.1-.05.207-.064.286s-.021.133-.021.136" transform="translate(98.99 50.815)" fill="#fff"/>
  <path id="Fill_88" data-name="Fill 88" d="M.3,0s0,0,.029,0a2.943,2.943,0,0,1,.954.3A.257.257,0,0,1,1.32.325S1.289.4,1.253.506A3.456,3.456,0,0,0,1.146.9a3.39,3.39,0,0,0-.069.575,2.108,2.108,0,0,1-.268.335.362.362,0,0,1-.6.03c-.011.009-.07-.088-.12-.193S0,1.429,0,1.429A4.18,4.18,0,0,1,.217.227C.261.1.3.008.3,0" transform="translate(98.99 57.414)" fill="#fff"/>
  <path id="Fill_90" data-name="Fill 90" d="M4.121.929a.148.148,0,0,1,.02.095.438.438,0,0,1-.256.434c-.163.061-.362-.041-.612-.077a.182.182,0,0,1-.054-.016.811.811,0,0,0-.377-.314,1.249,1.249,0,0,0-.572-.1,1.4,1.4,0,0,0-.609.167.492.492,0,0,0-.278.325.419.419,0,0,0,.134.366,1.378,1.378,0,0,0,.557.28c.246.076.527.13.833.2a3.905,3.905,0,0,1,.965.344,1.658,1.658,0,0,1,.481.386,1.126,1.126,0,0,1,.262.639,1.322,1.322,0,0,1-.55,1.116,2.589,2.589,0,0,1-1.053.467,3.036,3.036,0,0,1-.305.033,3.359,3.359,0,0,1-.751-.041,3.105,3.105,0,0,1-.918-.3A2.13,2.13,0,0,1,.3,4.322,1.182,1.182,0,0,1,.013,3.4c.04-.175.1-.208.148-.163a2.133,2.133,0,0,1,.176.305,1.631,1.631,0,0,0,.4.448c-.011-.022.079.065.257.163a2.192,2.192,0,0,0,.743.238,2.65,2.65,0,0,0,.81-.009A2.054,2.054,0,0,0,2.89,4.3a1.486,1.486,0,0,0,.525-.244.409.409,0,0,0,.193-.331A.208.208,0,0,0,3.554,3.6a.669.669,0,0,0-.2-.15,2.92,2.92,0,0,0-.7-.242c-.272-.065-.576-.122-.9-.219a2.339,2.339,0,0,1-.983-.533A1.326,1.326,0,0,1,.385,1.284,1.251,1.251,0,0,1,.662.7,1.7,1.7,0,0,1,1.134.307,2.452,2.452,0,0,1,2.22,0,2.32,2.32,0,0,1,3.281.2a1.782,1.782,0,0,1,.84.732" transform="translate(133.306 104.929)" fill="#fff"/>
  <path id="Fill_92" data-name="Fill 92" d="M1.1,1.311s0,0-.028,0a4.577,4.577,0,0,1-1.025-.07A.254.254,0,0,1,0,1.234s.011-.069.026-.164S.07.847.105.723A4.194,4.194,0,0,1,.277.234,1.317,1.317,0,0,1,.661.042.435.435,0,0,1,1.23.2c.014,0,.033.071.052.142L1.32.483A3.6,3.6,0,0,0,1.18.889c-.028.1-.05.207-.064.286s-.021.133-.021.136" transform="translate(135.286 103.609)" fill="#fff"/>
  <path id="Fill_94" data-name="Fill 94" d="M.3,0s0,0,.029,0a2.954,2.954,0,0,1,.955.3A.228.228,0,0,1,1.32.325S1.289.4,1.253.506a3.352,3.352,0,0,0-.175.966,2.118,2.118,0,0,1-.268.335.362.362,0,0,1-.6.029c-.011.01-.07-.088-.12-.193S0,1.429,0,1.429A4.173,4.173,0,0,1,.217.227C.261.1.3.009.3,0" transform="translate(134.626 109.549)" fill="#fff"/>
  <path id="Fill_96" data-name="Fill 96" d="M0,.875A.205.205,0,0,1,.013.758.565.565,0,0,1,.179.479.3.3,0,0,1,.431.4C.6.418.7.659.921.688A.312.312,0,0,1,.961.7a.486.486,0,0,0,.085.169,1.308,1.308,0,0,0,.2.215,3.107,3.107,0,0,0,.562.408,1.238,1.238,0,0,0,.723.175.8.8,0,0,0,.27-.073.558.558,0,0,0,.185-.14A.6.6,0,0,0,3.038,1.4c0-.012.067.008-.031-.152A1.664,1.664,0,0,0,2.521.8,2.067,2.067,0,0,0,1.845.543,3.115,3.115,0,0,0,1.014.527C.85.544.785.521.806.458a1.374,1.374,0,0,1,1.1-.45A1.223,1.223,0,0,1,2.32.027,2.443,2.443,0,0,1,3.3.413a1.832,1.832,0,0,1,.464.429,1.027,1.027,0,0,1,.167.355.93.93,0,0,1,.01.393,1.15,1.15,0,0,1-.219.476,1.053,1.053,0,0,1-.118.135,1.663,1.663,0,0,1-.979.428,2.031,2.031,0,0,1-.684-.048,2.537,2.537,0,0,1-.6-.236A4.047,4.047,0,0,1,.6,1.812a2.262,2.262,0,0,1-.345-.38A1.42,1.42,0,0,1,0,.875" transform="translate(139.246 66.653)" fill="#fff"/>
  <path id="Fill_98" data-name="Fill 98" d="M2.263,4.588c0,.01-.006.014-.031.018a.8.8,0,0,1-.78-.362A.134.134,0,0,1,1.428,4.2a4.593,4.593,0,0,0,.179-.549,3.473,3.473,0,0,0,.115-1.174A2.409,2.409,0,0,0,1.6,1.9a1.745,1.745,0,0,0-.22-.432A1.85,1.85,0,0,0,1.163,1.2c-.059-.057-.094-.086-.094-.086A2.245,2.245,0,0,0,.874.9,2.112,2.112,0,0,0,.41.551C.264.48.155.442.088.4S-.009.31,0,.26C.022.163.213.034.478.012.466,0,.538-.006.652,0a1.746,1.746,0,0,1,.43.085A2.264,2.264,0,0,1,1.5.274c.107.066.178.114.178.114l.14.134a2.857,2.857,0,0,1,.321.4,2.832,2.832,0,0,1,.328.669,3.506,3.506,0,0,1,.164.823,4.573,4.573,0,0,1-.149,1.512,5.543,5.543,0,0,1-.216.66" transform="translate(139.906 63.354)" fill="#fff"/>
  <path id="Fill_100" data-name="Fill 100" d="M0,1.72A.184.184,0,0,1,.02,1.6a.486.486,0,0,1,.222-.265A.423.423,0,0,1,.567,1.3a.743.743,0,0,1,.123.055.29.29,0,0,1,.067.057.27.27,0,0,0,.191.108.174.174,0,0,0,.038,0L1,1.523a1.045,1.045,0,0,0,.254.07,6.638,6.638,0,0,0,.776.109c.112.01.227.018.337.022a2.533,2.533,0,0,0,.765-.073A1.218,1.218,0,0,0,3.3,1.605a.991.991,0,0,0,.361-.212A.485.485,0,0,0,3.829.969.629.629,0,0,0,3.523.515,1.124,1.124,0,0,0,2.758.444C2.6.482,2.526.492,2.528.425s.1-.2.319-.308A1.284,1.284,0,0,1,3.786.064a.983.983,0,0,1,.438.249,1.146,1.146,0,0,1,.368,1.1,1.539,1.539,0,0,1-.778.939,2.2,2.2,0,0,1-.382.166l-.148.045a3.871,3.871,0,0,1-.952.076c-.135,0-.265-.011-.4-.022a7.887,7.887,0,0,1-.908-.127,2.022,2.022,0,0,1-.55-.174A1.02,1.02,0,0,1,.165,2.07.734.734,0,0,1,0,1.72" transform="translate(133.306 99.65)" fill="#fff"/>
  <path id="Fill_102" data-name="Fill 102" d="M3.11,4.554c0,.011,0,.016-.032.024a.921.921,0,0,1-.922-.242.155.155,0,0,1-.032-.041,4.971,4.971,0,0,0,.119-.606,3.573,3.573,0,0,0-.034-1.25A2.422,2.422,0,0,0,2,1.848a1.807,1.807,0,0,0-.3-.421,1.962,1.962,0,0,0-.278-.243c-.073-.051-.115-.077-.115-.077A2.383,2.383,0,0,0,1.057.9,2.322,2.322,0,0,0,.493.61C.323.557.2.534.114.5S-.005.422,0,.368C.009.265.2.1.5.038.484.034.563.012.693.005a2.041,2.041,0,0,1,.491.027,2.642,2.642,0,0,1,.487.135c.128.053.213.094.213.094l.173.121a3.015,3.015,0,0,1,.409.374,2.878,2.878,0,0,1,.452.652,3.51,3.51,0,0,1,.29.833,4.669,4.669,0,0,1,.043,1.594,5.933,5.933,0,0,1-.141.718" transform="translate(90.411 79.192)" fill="#fff"/>
  <path id="Fill_104" data-name="Fill 104" d="M.765,1.976s-.006.006-.029,0a1.213,1.213,0,0,1-.722-.507A.1.1,0,0,1,0,1.426l.1-.112c.063-.064.148-.156.26-.254a4.262,4.262,0,0,1,.4-.315,4.656,4.656,0,0,1,.5-.3A4.858,4.858,0,0,1,1.8.222,5.015,5.015,0,0,1,2.291.081c.147-.03.27-.054.358-.065L2.786,0A2.438,2.438,0,0,1,3.1.039a2.1,2.1,0,0,1,.559.179c.282.128.335.242.289.32s-.193.13-.354.171c.008.005-.036.015-.1.026s-.163.034-.255.05S3.048.834,2.98.851L2.868.889a3.2,3.2,0,0,0-.375.066c-.112.025-.239.064-.375.109a4.143,4.143,0,0,0-.41.176,4.09,4.09,0,0,0-.38.227,3.4,3.4,0,0,0-.3.238,2.434,2.434,0,0,0-.264.272" transform="translate(103.609 48.835)" fill="#fff"/>
  <path id="Fill_106" data-name="Fill 106" d="M1.583.075c.017.007.023.01.034.042a.416.416,0,0,1-.05.393c-.087.146-.251.248-.359.43L1.19.974h0S1.2.984,1.2.964c0,.023,0,.005,0,.013A.13.13,0,0,0,1.146,1a.187.187,0,0,0-.053.049.119.119,0,0,0-.01.018c0,.006,0-.007,0,.02a.535.535,0,0,0,.1.311,2.748,2.748,0,0,0,.323.415,3.283,3.283,0,0,0,.338.334,1.141,1.141,0,0,0,.326.2l.049.038a.717.717,0,0,0,.119.078,1.065,1.065,0,0,0,.45.109c.262-.017.41-.1.486-.02.077.068.032.321-.218.5.017,0-.048.049-.167.106A1.534,1.534,0,0,1,2.4,3.29a1.714,1.714,0,0,1-.526-.025,1.96,1.96,0,0,1-.225-.06,1.947,1.947,0,0,1-.178-.091,2.557,2.557,0,0,1-.4-.283A4.531,4.531,0,0,1,.641,2.4,3.419,3.419,0,0,1,.21,1.83a1.4,1.4,0,0,1-.2-.842A.99.99,0,0,1,.195.509,1.2,1.2,0,0,1,.521.2,1.252,1.252,0,0,1,1.254,0a.987.987,0,0,1,.328.073" transform="translate(102.29 48.835)" fill="#fff"/>
  <path id="Fill_108" data-name="Fill 108" d="M.854,0A.083.083,0,0,1,.919.022.386.386,0,0,1,1.106.4a1.159,1.159,0,0,1-.021.115.592.592,0,0,1-.027.08A.442.442,0,0,0,1.015.78a.233.233,0,0,0,0,.029h0c0,.006,0-.012,0,.01a.759.759,0,0,0,.151.335,1.471,1.471,0,0,0,.388.389,1.27,1.27,0,0,0,.49.2,1.236,1.236,0,0,0,.458-.009.953.953,0,0,0,.278-.106.594.594,0,0,0,.085-.058.488.488,0,0,0,.06-.029.657.657,0,0,0,.141-.1A.916.916,0,0,0,3.334,1c.042-.289-.009-.44.108-.462.1-.024.341.119.45.4,0-.016.036.059.055.185a1.175,1.175,0,0,1-.029.481,1.3,1.3,0,0,1-.243.473,1.321,1.321,0,0,1-.182.189,1.641,1.641,0,0,1-.205.128,2.084,2.084,0,0,1-.6.207,2.391,2.391,0,0,1-.888,0,2.358,2.358,0,0,1-.9-.38,2.414,2.414,0,0,1-.621-.632A1.416,1.416,0,0,1,0,.8.768.768,0,0,1,.148.357.867.867,0,0,1,.46.1,1,1,0,0,1,.854,0" transform="translate(91.071 81.832)" fill="#fff"/>
  <path id="Fill_110" data-name="Fill 110" d="M3.2,2.607c0,.009-.005.013-.033.017A.769.769,0,0,1,2.785,2.6a2.116,2.116,0,0,1-.524-.258.171.171,0,0,1-.033-.027s.011-.034.026-.086a.923.923,0,0,0,.026-.223,1.082,1.082,0,0,0-.219-.651A1.043,1.043,0,0,0,1.494.981,1.309,1.309,0,0,0,1.16.933,1.876,1.876,0,0,0,.941.881,2.743,2.743,0,0,0,.464.841C.193.862.051.861.01.768S.047.514.219.374A1.249,1.249,0,0,1,.671.126,2.286,2.286,0,0,1,1.233,0L1.4.012A2.4,2.4,0,0,1,1.832.1,2.134,2.134,0,0,1,2.4.362a2,2,0,0,1,.811,1.082,1.9,1.9,0,0,1,.085.574,1.794,1.794,0,0,1-.1.589" transform="translate(132.646 98.99)" fill="#fff"/>
  <path id="Fill_112" data-name="Fill 112" d="M1.076,14.514c-.039.009-.055.013-.129-.066a2.965,2.965,0,0,1-.77-1.264A5.456,5.456,0,0,1,.071,10.9a.543.543,0,0,1,.061-.178c.021-.006.223-.056.57-.157s.834-.256,1.406-.471A20.982,20.982,0,0,0,6.069,8.105,18.51,18.51,0,0,0,7.943,6.722a16.4,16.4,0,0,0,1.449-1.39A13.769,13.769,0,0,0,10.3,4.252l.239-.313.078-.115.249-.238c.164-.146.375-.363.627-.616s.522-.554.822-.855c.271-.315.584-.626.848-.928A5.554,5.554,0,0,1,14.185.146c.273-.177.482-.187.64-.064a1.141,1.141,0,0,1,.312.725,3.5,3.5,0,0,1,.04.578c-.007.208-.026.432-.056.665a7.41,7.41,0,0,1-.549,2.088,18.442,18.442,0,0,1-.949,2.131l-.4.527c-.125.171-.289.367-.48.589l-.3.356-.352.378A21.051,21.051,0,0,1,8.062,11.45a24.9,24.9,0,0,1-4.634,2.317,22.378,22.378,0,0,1-2.352.747" transform="translate(103.609 100.97)" fill="#202020"/>
</svg>
