<svg xmlns="http://www.w3.org/2000/svg" width="114.961" height="119.693" viewBox="0 0 114.961 119.693">
  <g id="Group_399" data-name="Group 399" transform="translate(-574.84 -96)">
    <circle id="Ellipse_65" data-name="Ellipse 65" cx="0.639" cy="0.639" r="0.639" transform="translate(574.841 96)"/>
    <circle id="Ellipse_66" data-name="Ellipse 66" cx="0.639" cy="0.639" r="0.639" transform="translate(586.209 96)"/>
    <path id="Path_162" data-name="Path 162" d="M587.045,96.639a.639.639,0,1,1-.639-.639A.64.64,0,0,1,587.045,96.639Z" transform="translate(11.811)"/>
    <path id="Path_163" data-name="Path 163" d="M592.508,96.639a.639.639,0,1,1-.639-.639A.64.64,0,0,1,592.508,96.639Z" transform="translate(17.716)"/>
    <path id="Path_164" data-name="Path 164" d="M597.971,96.639a.639.639,0,1,1-.639-.639A.64.64,0,0,1,597.971,96.639Z" transform="translate(23.621)"/>
    <path id="Path_165" data-name="Path 165" d="M603.434,96.639a.639.639,0,1,1-.639-.639A.639.639,0,0,1,603.434,96.639Z" transform="translate(29.525)"/>
    <path id="Path_166" data-name="Path 166" d="M608.9,96.639a.639.639,0,1,1-.639-.639A.639.639,0,0,1,608.9,96.639Z" transform="translate(35.43)"/>
    <circle id="Ellipse_67" data-name="Ellipse 67" cx="0.639" cy="0.639" r="0.639" transform="translate(654.419 96)"/>
    <circle id="Ellipse_68" data-name="Ellipse 68" cx="0.639" cy="0.639" r="0.639" transform="translate(665.787 96)"/>
    <path id="Path_167" data-name="Path 167" d="M625.287,96.639a.639.639,0,1,1-.639-.639A.64.64,0,0,1,625.287,96.639Z" transform="translate(53.146)"/>
    <path id="Path_168" data-name="Path 168" d="M630.75,96.639a.639.639,0,1,1-.639-.639A.64.64,0,0,1,630.75,96.639Z" transform="translate(59.051)"/>
    <path id="Path_169" data-name="Path 169" d="M576.118,102.962a.639.639,0,1,1-.639-.639A.639.639,0,0,1,576.118,102.962Z" transform="translate(0 6.834)"/>
    <path id="Path_170" data-name="Path 170" d="M581.58,102.962a.638.638,0,1,1-.639-.639A.639.639,0,0,1,581.58,102.962Z" transform="translate(5.906 6.834)"/>
    <path id="Path_171" data-name="Path 171" d="M587.045,102.962a.639.639,0,1,1-.639-.639A.64.64,0,0,1,587.045,102.962Z" transform="translate(11.811 6.834)"/>
    <path id="Path_172" data-name="Path 172" d="M592.508,102.962a.639.639,0,1,1-.639-.639A.64.64,0,0,1,592.508,102.962Z" transform="translate(17.716 6.834)"/>
    <path id="Path_173" data-name="Path 173" d="M597.971,102.962a.639.639,0,1,1-.639-.639A.64.64,0,0,1,597.971,102.962Z" transform="translate(23.621 6.834)"/>
    <path id="Path_174" data-name="Path 174" d="M603.434,102.962a.639.639,0,1,1-.639-.639A.639.639,0,0,1,603.434,102.962Z" transform="translate(29.525 6.834)"/>
    <path id="Path_175" data-name="Path 175" d="M608.9,102.962a.639.639,0,1,1-.639-.639A.639.639,0,0,1,608.9,102.962Z" transform="translate(35.43 6.834)"/>
    <path id="Path_176" data-name="Path 176" d="M614.359,102.962a.638.638,0,1,1-.639-.639A.639.639,0,0,1,614.359,102.962Z" transform="translate(41.336 6.834)"/>
    <path id="Path_177" data-name="Path 177" d="M619.824,102.962a.639.639,0,1,1-.639-.639A.64.64,0,0,1,619.824,102.962Z" transform="translate(47.241 6.834)"/>
    <path id="Path_178" data-name="Path 178" d="M625.287,102.962a.639.639,0,1,1-.639-.639A.64.64,0,0,1,625.287,102.962Z" transform="translate(53.146 6.834)"/>
    <path id="Path_179" data-name="Path 179" d="M630.75,102.962a.639.639,0,1,1-.639-.639A.64.64,0,0,1,630.75,102.962Z" transform="translate(59.051 6.834)"/>
    <circle id="Ellipse_69" data-name="Ellipse 69" cx="0.639" cy="0.639" r="0.639" transform="translate(574.841 122.315)"/>
    <circle id="Ellipse_70" data-name="Ellipse 70" cx="0.639" cy="0.639" r="0.639" transform="translate(586.209 122.315)"/>
    <path id="Path_180" data-name="Path 180" d="M587.045,109.285a.639.639,0,1,1-.639-.639A.64.64,0,0,1,587.045,109.285Z" transform="translate(11.811 13.669)"/>
    <path id="Path_181" data-name="Path 181" d="M592.508,109.285a.639.639,0,1,1-.639-.639A.64.64,0,0,1,592.508,109.285Z" transform="translate(17.716 13.669)"/>
    <path id="Path_182" data-name="Path 182" d="M597.971,109.285a.639.639,0,1,1-.639-.639A.64.64,0,0,1,597.971,109.285Z" transform="translate(23.621 13.669)"/>
    <path id="Path_183" data-name="Path 183" d="M603.434,109.285a.639.639,0,1,1-.639-.639A.639.639,0,0,1,603.434,109.285Z" transform="translate(29.525 13.669)"/>
    <path id="Path_184" data-name="Path 184" d="M608.9,109.285a.639.639,0,1,1-.639-.639A.639.639,0,0,1,608.9,109.285Z" transform="translate(35.43 13.669)"/>
    <circle id="Ellipse_71" data-name="Ellipse 71" cx="0.639" cy="0.639" r="0.639" transform="translate(654.419 122.315)"/>
    <circle id="Ellipse_72" data-name="Ellipse 72" cx="0.639" cy="0.639" r="0.639" transform="translate(665.787 122.315)"/>
    <path id="Path_185" data-name="Path 185" d="M625.287,109.285a.639.639,0,1,1-.639-.639A.64.64,0,0,1,625.287,109.285Z" transform="translate(53.146 13.669)"/>
    <path id="Path_186" data-name="Path 186" d="M630.75,109.285a.639.639,0,1,1-.639-.639A.64.64,0,0,1,630.75,109.285Z" transform="translate(59.051 13.669)"/>
    <path id="Path_187" data-name="Path 187" d="M576.118,115.608a.639.639,0,1,1-.639-.639A.639.639,0,0,1,576.118,115.608Z" transform="translate(0 20.503)"/>
    <path id="Path_188" data-name="Path 188" d="M581.58,115.608a.638.638,0,1,1-.639-.639A.639.639,0,0,1,581.58,115.608Z" transform="translate(5.906 20.503)"/>
    <path id="Path_189" data-name="Path 189" d="M587.045,115.608a.639.639,0,1,1-.639-.639A.64.64,0,0,1,587.045,115.608Z" transform="translate(11.811 20.503)"/>
    <path id="Path_190" data-name="Path 190" d="M592.508,115.608a.639.639,0,1,1-.639-.639A.64.64,0,0,1,592.508,115.608Z" transform="translate(17.716 20.503)"/>
    <path id="Path_191" data-name="Path 191" d="M597.971,115.608a.639.639,0,1,1-.639-.639A.64.64,0,0,1,597.971,115.608Z" transform="translate(23.621 20.503)"/>
    <path id="Path_192" data-name="Path 192" d="M603.434,115.608a.639.639,0,1,1-.639-.639A.639.639,0,0,1,603.434,115.608Z" transform="translate(29.525 20.503)"/>
    <path id="Path_193" data-name="Path 193" d="M608.9,115.608a.639.639,0,1,1-.639-.639A.639.639,0,0,1,608.9,115.608Z" transform="translate(35.43 20.503)"/>
    <path id="Path_194" data-name="Path 194" d="M614.359,115.608a.638.638,0,1,1-.639-.639A.639.639,0,0,1,614.359,115.608Z" transform="translate(41.336 20.503)"/>
    <path id="Path_195" data-name="Path 195" d="M619.824,115.608a.639.639,0,1,1-.639-.639A.64.64,0,0,1,619.824,115.608Z" transform="translate(47.241 20.503)"/>
    <path id="Path_196" data-name="Path 196" d="M625.287,115.608a.639.639,0,1,1-.639-.639A.64.64,0,0,1,625.287,115.608Z" transform="translate(53.146 20.503)"/>
    <path id="Path_197" data-name="Path 197" d="M630.75,115.608a.639.639,0,1,1-.639-.639A.64.64,0,0,1,630.75,115.608Z" transform="translate(59.051 20.503)"/>
    <circle id="Ellipse_73" data-name="Ellipse 73" cx="0.639" cy="0.639" r="0.639" transform="translate(574.841 148.629)"/>
    <circle id="Ellipse_74" data-name="Ellipse 74" cx="0.639" cy="0.639" r="0.639" transform="translate(586.209 148.629)"/>
    <path id="Path_198" data-name="Path 198" d="M587.045,121.931a.639.639,0,1,1-.639-.639A.64.64,0,0,1,587.045,121.931Z" transform="translate(11.811 27.338)"/>
    <path id="Path_199" data-name="Path 199" d="M592.508,121.931a.639.639,0,1,1-.639-.639A.64.64,0,0,1,592.508,121.931Z" transform="translate(17.716 27.338)"/>
    <path id="Path_200" data-name="Path 200" d="M597.971,121.931a.639.639,0,1,1-.639-.639A.64.64,0,0,1,597.971,121.931Z" transform="translate(23.621 27.338)"/>
    <path id="Path_201" data-name="Path 201" d="M603.434,121.931a.639.639,0,1,1-.639-.639A.639.639,0,0,1,603.434,121.931Z" transform="translate(29.525 27.338)"/>
    <path id="Path_202" data-name="Path 202" d="M608.9,121.931a.639.639,0,1,1-.639-.639A.639.639,0,0,1,608.9,121.931Z" transform="translate(35.43 27.338)"/>
    <circle id="Ellipse_75" data-name="Ellipse 75" cx="0.639" cy="0.639" r="0.639" transform="translate(654.419 148.629)"/>
    <circle id="Ellipse_76" data-name="Ellipse 76" cx="0.639" cy="0.639" r="0.639" transform="translate(665.787 148.629)"/>
    <path id="Path_203" data-name="Path 203" d="M625.287,121.931a.639.639,0,1,1-.639-.639A.64.64,0,0,1,625.287,121.931Z" transform="translate(53.146 27.338)"/>
    <path id="Path_204" data-name="Path 204" d="M630.75,121.931a.639.639,0,1,1-.639-.639A.64.64,0,0,1,630.75,121.931Z" transform="translate(59.051 27.338)"/>
    <path id="Path_205" data-name="Path 205" d="M576.118,128.254a.639.639,0,1,1-.639-.639A.639.639,0,0,1,576.118,128.254Z" transform="translate(0 34.172)"/>
    <path id="Path_206" data-name="Path 206" d="M581.58,128.254a.638.638,0,1,1-.639-.639A.639.639,0,0,1,581.58,128.254Z" transform="translate(5.906 34.172)"/>
    <path id="Path_207" data-name="Path 207" d="M587.045,128.254a.639.639,0,1,1-.639-.639A.64.64,0,0,1,587.045,128.254Z" transform="translate(11.811 34.172)"/>
    <path id="Path_208" data-name="Path 208" d="M592.508,128.254a.639.639,0,1,1-.639-.639A.64.64,0,0,1,592.508,128.254Z" transform="translate(17.716 34.172)"/>
    <path id="Path_209" data-name="Path 209" d="M597.971,128.254a.639.639,0,1,1-.639-.639A.64.64,0,0,1,597.971,128.254Z" transform="translate(23.621 34.172)"/>
    <path id="Path_210" data-name="Path 210" d="M603.434,128.254a.639.639,0,1,1-.639-.639A.639.639,0,0,1,603.434,128.254Z" transform="translate(29.525 34.172)"/>
    <path id="Path_211" data-name="Path 211" d="M608.9,128.254a.639.639,0,1,1-.639-.639A.639.639,0,0,1,608.9,128.254Z" transform="translate(35.43 34.172)"/>
    <path id="Path_212" data-name="Path 212" d="M614.359,128.254a.638.638,0,1,1-.639-.639A.639.639,0,0,1,614.359,128.254Z" transform="translate(41.336 34.172)"/>
    <path id="Path_213" data-name="Path 213" d="M619.824,128.254a.639.639,0,1,1-.639-.639A.64.64,0,0,1,619.824,128.254Z" transform="translate(47.241 34.172)"/>
    <path id="Path_214" data-name="Path 214" d="M625.287,128.254a.639.639,0,1,1-.639-.639A.64.64,0,0,1,625.287,128.254Z" transform="translate(53.146 34.172)"/>
    <path id="Path_215" data-name="Path 215" d="M630.75,128.254a.639.639,0,1,1-.639-.639A.64.64,0,0,1,630.75,128.254Z" transform="translate(59.051 34.172)"/>
    <circle id="Ellipse_77" data-name="Ellipse 77" cx="0.639" cy="0.639" r="0.639" transform="translate(574.841 174.944)"/>
    <circle id="Ellipse_78" data-name="Ellipse 78" cx="0.639" cy="0.639" r="0.639" transform="translate(586.209 174.944)"/>
    <path id="Path_216" data-name="Path 216" d="M587.045,134.577a.639.639,0,1,1-.639-.639A.639.639,0,0,1,587.045,134.577Z" transform="translate(11.811 41.007)"/>
    <path id="Path_217" data-name="Path 217" d="M592.508,134.577a.639.639,0,1,1-.639-.639A.639.639,0,0,1,592.508,134.577Z" transform="translate(17.716 41.007)"/>
    <path id="Path_218" data-name="Path 218" d="M597.971,134.577a.639.639,0,1,1-.639-.639A.639.639,0,0,1,597.971,134.577Z" transform="translate(23.621 41.007)"/>
    <path id="Path_219" data-name="Path 219" d="M603.434,134.577a.639.639,0,1,1-.639-.639A.637.637,0,0,1,603.434,134.577Z" transform="translate(29.525 41.007)"/>
    <path id="Path_220" data-name="Path 220" d="M608.9,134.577a.639.639,0,1,1-.639-.639A.637.637,0,0,1,608.9,134.577Z" transform="translate(35.43 41.007)"/>
    <circle id="Ellipse_79" data-name="Ellipse 79" cx="0.639" cy="0.639" r="0.639" transform="translate(654.419 174.944)"/>
    <circle id="Ellipse_80" data-name="Ellipse 80" cx="0.639" cy="0.639" r="0.639" transform="translate(665.787 174.944)"/>
    <path id="Path_221" data-name="Path 221" d="M625.287,134.577a.639.639,0,1,1-.639-.639A.639.639,0,0,1,625.287,134.577Z" transform="translate(53.146 41.007)"/>
    <path id="Path_222" data-name="Path 222" d="M630.75,134.577a.639.639,0,1,1-.639-.639A.639.639,0,0,1,630.75,134.577Z" transform="translate(59.051 41.007)"/>
    <circle id="Ellipse_81" data-name="Ellipse 81" cx="0.639" cy="0.639" r="0.639" transform="translate(574.841 188.101)"/>
    <circle id="Ellipse_82" data-name="Ellipse 82" cx="0.639" cy="0.639" r="0.639" transform="translate(586.209 188.101)"/>
    <path id="Path_223" data-name="Path 223" d="M587.045,140.9a.639.639,0,1,1-.639-.639A.639.639,0,0,1,587.045,140.9Z" transform="translate(11.811 47.841)"/>
    <path id="Path_224" data-name="Path 224" d="M592.508,140.9a.639.639,0,1,1-.639-.639A.639.639,0,0,1,592.508,140.9Z" transform="translate(17.716 47.841)"/>
    <path id="Path_225" data-name="Path 225" d="M597.971,140.9a.639.639,0,1,1-.639-.639A.639.639,0,0,1,597.971,140.9Z" transform="translate(23.621 47.841)"/>
    <path id="Path_226" data-name="Path 226" d="M603.434,140.9a.639.639,0,1,1-.639-.639A.637.637,0,0,1,603.434,140.9Z" transform="translate(29.525 47.841)"/>
    <path id="Path_227" data-name="Path 227" d="M608.9,140.9a.639.639,0,1,1-.639-.639A.637.637,0,0,1,608.9,140.9Z" transform="translate(35.43 47.841)"/>
    <circle id="Ellipse_83" data-name="Ellipse 83" cx="0.639" cy="0.639" r="0.639" transform="translate(654.419 188.101)"/>
    <circle id="Ellipse_84" data-name="Ellipse 84" cx="0.639" cy="0.639" r="0.639" transform="translate(665.787 188.101)"/>
    <path id="Path_228" data-name="Path 228" d="M625.287,140.9a.639.639,0,1,1-.639-.639A.639.639,0,0,1,625.287,140.9Z" transform="translate(53.146 47.841)"/>
    <path id="Path_229" data-name="Path 229" d="M630.75,140.9a.639.639,0,1,1-.639-.639A.639.639,0,0,1,630.75,140.9Z" transform="translate(59.051 47.841)"/>
    <path id="Path_230" data-name="Path 230" d="M576.118,147.224a.639.639,0,1,1-.639-.641A.637.637,0,0,1,576.118,147.224Z" transform="translate(0 54.675)"/>
    <path id="Path_231" data-name="Path 231" d="M581.58,147.224a.638.638,0,1,1-.639-.641A.637.637,0,0,1,581.58,147.224Z" transform="translate(5.906 54.675)"/>
    <path id="Path_232" data-name="Path 232" d="M587.045,147.224a.639.639,0,1,1-.639-.641A.639.639,0,0,1,587.045,147.224Z" transform="translate(11.811 54.675)"/>
    <path id="Path_233" data-name="Path 233" d="M592.508,147.224a.639.639,0,1,1-.639-.641A.639.639,0,0,1,592.508,147.224Z" transform="translate(17.716 54.675)"/>
    <path id="Path_234" data-name="Path 234" d="M597.971,147.224a.639.639,0,1,1-.639-.641A.639.639,0,0,1,597.971,147.224Z" transform="translate(23.621 54.675)"/>
    <path id="Path_235" data-name="Path 235" d="M603.434,147.224a.639.639,0,1,1-.639-.641A.637.637,0,0,1,603.434,147.224Z" transform="translate(29.525 54.675)"/>
    <path id="Path_236" data-name="Path 236" d="M608.9,147.224a.639.639,0,1,1-.639-.641A.637.637,0,0,1,608.9,147.224Z" transform="translate(35.43 54.675)"/>
    <path id="Path_237" data-name="Path 237" d="M614.359,147.224a.638.638,0,1,1-.639-.641A.637.637,0,0,1,614.359,147.224Z" transform="translate(41.336 54.675)"/>
    <path id="Path_238" data-name="Path 238" d="M619.824,147.224a.639.639,0,1,1-.639-.641A.638.638,0,0,1,619.824,147.224Z" transform="translate(47.241 54.675)"/>
    <path id="Path_239" data-name="Path 239" d="M625.287,147.224a.639.639,0,1,1-.639-.641A.639.639,0,0,1,625.287,147.224Z" transform="translate(53.146 54.675)"/>
    <path id="Path_240" data-name="Path 240" d="M630.75,147.224a.639.639,0,1,1-.639-.641A.639.639,0,0,1,630.75,147.224Z" transform="translate(59.051 54.675)"/>
    <circle id="Ellipse_85" data-name="Ellipse 85" cx="0.639" cy="0.639" r="0.639" transform="translate(574.841 214.416)"/>
    <circle id="Ellipse_86" data-name="Ellipse 86" cx="0.639" cy="0.639" r="0.639" transform="translate(586.209 214.416)"/>
    <path id="Path_241" data-name="Path 241" d="M587.045,153.544a.639.639,0,1,1-.639-.637A.639.639,0,0,1,587.045,153.544Z" transform="translate(11.811 61.51)"/>
    <path id="Path_242" data-name="Path 242" d="M592.508,153.544a.639.639,0,1,1-.639-.637A.639.639,0,0,1,592.508,153.544Z" transform="translate(17.716 61.51)"/>
    <path id="Path_243" data-name="Path 243" d="M597.971,153.544a.639.639,0,1,1-.639-.637A.639.639,0,0,1,597.971,153.544Z" transform="translate(23.621 61.51)"/>
    <path id="Path_244" data-name="Path 244" d="M603.434,153.544a.639.639,0,1,1-.639-.637A.638.638,0,0,1,603.434,153.544Z" transform="translate(29.525 61.51)"/>
    <path id="Path_245" data-name="Path 245" d="M608.9,153.544a.639.639,0,1,1-.639-.637A.638.638,0,0,1,608.9,153.544Z" transform="translate(35.43 61.51)"/>
    <circle id="Ellipse_87" data-name="Ellipse 87" cx="0.639" cy="0.639" r="0.639" transform="translate(654.419 214.416)"/>
    <circle id="Ellipse_88" data-name="Ellipse 88" cx="0.639" cy="0.639" r="0.639" transform="translate(665.787 214.416)"/>
    <path id="Path_246" data-name="Path 246" d="M625.287,153.544a.639.639,0,1,1-.639-.637A.639.639,0,0,1,625.287,153.544Z" transform="translate(53.146 61.51)"/>
    <path id="Path_247" data-name="Path 247" d="M630.75,153.544a.639.639,0,1,1-.639-.637A.639.639,0,0,1,630.75,153.544Z" transform="translate(59.051 61.51)"/>
  </g>
</svg>
