<svg xmlns="http://www.w3.org/2000/svg" width="99.147" height="94.5" viewBox="0 0 99.147 94.5">
  <g id="Airplane" transform="translate(0 -1.5)">
    <g id="Group_2777" data-name="Group 2777" transform="translate(0 1.5)">
      <g id="Group_2688" data-name="Group 2688" transform="translate(8.52 7.746)">
        <g id="Group_2687" data-name="Group 2687">
          <g id="Group_2686" data-name="Group 2686">
            <path id="Path_11406" data-name="Path 11406" d="M14.8,9.6a3.1,3.1,0,1,0-6.2,0,3.1,3.1,0,0,0,0,6.2h6.2a3.1,3.1,0,0,0,0-6.2Z" transform="translate(-5.5 -6.5)" fill="#4fc3f7"/>
          </g>
        </g>
      </g>
      <g id="Group_2696" data-name="Group 2696" transform="translate(2.324 88.303)">
        <g id="Group_2695" data-name="Group 2695">
          <g id="Group_2691" data-name="Group 2691">
            <g id="Group_2690" data-name="Group 2690">
              <g id="Group_2689" data-name="Group 2689">
                <path id="Path_11407" data-name="Path 11407" d="M3.824,60.049H2.275a.775.775,0,1,1,0-1.549H3.824a.775.775,0,1,1,0,1.549Z" transform="translate(-1.5 -58.5)" fill="#1a237e"/>
              </g>
            </g>
          </g>
          <g id="Group_2694" data-name="Group 2694" transform="translate(4.648)">
            <g id="Group_2693" data-name="Group 2693">
              <g id="Group_2692" data-name="Group 2692">
                <path id="Path_11408" data-name="Path 11408" d="M25.414,60.049H5.275a.775.775,0,1,1,0-1.549H25.414a.775.775,0,1,1,0,1.549Z" transform="translate(-4.5 -58.5)" fill="#1a237e"/>
              </g>
            </g>
          </g>
        </g>
      </g>
      <g id="Group_2701" data-name="Group 2701" transform="translate(14.717 92.951)">
        <g id="Group_2700" data-name="Group 2700">
          <g id="Group_2699" data-name="Group 2699">
            <g id="Group_2698" data-name="Group 2698">
              <g id="Group_2697" data-name="Group 2697">
                <path id="Path_11409" data-name="Path 11409" d="M30.414,63.049H10.275a.775.775,0,0,1,0-1.549H30.414a.775.775,0,1,1,0,1.549Z" transform="translate(-9.5 -61.5)" fill="#1a237e"/>
              </g>
            </g>
          </g>
        </g>
      </g>
      <g id="Group_2729" data-name="Group 2729" transform="translate(69.713)">
        <g id="Group_2704" data-name="Group 2704" transform="translate(7.746 7.746)">
          <g id="Group_2703" data-name="Group 2703">
            <g id="Group_2702" data-name="Group 2702">
              <path id="Path_11410" data-name="Path 11410" d="M55.422,17.344a5.422,5.422,0,1,1,5.422-5.422A5.428,5.428,0,0,1,55.422,17.344Zm0-9.3A3.873,3.873,0,1,0,59.3,11.922,3.878,3.878,0,0,0,55.422,8.049Z" transform="translate(-50 -6.5)" fill="#1a237e"/>
            </g>
          </g>
        </g>
        <g id="Group_2707" data-name="Group 2707" transform="translate(12.393)">
          <g id="Group_2706" data-name="Group 2706">
            <g id="Group_2705" data-name="Group 2705">
              <path id="Path_11411" data-name="Path 11411" d="M53.775,7.7A.775.775,0,0,1,53,6.922V2.275a.775.775,0,1,1,1.549,0V6.922A.775.775,0,0,1,53.775,7.7Z" transform="translate(-53 -1.5)" fill="#1a237e"/>
            </g>
          </g>
        </g>
        <g id="Group_2710" data-name="Group 2710" transform="translate(12.393 20.139)">
          <g id="Group_2709" data-name="Group 2709" transform="translate(0 0)">
            <g id="Group_2708" data-name="Group 2708">
              <path id="Path_11412" data-name="Path 11412" d="M53.775,20.7A.775.775,0,0,1,53,19.922V15.275a.775.775,0,0,1,1.549,0v4.648A.775.775,0,0,1,53.775,20.7Z" transform="translate(-53 -14.5)" fill="#1a237e"/>
            </g>
          </g>
        </g>
        <g id="Group_2713" data-name="Group 2713" transform="translate(20.139 12.393)">
          <g id="Group_2712" data-name="Group 2712">
            <g id="Group_2711" data-name="Group 2711">
              <path id="Path_11413" data-name="Path 11413" d="M63.422,11.049H58.775a.775.775,0,0,1,0-1.549h4.648a.775.775,0,0,1,0,1.549Z" transform="translate(-58 -9.5)" fill="#1a237e"/>
            </g>
          </g>
        </g>
        <g id="Group_2716" data-name="Group 2716" transform="translate(0 12.393)">
          <g id="Group_2715" data-name="Group 2715">
            <g id="Group_2714" data-name="Group 2714">
              <path id="Path_11414" data-name="Path 11414" d="M50.422,11.049H45.775a.775.775,0,0,1,0-1.549h4.648a.775.775,0,0,1,0,1.549Z" transform="translate(-45 -9.5)" fill="#1a237e"/>
            </g>
          </g>
        </g>
        <g id="Group_2719" data-name="Group 2719" transform="translate(17.871 4.726)">
          <g id="Group_2718" data-name="Group 2718">
            <g id="Group_2717" data-name="Group 2717">
              <path id="Path_11415" data-name="Path 11415" d="M57.311,8.289a.774.774,0,0,1-.548-1.321l2.191-2.191a.774.774,0,0,1,1.1,1.1L57.858,8.063A.765.765,0,0,1,57.311,8.289Z" transform="translate(-56.536 -4.551)" fill="#1a237e"/>
            </g>
          </g>
        </g>
        <g id="Group_2722" data-name="Group 2722" transform="translate(4.725 17.873)">
          <g id="Group_2721" data-name="Group 2721">
            <g id="Group_2720" data-name="Group 2720">
              <path id="Path_11416" data-name="Path 11416" d="M48.825,16.775a.774.774,0,0,1-.548-1.321l2.191-2.191a.774.774,0,0,1,1.1,1.1l-2.191,2.191A.772.772,0,0,1,48.825,16.775Z" transform="translate(-48.05 -13.037)" fill="#1a237e"/>
            </g>
          </g>
        </g>
        <g id="Group_2725" data-name="Group 2725" transform="translate(17.871 17.873)">
          <g id="Group_2724" data-name="Group 2724">
            <g id="Group_2723" data-name="Group 2723">
              <path id="Path_11417" data-name="Path 11417" d="M59.5,16.775a.778.778,0,0,1-.548-.226l-2.191-2.191a.774.774,0,1,1,1.1-1.1l2.191,2.191a.774.774,0,0,1-.547,1.321Z" transform="translate(-56.536 -13.037)" fill="#1a237e"/>
            </g>
          </g>
        </g>
        <g id="Group_2728" data-name="Group 2728" transform="translate(4.725 4.726)">
          <g id="Group_2727" data-name="Group 2727">
            <g id="Group_2726" data-name="Group 2726">
              <path id="Path_11418" data-name="Path 11418" d="M51.015,8.289a.778.778,0,0,1-.548-.226L48.276,5.873a.774.774,0,0,1,1.1-1.1l2.191,2.191a.775.775,0,0,1,0,1.1A.765.765,0,0,1,51.015,8.289Z" transform="translate(-48.05 -4.551)" fill="#1a237e"/>
            </g>
          </g>
        </g>
      </g>
      <g id="Group_2732" data-name="Group 2732" transform="translate(78.233 77.459)">
        <g id="Group_2731" data-name="Group 2731">
          <g id="Group_2730" data-name="Group 2730">
            <path id="Path_11419" data-name="Path 11419" d="M59.8,54.6a3.1,3.1,0,0,0-6.2,0,3.1,3.1,0,0,0,0,6.2h6.2a3.1,3.1,0,0,0,0-6.2Z" transform="translate(-50.5 -51.5)" fill="#4fc3f7"/>
          </g>
        </g>
      </g>
      <g id="Group_2735" data-name="Group 2735" transform="translate(4.685 57.32)">
        <g id="Group_2734" data-name="Group 2734">
          <g id="Group_2733" data-name="Group 2733">
            <path id="Path_11420" data-name="Path 11420" d="M34.357,47.02H11.507a8.487,8.487,0,0,1-8.479-7.67.774.774,0,0,1,.694-.847.783.783,0,0,1,.847.694,6.944,6.944,0,0,0,6.937,6.274h22.85a.775.775,0,0,1,0,1.549Z" transform="translate(-3.025 -38.5)" fill="#1a237e"/>
          </g>
        </g>
      </g>
      <g id="Group_2738" data-name="Group 2738" transform="translate(4.647 31.758)">
        <g id="Group_2737" data-name="Group 2737">
          <g id="Group_2736" data-name="Group 2736">
            <path id="Path_11421" data-name="Path 11421" d="M89.754,56.082H65.742a.775.775,0,0,1,0-1.549H89.754a6.2,6.2,0,0,0,6.2-6.2,7.006,7.006,0,0,0-2.789-5.577l-3.1-2.324a22.606,22.606,0,0,0-13.478-4.493H22.365a.775.775,0,0,1-.657-.364L15.1,25.005a3.081,3.081,0,0,0-2.627-1.456H7.648a3.1,3.1,0,0,0-3.1,3.1v7.746a.775.775,0,1,1-1.549,0V26.648A4.653,4.653,0,0,1,7.648,22h4.824a4.621,4.621,0,0,1,3.941,2.184l6.381,10.209H76.586a24.164,24.164,0,0,1,14.407,4.8l3.1,2.324A8.559,8.559,0,0,1,97.5,48.336,7.755,7.755,0,0,1,89.754,56.082Z" transform="translate(-3 -22)" fill="#1a237e"/>
          </g>
        </g>
      </g>
      <g id="Group_2743" data-name="Group 2743" transform="translate(80.557 47.25)">
        <g id="Group_2740" data-name="Group 2740" transform="translate(0.775 0.775)">
          <g id="Group_2739" data-name="Group 2739">
            <path id="Path_11422" data-name="Path 11422" d="M52.5,37.148A1.55,1.55,0,0,0,54.049,38.7h14.44a7.732,7.732,0,0,0-2.046-2.324l-3.1-2.324A23.1,23.1,0,0,0,60.957,32.5H54.049A1.55,1.55,0,0,0,52.5,34.049Z" transform="translate(-52.5 -32.5)" fill="#4fc3f7"/>
          </g>
        </g>
        <g id="Group_2742" data-name="Group 2742">
          <g id="Group_2741" data-name="Group 2741">
            <path id="Path_11423" data-name="Path 11423" d="M70.107,39.746H54.324A2.327,2.327,0,0,1,52,37.422v-3.1A2.327,2.327,0,0,1,54.324,32h7.114l.18.1a23.91,23.91,0,0,1,2.466,1.6l3.1,2.324a8.481,8.481,0,0,1,2.253,2.555Zm-15.783-6.2a.775.775,0,0,0-.775.775v3.1a.775.775,0,0,0,.775.775H67.259a6.788,6.788,0,0,0-1.005-.93l-3.1-2.324a21.589,21.589,0,0,0-2.13-1.394Z" transform="translate(-52 -32)" fill="#1a237e"/>
          </g>
        </g>
      </g>
      <g id="Group_2748" data-name="Group 2748" transform="translate(33.22 54.996)">
        <g id="Group_2745" data-name="Group 2745" transform="translate(0.773 0.775)">
          <g id="Group_2744" data-name="Group 2744">
            <path id="Path_11424" data-name="Path 11424" d="M33.263,62.287H23.492a1.549,1.549,0,0,1-1.45-2.093L30.552,37.5H53.79L36.362,60.738A3.87,3.87,0,0,1,33.263,62.287Z" transform="translate(-21.942 -37.5)" fill="#ffa000"/>
          </g>
        </g>
        <g id="Group_2747" data-name="Group 2747">
          <g id="Group_2746" data-name="Group 2746">
            <path id="Path_11425" data-name="Path 11425" d="M33.537,63.336H23.766a2.325,2.325,0,0,1-2.175-3.14L30.1,37.5a.774.774,0,0,1,.725-.5H54.064a.774.774,0,0,1,.62,1.238L37.255,61.475A4.67,4.67,0,0,1,33.537,63.336ZM31.364,38.549,23.041,60.741a.774.774,0,0,0,.725,1.046h9.771a3.114,3.114,0,0,0,2.479-1.239l16.5-22Z" transform="translate(-21.444 -37)" fill="#1a237e"/>
          </g>
        </g>
      </g>
      <g id="Group_2751" data-name="Group 2751" transform="translate(52.478 72.037)">
        <g id="Group_2750" data-name="Group 2750">
          <g id="Group_2749" data-name="Group 2749">
            <path id="Path_11426" data-name="Path 11426" d="M38.716,53.422H34.65a.775.775,0,0,1,0-1.549h4.067a.775.775,0,0,0,.775-.775v-.775a.775.775,0,0,0-.775-.775H37.554a.775.775,0,1,1,0-1.549h1.162a2.327,2.327,0,0,1,2.324,2.324V51.1A2.327,2.327,0,0,1,38.716,53.422Z" transform="translate(-33.875 -48)" fill="#1a237e"/>
          </g>
        </g>
      </g>
      <g id="Group_2754" data-name="Group 2754" transform="translate(58.288 64.291)">
        <g id="Group_2753" data-name="Group 2753">
          <g id="Group_2752" data-name="Group 2752">
            <path id="Path_11427" data-name="Path 11427" d="M42.079,48.422H38.4a.775.775,0,1,1,0-1.549h3.679a.775.775,0,0,0,.775-.775v-.775a.775.775,0,0,0-.775-.775H41.3A.775.775,0,1,1,41.3,43h.775A2.327,2.327,0,0,1,44.4,45.324V46.1A2.327,2.327,0,0,1,42.079,48.422Z" transform="translate(-37.625 -43)" fill="#1a237e"/>
          </g>
        </g>
      </g>
      <g id="Group_2759" data-name="Group 2759" transform="translate(33.22 19.365)">
        <g id="Group_2756" data-name="Group 2756" transform="translate(0.773 0.775)">
          <g id="Group_2755" data-name="Group 2755">
            <path id="Path_11428" data-name="Path 11428" d="M33.263,14.5H23.492a1.549,1.549,0,0,0-1.45,2.093l8.51,22.694H53.79L36.362,16.049A3.87,3.87,0,0,0,33.263,14.5Z" transform="translate(-21.942 -14.5)" fill="#ffa000"/>
          </g>
        </g>
        <g id="Group_2758" data-name="Group 2758">
          <g id="Group_2757" data-name="Group 2757">
            <path id="Path_11429" data-name="Path 11429" d="M54.064,40.336H30.826a.774.774,0,0,1-.725-.5L21.591,17.14A2.325,2.325,0,0,1,23.766,14h9.771a4.673,4.673,0,0,1,3.718,1.859L54.683,39.1a.775.775,0,0,1-.62,1.239Zm-22.7-1.549H52.515l-16.5-22a3.118,3.118,0,0,0-2.479-1.239H23.766a.774.774,0,0,0-.725,1.047Z" transform="translate(-21.444 -14)" fill="#1a237e"/>
          </g>
        </g>
      </g>
      <g id="Group_2762" data-name="Group 2762" transform="translate(52.478 23.238)">
        <g id="Group_2761" data-name="Group 2761" transform="translate(0 0)">
          <g id="Group_2760" data-name="Group 2760">
            <path id="Path_11430" data-name="Path 11430" d="M38.716,21.922H37.554a.775.775,0,1,1,0-1.549h1.162a.775.775,0,0,0,.775-.775v-.775a.775.775,0,0,0-.775-.775H34.65a.775.775,0,0,1,0-1.549h4.067a2.327,2.327,0,0,1,2.324,2.324V19.6A2.327,2.327,0,0,1,38.716,21.922Z" transform="translate(-33.875 -16.5)" fill="#1a237e"/>
          </g>
        </g>
      </g>
      <g id="Group_2765" data-name="Group 2765" transform="translate(58.288 30.984)">
        <g id="Group_2764" data-name="Group 2764">
          <g id="Group_2763" data-name="Group 2763">
            <path id="Path_11431" data-name="Path 11431" d="M42.079,26.922H41.3a.775.775,0,1,1,0-1.549h.775a.775.775,0,0,0,.775-.775v-.775a.775.775,0,0,0-.775-.775H38.4a.775.775,0,1,1,0-1.549h3.679A2.327,2.327,0,0,1,44.4,23.824V24.6A2.327,2.327,0,0,1,42.079,26.922Z" transform="translate(-37.625 -21.5)" fill="#1a237e"/>
          </g>
        </g>
      </g>
      <g id="Group_2770" data-name="Group 2770" transform="translate(0 46.475)">
        <g id="Group_2767" data-name="Group 2767" transform="translate(0.774 0.775)">
          <g id="Group_2766" data-name="Group 2766">
            <path id="Path_11432" data-name="Path 11432" d="M5.148,32H17.541L7.594,39.035a3.87,3.87,0,0,1-2.237.711H.5Z" transform="translate(-0.5 -32)" fill="#fb8c00"/>
          </g>
        </g>
        <g id="Group_2769" data-name="Group 2769">
          <g id="Group_2768" data-name="Group 2768">
            <path id="Path_11433" data-name="Path 11433" d="M5.631,40.8H.775A.774.774,0,0,1,.11,39.622l4.648-7.746a.775.775,0,0,1,.665-.376H17.816a.775.775,0,0,1,.448,1.408L8.316,39.943A4.623,4.623,0,0,1,5.631,40.8ZM2.142,39.246H5.631a3.078,3.078,0,0,0,1.788-.569l7.96-5.628H5.861Z" transform="translate(0 -31.5)" fill="#1a237e"/>
          </g>
        </g>
      </g>
      <g id="Group_2773" data-name="Group 2773" transform="translate(37.18 54.996)">
        <g id="Group_2772" data-name="Group 2772">
          <g id="Group_2771" data-name="Group 2771">
            <path id="Path_11434" data-name="Path 11434" d="M24.775,63.336a.763.763,0,0,1-.273-.05.775.775,0,0,1-.452-1l9.3-24.787a.775.775,0,1,1,1.45.545L25.5,62.834A.775.775,0,0,1,24.775,63.336Z" transform="translate(-24 -37)" fill="#1a237e"/>
          </g>
        </g>
      </g>
      <g id="Group_2776" data-name="Group 2776" transform="translate(37.18 19.366)">
        <g id="Group_2775" data-name="Group 2775" transform="translate(0 0)">
          <g id="Group_2774" data-name="Group 2774">
            <path id="Path_11435" data-name="Path 11435" d="M34.07,40.336a.775.775,0,0,1-.725-.5l-9.3-24.787A.775.775,0,1,1,25.5,14.5l9.3,24.787a.775.775,0,0,1-.452,1A.763.763,0,0,1,34.07,40.336Z" transform="translate(-24 -14.001)" fill="#1a237e"/>
          </g>
        </g>
      </g>
    </g>
  </g>
</svg>
