<svg xmlns="http://www.w3.org/2000/svg" width="86.922" height="86.922" viewBox="0 0 86.922 86.922">
  <g id="Bicycle" transform="translate(-2.5 -2.5)">
    <g id="Group_2865" data-name="Group 2865" transform="translate(2.5 2.5)">
      <g id="Group_2820" data-name="Group 2820" transform="translate(0 34.622)">
        <g id="Group_2780" data-name="Group 2780" transform="translate(0 15.469)">
          <g id="Group_2779" data-name="Group 2779">
            <g id="Group_2778" data-name="Group 2778">
              <path id="Path_11436" data-name="Path 11436" d="M20.916,73.332A18.416,18.416,0,1,1,39.332,54.916,18.436,18.436,0,0,1,20.916,73.332Zm0-35.358A16.942,16.942,0,1,0,37.858,54.916,16.962,16.962,0,0,0,20.916,37.973Z" transform="translate(-2.5 -36.5)" fill="#1a237e"/>
            </g>
          </g>
        </g>
        <g id="Group_2785" data-name="Group 2785" transform="translate(11.786 27.255)">
          <g id="Group_2782" data-name="Group 2782" transform="translate(0.737 0.737)">
            <g id="Group_2781" data-name="Group 2781">
              <circle id="Ellipse_122" data-name="Ellipse 122" cx="5.893" cy="5.893" r="5.893" fill="#ffa000"/>
            </g>
          </g>
          <g id="Group_2784" data-name="Group 2784">
            <g id="Group_2783" data-name="Group 2783">
              <path id="Path_11437" data-name="Path 11437" d="M17.13,57.759a6.63,6.63,0,1,1,6.63-6.63A6.638,6.638,0,0,1,17.13,57.759Zm0-11.786a5.156,5.156,0,1,0,5.156,5.156A5.162,5.162,0,0,0,17.13,45.973Z" transform="translate(-10.5 -44.5)" fill="#1a237e"/>
            </g>
          </g>
        </g>
        <g id="Group_2788" data-name="Group 2788" transform="translate(4.42 19.889)">
          <g id="Group_2787" data-name="Group 2787">
            <g id="Group_2786" data-name="Group 2786">
              <path id="Path_11438" data-name="Path 11438" d="M6.237,54.233A.737.737,0,0,1,5.5,53.5a14.012,14.012,0,0,1,14-14,.737.737,0,1,1,0,1.473A12.537,12.537,0,0,0,6.973,53.5.737.737,0,0,1,6.237,54.233Z" transform="translate(-5.5 -39.5)" fill="#1a237e"/>
            </g>
          </g>
        </g>
        <g id="Group_2791" data-name="Group 2791" transform="translate(50.091 15.469)">
          <g id="Group_2790" data-name="Group 2790">
            <g id="Group_2789" data-name="Group 2789">
              <path id="Path_11439" data-name="Path 11439" d="M54.916,73.332A18.416,18.416,0,1,1,73.332,54.916,18.436,18.436,0,0,1,54.916,73.332Zm0-35.358A16.942,16.942,0,1,0,71.858,54.916,16.962,16.962,0,0,0,54.916,37.973Z" transform="translate(-36.5 -36.5)" fill="#1a237e"/>
            </g>
          </g>
        </g>
        <g id="Group_2796" data-name="Group 2796" transform="translate(61.877 27.255)">
          <g id="Group_2793" data-name="Group 2793" transform="translate(0.737 0.737)">
            <g id="Group_2792" data-name="Group 2792">
              <circle id="Ellipse_123" data-name="Ellipse 123" cx="5.893" cy="5.893" r="5.893" fill="#ffa000"/>
            </g>
          </g>
          <g id="Group_2795" data-name="Group 2795">
            <g id="Group_2794" data-name="Group 2794">
              <path id="Path_11440" data-name="Path 11440" d="M51.13,57.759a6.63,6.63,0,1,1,6.63-6.63A6.638,6.638,0,0,1,51.13,57.759Zm0-11.786a5.156,5.156,0,1,0,5.156,5.156A5.162,5.162,0,0,0,51.13,45.973Z" transform="translate(-44.5 -44.5)" fill="#1a237e"/>
            </g>
          </g>
        </g>
        <g id="Group_2799" data-name="Group 2799" transform="translate(67.77 33.148)">
          <g id="Group_2798" data-name="Group 2798">
            <g id="Group_2797" data-name="Group 2797">
              <path id="Path_11441" data-name="Path 11441" d="M49.237,63.233a.737.737,0,0,1,0-1.473A12.537,12.537,0,0,0,61.759,49.237a.737.737,0,0,1,1.473,0A14.012,14.012,0,0,1,49.237,63.233Z" transform="translate(-48.5 -48.5)" fill="#1a237e"/>
            </g>
          </g>
        </g>
        <g id="Group_2802" data-name="Group 2802" transform="translate(17.679 11.076)">
          <g id="Group_2801" data-name="Group 2801">
            <g id="Group_2800" data-name="Group 2800">
              <path id="Path_11442" data-name="Path 11442" d="M40.753,57.064H15.237a.737.737,0,0,1-.638-1.1l12.758-22.1a.767.767,0,0,1,1.276,0l12.758,22.1a.737.737,0,0,1-.638,1.1ZM16.512,55.59H39.478L27.995,35.7Z" transform="translate(-14.5 -33.518)" fill="#1a237e"/>
            </g>
          </g>
        </g>
        <g id="Group_2805" data-name="Group 2805" transform="translate(48.631)">
          <g id="Group_2804" data-name="Group 2804">
            <g id="Group_2803" data-name="Group 2803">
              <path id="Path_11443" data-name="Path 11443" d="M55.385,60.622a.739.739,0,0,1-.639-.368L35.608,27.1a.737.737,0,0,1,.639-1.1h7.366a3.682,3.682,0,1,1,0,7.365.781.781,0,0,1-.787-.737.7.7,0,0,1,.687-.737,2.236,2.236,0,0,0,2.31-2.208,2.213,2.213,0,0,0-2.21-2.21h-6.09l18.5,32.043a.737.737,0,0,1-.27,1.006A.728.728,0,0,1,55.385,60.622Z" transform="translate(-35.509 -26)" fill="#1a237e"/>
            </g>
          </g>
        </g>
        <g id="Group_2808" data-name="Group 2808" transform="translate(27.96 6.757)">
          <g id="Group_2807" data-name="Group 2807">
            <g id="Group_2806" data-name="Group 2806">
              <path id="Path_11444" data-name="Path 11444" d="M37.453,58.451a.739.739,0,0,1-.639-.368L21.577,31.692a.737.737,0,0,1,1.276-.737L38.089,57.346a.737.737,0,0,1-.27,1.006A.719.719,0,0,1,37.453,58.451Z" transform="translate(-21.478 -30.586)" fill="#1a237e"/>
            </g>
          </g>
        </g>
        <g id="Group_2811" data-name="Group 2811" transform="translate(30.438 11.049)">
          <g id="Group_2810" data-name="Group 2810">
            <g id="Group_2809" data-name="Group 2809">
              <path id="Path_11445" data-name="Path 11445" d="M48.471,34.973H23.9a.737.737,0,1,1,0-1.473H48.471a.737.737,0,1,1,0,1.473Z" transform="translate(-23.16 -33.5)" fill="#1a237e"/>
            </g>
          </g>
        </g>
        <g id="Group_2814" data-name="Group 2814" transform="translate(43.196 11.866)">
          <g id="Group_2813" data-name="Group 2813">
            <g id="Group_2812" data-name="Group 2812">
              <path id="Path_11446" data-name="Path 11446" d="M32.557,56.81a.728.728,0,0,1-.368-.1.737.737,0,0,1-.27-1.006L44.206,34.424a.737.737,0,1,1,1.276.737L33.195,56.442A.735.735,0,0,1,32.557,56.81Z" transform="translate(-31.82 -34.054)" fill="#1a237e"/>
            </g>
          </g>
        </g>
        <g id="Group_2819" data-name="Group 2819" transform="translate(23.541 0.122)">
          <g id="Group_2816" data-name="Group 2816" transform="translate(0.735 0.737)">
            <g id="Group_2815" data-name="Group 2815">
              <path id="Path_11447" data-name="Path 11447" d="M25.976,30.266H20.82a1.842,1.842,0,0,1-1.842-1.842h0a1.842,1.842,0,0,1,1.842-1.842h5.156a1.842,1.842,0,0,1,1.842,1.842h0A1.841,1.841,0,0,1,25.976,30.266Z" transform="translate(-18.978 -26.583)" fill="#ffa000"/>
            </g>
          </g>
          <g id="Group_2818" data-name="Group 2818">
            <g id="Group_2817" data-name="Group 2817">
              <path id="Path_11448" data-name="Path 11448" d="M26.214,31.239H21.057a2.578,2.578,0,1,1,0-5.156h5.156a2.578,2.578,0,0,1,0,5.156Zm-5.156-3.683a1.1,1.1,0,0,0,0,2.21h5.156a1.1,1.1,0,0,0,0-2.21Z" transform="translate(-18.479 -26.083)" fill="#1a237e"/>
            </g>
          </g>
        </g>
      </g>
      <g id="Group_2848" data-name="Group 2848" transform="translate(61.877)">
        <g id="Group_2823" data-name="Group 2823" transform="translate(7.366 7.366)">
          <g id="Group_2822" data-name="Group 2822">
            <g id="Group_2821" data-name="Group 2821">
              <path id="Path_11449" data-name="Path 11449" d="M54.658,17.813h-.025A5.156,5.156,0,0,1,54.655,7.5h.025a5.156,5.156,0,0,1-.022,10.313Zm0-8.84a3.684,3.684,0,0,0-.015,7.368h.018a3.684,3.684,0,0,0,3.68-3.667l.737,0-.737,0a3.689,3.689,0,0,0-3.667-3.7Z" transform="translate(-49.5 -7.5)" fill="#1a237e"/>
            </g>
          </g>
        </g>
        <g id="Group_2826" data-name="Group 2826" transform="translate(11.818)">
          <g id="Group_2825" data-name="Group 2825">
            <g id="Group_2824" data-name="Group 2824">
              <path id="Path_11450" data-name="Path 11450" d="M53.259,8.393h0a.737.737,0,0,1-.734-.74l.019-4.42a.737.737,0,0,1,.737-.734h0a.737.737,0,0,1,.734.74L54,7.659A.737.737,0,0,1,53.259,8.393Z" transform="translate(-52.522 -2.5)" fill="#1a237e"/>
            </g>
          </g>
        </g>
        <g id="Group_2829" data-name="Group 2829" transform="translate(11.733 19.152)">
          <g id="Group_2828" data-name="Group 2828">
            <g id="Group_2827" data-name="Group 2827">
              <path id="Path_11451" data-name="Path 11451" d="M53.2,21.393h0a.738.738,0,0,1-.734-.74l.021-4.42a.737.737,0,0,1,.737-.734h0a.738.738,0,0,1,.734.74l-.021,4.42A.737.737,0,0,1,53.2,21.393Z" transform="translate(-52.464 -15.5)" fill="#1a237e"/>
            </g>
          </g>
        </g>
        <g id="Group_2832" data-name="Group 2832" transform="translate(19.152 11.818)">
          <g id="Group_2831" data-name="Group 2831">
            <g id="Group_2830" data-name="Group 2830">
              <path id="Path_11452" data-name="Path 11452" d="M62.656,12.016h0L58.234,12a.737.737,0,0,1,0-1.473h0l4.42.021a.737.737,0,0,1,0,1.473Z" transform="translate(-57.5 -10.522)" fill="#1a237e"/>
            </g>
          </g>
        </g>
        <g id="Group_2835" data-name="Group 2835" transform="translate(0 11.735)">
          <g id="Group_2834" data-name="Group 2834">
            <g id="Group_2833" data-name="Group 2833">
              <path id="Path_11453" data-name="Path 11453" d="M49.656,11.957h0l-4.42-.019a.737.737,0,0,1,0-1.473h0l4.42.019a.737.737,0,0,1,0,1.473Z" transform="translate(-44.5 -10.465)" fill="#1a237e"/>
            </g>
          </g>
        </g>
        <g id="Group_2838" data-name="Group 2838" transform="translate(17.018 4.527)">
          <g id="Group_2837" data-name="Group 2837">
            <g id="Group_2836" data-name="Group 2836">
              <path id="Path_11454" data-name="Path 11454" d="M56.788,9.119a.737.737,0,0,1-.519-1.26l2.092-2.074A.737.737,0,0,1,59.4,6.833L57.306,8.907A.728.728,0,0,1,56.788,9.119Z" transform="translate(-56.051 -5.573)" fill="#1a237e"/>
            </g>
          </g>
        </g>
        <g id="Group_2841" data-name="Group 2841" transform="translate(4.461 16.973)">
          <g id="Group_2840" data-name="Group 2840">
            <g id="Group_2839" data-name="Group 2839">
              <path id="Path_11455" data-name="Path 11455" d="M48.265,17.567a.737.737,0,0,1-.519-1.26l2.092-2.074a.737.737,0,0,1,1.037,1.047l-2.092,2.074A.734.734,0,0,1,48.265,17.567Z" transform="translate(-47.528 -14.021)" fill="#1a237e"/>
            </g>
          </g>
        </g>
        <g id="Group_2844" data-name="Group 2844" transform="translate(16.972 17.02)">
          <g id="Group_2843" data-name="Group 2843">
            <g id="Group_2842" data-name="Group 2842">
              <path id="Path_11456" data-name="Path 11456" d="M58.831,17.617a.738.738,0,0,1-.523-.218l-2.074-2.092a.736.736,0,1,1,1.046-1.036l2.074,2.092a.735.735,0,0,1-.523,1.254Z" transform="translate(-56.02 -14.053)" fill="#1a237e"/>
            </g>
          </g>
        </g>
        <g id="Group_2847" data-name="Group 2847" transform="translate(4.526 4.462)">
          <g id="Group_2846" data-name="Group 2846">
            <g id="Group_2845" data-name="Group 2845">
              <path id="Path_11457" data-name="Path 11457" d="M50.383,9.094a.738.738,0,0,1-.523-.218L47.786,6.783a.736.736,0,1,1,1.046-1.036l2.074,2.094a.735.735,0,0,1-.523,1.254Z" transform="translate(-47.572 -5.529)" fill="#1a237e"/>
            </g>
          </g>
        </g>
      </g>
      <g id="Group_2851" data-name="Group 2851" transform="translate(0.737 24.96)">
        <g id="Group_2850" data-name="Group 2850">
          <g id="Group_2849" data-name="Group 2849">
            <path id="Path_11458" data-name="Path 11458" d="M11.853,22.4a2.947,2.947,0,0,0-5.893-.027,2.947,2.947,0,0,0-.027,5.893l5.893.027a2.947,2.947,0,0,0,.027-5.893Z" transform="translate(-3 -19.442)" fill="#4fc3f7"/>
          </g>
        </g>
      </g>
      <g id="Group_2859" data-name="Group 2859" transform="translate(20.595 16.154)">
        <g id="Group_2858" data-name="Group 2858">
          <g id="Group_2854" data-name="Group 2854">
            <g id="Group_2853" data-name="Group 2853">
              <g id="Group_2852" data-name="Group 2852">
                <path id="Path_11459" data-name="Path 11459" d="M18.689,14.938H17.216a.737.737,0,0,1,0-1.473h1.473a.737.737,0,0,1,0,1.473Z" transform="translate(-16.479 -13.465)" fill="#1a237e"/>
              </g>
            </g>
          </g>
          <g id="Group_2857" data-name="Group 2857" transform="translate(4.42)">
            <g id="Group_2856" data-name="Group 2856">
              <g id="Group_2855" data-name="Group 2855">
                <path id="Path_11460" data-name="Path 11460" d="M39.368,14.938H20.216a.737.737,0,0,1,0-1.473H39.368a.737.737,0,0,1,0,1.473Z" transform="translate(-19.479 -13.465)" fill="#1a237e"/>
              </g>
            </g>
          </g>
        </g>
      </g>
      <g id="Group_2864" data-name="Group 2864" transform="translate(32.381 20.574)">
        <g id="Group_2863" data-name="Group 2863">
          <g id="Group_2862" data-name="Group 2862">
            <g id="Group_2861" data-name="Group 2861">
              <g id="Group_2860" data-name="Group 2860">
                <path id="Path_11461" data-name="Path 11461" d="M44.368,17.938H25.216a.737.737,0,0,1,0-1.473H44.368a.737.737,0,0,1,0,1.473Z" transform="translate(-24.479 -16.465)" fill="#1a237e"/>
              </g>
            </g>
          </g>
        </g>
      </g>
    </g>
  </g>
</svg>
