<svg xmlns="http://www.w3.org/2000/svg" width="101.152" height="82.977" viewBox="0 0 101.152 82.977">
  <g id="Car_Rental" transform="translate(0 -6)">
    <g id="Group_2943" data-name="Group 2943" transform="translate(0 6)">
      <g id="Group_2868" data-name="Group 2868" transform="translate(34.178 71.913)">
        <g id="Group_2867" data-name="Group 2867">
          <g id="Group_2866" data-name="Group 2866">
            <path id="Path_11462" data-name="Path 11462" d="M57.779,53.081H22.415a.79.79,0,0,1,0-1.581H57.779a.79.79,0,1,1,0,1.581Z" transform="translate(-21.625 -51.5)" fill="#1a237e"/>
          </g>
        </g>
      </g>
      <g id="Group_2871" data-name="Group 2871" transform="translate(72.703 62.43)">
        <g id="Group_2870" data-name="Group 2870">
          <g id="Group_2869" data-name="Group 2869">
            <path id="Path_11463" data-name="Path 11463" d="M56.273,66.047A10.273,10.273,0,1,1,66.547,55.773,10.285,10.285,0,0,1,56.273,66.047Zm0-18.966a8.693,8.693,0,1,0,8.693,8.693A8.7,8.7,0,0,0,56.273,47.081Z" transform="translate(-46 -45.5)" fill="#1a237e"/>
          </g>
        </g>
      </g>
      <g id="Group_2874" data-name="Group 2874" transform="translate(77.445 67.172)">
        <g id="Group_2873" data-name="Group 2873">
          <g id="Group_2872" data-name="Group 2872">
            <path id="Path_11464" data-name="Path 11464" d="M54.532,59.564a5.532,5.532,0,1,1,5.532-5.532A5.538,5.538,0,0,1,54.532,59.564Zm0-9.483a3.951,3.951,0,1,0,3.951,3.951A3.955,3.955,0,0,0,54.532,50.081Z" transform="translate(-49 -48.5)" fill="#1a237e"/>
          </g>
        </g>
      </g>
      <g id="Group_2877" data-name="Group 2877" transform="translate(12.051 62.43)">
        <g id="Group_2876" data-name="Group 2876">
          <g id="Group_2875" data-name="Group 2875">
            <path id="Path_11465" data-name="Path 11465" d="M17.9,66.047A10.273,10.273,0,1,1,28.172,55.773,10.285,10.285,0,0,1,17.9,66.047Zm0-18.966a8.693,8.693,0,1,0,8.693,8.693A8.7,8.7,0,0,0,17.9,47.081Z" transform="translate(-7.625 -45.5)" fill="#1a237e"/>
          </g>
        </g>
      </g>
      <g id="Group_2880" data-name="Group 2880" transform="translate(16.793 67.172)">
        <g id="Group_2879" data-name="Group 2879">
          <g id="Group_2878" data-name="Group 2878">
            <path id="Path_11466" data-name="Path 11466" d="M16.157,59.564a5.532,5.532,0,1,1,5.532-5.532A5.538,5.538,0,0,1,16.157,59.564Zm0-9.483a3.951,3.951,0,1,0,3.951,3.951A3.956,3.956,0,0,0,16.157,50.081Z" transform="translate(-10.625 -48.5)" fill="#1a237e"/>
          </g>
        </g>
      </g>
      <g id="Group_2885" data-name="Group 2885" transform="translate(14.718 35.561)">
        <g id="Group_2882" data-name="Group 2882" transform="translate(0.792 0.79)">
          <g id="Group_2881" data-name="Group 2881">
            <path id="Path_11467" data-name="Path 11467" d="M62.218,30.8A23.778,23.778,0,0,0,60.06,29H14.67a3.953,3.953,0,0,0-3.8,2.865l-.9,3.161a3.951,3.951,0,0,0,3.8,5.037h58.18Z" transform="translate(-9.813 -29)" fill="#4fc3f7"/>
          </g>
        </g>
        <g id="Group_2884" data-name="Group 2884">
          <g id="Group_2883" data-name="Group 2883">
            <path id="Path_11468" data-name="Path 11468" d="M72.237,41.144H14.057A4.742,4.742,0,0,1,9.5,35.1l.9-3.161a4.762,4.762,0,0,1,4.56-3.439H60.35a.792.792,0,0,1,.474.158,24,24,0,0,1,2.229,1.859l9.728,9.265a.79.79,0,0,1-.544,1.362ZM14.961,30.081a3.175,3.175,0,0,0-3.039,2.293l-.9,3.161a3.161,3.161,0,0,0,3.038,4.029h56.2l-8.3-7.9h0a22.182,22.182,0,0,0-1.878-1.581Z" transform="translate(-9.312 -28.5)" fill="#1a237e"/>
          </g>
        </g>
      </g>
      <g id="Group_2888" data-name="Group 2888" transform="translate(76.852 49.786)">
        <g id="Group_2887" data-name="Group 2887">
          <g id="Group_2886" data-name="Group 2886">
            <path id="Path_11469" data-name="Path 11469" d="M49.415,50.144a.791.791,0,0,1-.79-.79V38.29a.79.79,0,1,1,1.581,0V49.354A.791.791,0,0,1,49.415,50.144Z" transform="translate(-48.625 -37.5)" fill="#1a237e"/>
          </g>
        </g>
      </g>
      <g id="Group_2891" data-name="Group 2891" transform="translate(50.576 49.786)">
        <g id="Group_2890" data-name="Group 2890">
          <g id="Group_2889" data-name="Group 2889">
            <path id="Path_11470" data-name="Path 11470" d="M32.79,58.047a.791.791,0,0,1-.79-.79V38.29a.79.79,0,0,1,1.581,0V57.256A.791.791,0,0,1,32.79,58.047Z" transform="translate(-32 -37.5)" fill="#1a237e"/>
          </g>
        </g>
      </g>
      <g id="Group_2894" data-name="Group 2894" transform="translate(29.437 49.786)">
        <g id="Group_2893" data-name="Group 2893">
          <g id="Group_2892" data-name="Group 2892">
            <path id="Path_11471" data-name="Path 11471" d="M19.415,51.725a.791.791,0,0,1-.79-.79V38.29a.79.79,0,0,1,1.581,0V50.934A.791.791,0,0,1,19.415,51.725Z" transform="translate(-18.625 -37.5)" fill="#1a237e"/>
          </g>
        </g>
      </g>
      <g id="Group_2897" data-name="Group 2897" transform="translate(10.273 51.366)">
        <g id="Group_2896" data-name="Group 2896">
          <g id="Group_2895" data-name="Group 2895">
            <path id="Path_11472" data-name="Path 11472" d="M10.451,46.4A3.951,3.951,0,1,1,14.4,42.451,3.956,3.956,0,0,1,10.451,46.4Zm0-6.322a2.371,2.371,0,1,0,2.371,2.371A2.374,2.374,0,0,0,10.451,40.081Z" transform="translate(-6.5 -38.5)" fill="#1a237e"/>
          </g>
        </g>
      </g>
      <g id="Group_2900" data-name="Group 2900" transform="translate(50.576 35.561)">
        <g id="Group_2899" data-name="Group 2899">
          <g id="Group_2898" data-name="Group 2898">
            <path id="Path_11473" data-name="Path 11473" d="M32.79,41.144a.791.791,0,0,1-.79-.79V29.29a.79.79,0,0,1,1.581,0V40.354A.791.791,0,0,1,32.79,41.144Z" transform="translate(-32 -28.5)" fill="#1a237e"/>
          </g>
        </g>
      </g>
      <g id="Group_2903" data-name="Group 2903" transform="translate(29.437 35.561)">
        <g id="Group_2902" data-name="Group 2902">
          <g id="Group_2901" data-name="Group 2901">
            <path id="Path_11474" data-name="Path 11474" d="M19.415,41.144a.791.791,0,0,1-.79-.79V29.29a.79.79,0,1,1,1.581,0V40.354A.791.791,0,0,1,19.415,41.144Z" transform="translate(-18.625 -28.5)" fill="#1a237e"/>
          </g>
        </g>
      </g>
      <g id="Group_2906" data-name="Group 2906" transform="translate(0 30.82)">
        <g id="Group_2905" data-name="Group 2905">
          <g id="Group_2904" data-name="Group 2904">
            <path id="Path_11475" data-name="Path 11475" d="M98.782,68.174H95.621a.79.79,0,0,1,0-1.581h3.161a.793.793,0,0,0,.79-.79V59.481a.793.793,0,0,0-.79-.79h-.808a.791.791,0,0,1-.779-.657l-1.219-7.144a7.129,7.129,0,0,0-5.793-5.813l-12.677-2.2a.79.79,0,0,1-.409-.205L67.369,33.4a22.824,22.824,0,0,0-15.805-6.322H5.532a.792.792,0,0,0-.79.79v1.581a.792.792,0,0,0,.79.79H7.555a2.369,2.369,0,0,1,2.061,3.543L6.722,38.844A15.036,15.036,0,0,0,4.742,46.3V57.9a.791.791,0,0,1-.79.79H2.371a.792.792,0,0,0-.79.79V65.8a.792.792,0,0,0,.79.79h7.31a.79.79,0,1,1,0,1.581H2.371A2.374,2.374,0,0,1,0,65.8V59.481A2.374,2.374,0,0,1,2.371,57.11h.79V46.3A16.617,16.617,0,0,1,5.35,38.06L8.244,33a.776.776,0,0,0,0-.786.785.785,0,0,0-.688-.394H5.532a2.374,2.374,0,0,1-2.371-2.371V27.871A2.374,2.374,0,0,1,5.532,25.5H51.564a24.4,24.4,0,0,1,16.894,6.757l9.556,9.1,12.442,2.164a8.708,8.708,0,0,1,7.079,7.1l1.1,6.486h.142a2.374,2.374,0,0,1,2.371,2.371V65.8A2.374,2.374,0,0,1,98.782,68.174Z" transform="translate(0 -25.5)" fill="#1a237e"/>
          </g>
        </g>
      </g>
      <g id="Group_2909" data-name="Group 2909" transform="translate(34.178 71.913)">
        <g id="Group_2908" data-name="Group 2908">
          <g id="Group_2907" data-name="Group 2907">
            <path id="Path_11476" data-name="Path 11476" d="M57.779,53.081H22.415a.79.79,0,0,1,0-1.581H57.779a.79.79,0,1,1,0,1.581Z" transform="translate(-21.625 -51.5)" fill="#1a237e"/>
          </g>
        </g>
      </g>
      <g id="Group_2912" data-name="Group 2912" transform="translate(2.371)">
        <g id="Group_2911" data-name="Group 2911">
          <g id="Group_2910" data-name="Group 2910">
            <path id="Path_11477" data-name="Path 11477" d="M11,9.175a3.161,3.161,0,1,0-6.322-.028,3.161,3.161,0,1,0-.028,6.322l6.322.028A3.161,3.161,0,1,0,11,9.175Z" transform="translate(-1.5 -6)" fill="#4fc3f7"/>
          </g>
        </g>
      </g>
      <g id="Group_2920" data-name="Group 2920" transform="translate(16.298 15.805)">
        <g id="Group_2919" data-name="Group 2919">
          <g id="Group_2915" data-name="Group 2915">
            <g id="Group_2914" data-name="Group 2914">
              <g id="Group_2913" data-name="Group 2913">
                <path id="Path_11478" data-name="Path 11478" d="M12.683,17.581H11.1A.79.79,0,0,1,11.1,16h1.581a.79.79,0,0,1,0,1.581Z" transform="translate(-10.312 -16)" fill="#1a237e"/>
              </g>
            </g>
          </g>
          <g id="Group_2918" data-name="Group 2918" transform="translate(4.742)">
            <g id="Group_2917" data-name="Group 2917">
              <g id="Group_2916" data-name="Group 2916">
                <path id="Path_11479" data-name="Path 11479" d="M34.649,17.581H14.1A.79.79,0,0,1,14.1,16H34.649a.79.79,0,0,1,0,1.581Z" transform="translate(-13.312 -16)" fill="#1a237e"/>
              </g>
            </g>
          </g>
        </g>
      </g>
      <g id="Group_2925" data-name="Group 2925" transform="translate(28.942 20.547)">
        <g id="Group_2924" data-name="Group 2924" transform="translate(0 0)">
          <g id="Group_2923" data-name="Group 2923">
            <g id="Group_2922" data-name="Group 2922">
              <g id="Group_2921" data-name="Group 2921">
                <path id="Path_11480" data-name="Path 11480" d="M39.649,20.581H19.1A.79.79,0,1,1,19.1,19H39.649a.79.79,0,1,1,0,1.581Z" transform="translate(-18.312 -19)" fill="#1a237e"/>
              </g>
            </g>
          </g>
        </g>
      </g>
      <g id="Group_2928" data-name="Group 2928" transform="translate(64.01 4.742)">
        <g id="Group_2927" data-name="Group 2927">
          <g id="Group_2926" data-name="Group 2926">
            <circle id="Ellipse_124" data-name="Ellipse 124" cx="14.225" cy="14.225" r="14.225" fill="#66bb6a"/>
          </g>
        </g>
      </g>
      <g id="Group_2942" data-name="Group 2942" transform="translate(71.123 11.854)">
        <g id="Group_2933" data-name="Group 2933" transform="translate(12.644 3.687)">
          <g id="Group_2930" data-name="Group 2930" transform="translate(0.79 0.79)">
            <g id="Group_2929" data-name="Group 2929">
              <path id="Path_11481" data-name="Path 11481" d="M53.5,21.865V16.333H67.725a1.581,1.581,0,0,1,1.581,1.581v1.394a1.578,1.578,0,0,1-.874,1.413l-1.467.733a1.583,1.583,0,0,1-1.584-.1l-.73-.487a1.579,1.579,0,0,0-1.753,0l-1.1.73a1.573,1.573,0,0,1-.877.266H53.5Z" transform="translate(-53.5 -16.333)" fill="#fff"/>
            </g>
          </g>
          <g id="Group_2932" data-name="Group 2932">
            <g id="Group_2931" data-name="Group 2931">
              <path id="Path_11482" data-name="Path 11482" d="M61.214,22.945H53.79a.791.791,0,0,1-.79-.79V16.623a.791.791,0,0,1,.79-.79H68.015A2.374,2.374,0,0,1,70.386,18.2V19.6a2.357,2.357,0,0,1-1.312,2.121l-1.467.733a2.374,2.374,0,0,1-2.374-.145l-.732-.49a.8.8,0,0,0-.877,0l-1.1.73A2.36,2.36,0,0,1,61.214,22.945Zm-6.633-1.581h6.633a.784.784,0,0,0,.438-.133l1.1-.73a2.37,2.37,0,0,1,2.63,0l.73.488a.794.794,0,0,0,.79.049l1.47-.735a.781.781,0,0,0,.438-.706V18.2a.793.793,0,0,0-.79-.79H54.581Z" transform="translate(-53 -15.833)" fill="#1a237e"/>
            </g>
          </g>
        </g>
        <g id="Group_2938" data-name="Group 2938">
          <g id="Group_2935" data-name="Group 2935" transform="translate(0.79 0.79)">
            <g id="Group_2934" data-name="Group 2934">
              <path id="Path_11483" data-name="Path 11483" d="M45.5,22.693V17.951A3.951,3.951,0,0,1,49.451,14h4.742a3.951,3.951,0,0,1,3.951,3.951v4.742a3.951,3.951,0,0,1-3.951,3.951H49.451A3.951,3.951,0,0,1,45.5,22.693Z" transform="translate(-45.5 -14)" fill="#fff"/>
            </g>
          </g>
          <g id="Group_2937" data-name="Group 2937">
            <g id="Group_2936" data-name="Group 2936">
              <path id="Path_11484" data-name="Path 11484" d="M54.483,27.725H49.742A4.747,4.747,0,0,1,45,22.983V18.242A4.747,4.747,0,0,1,49.742,13.5h4.742a4.747,4.747,0,0,1,4.742,4.742v4.742A4.747,4.747,0,0,1,54.483,27.725ZM49.742,15.081a3.164,3.164,0,0,0-3.161,3.161v4.742a3.164,3.164,0,0,0,3.161,3.161h4.742a3.164,3.164,0,0,0,3.161-3.161V18.242a3.164,3.164,0,0,0-3.161-3.161Z" transform="translate(-45 -13.5)" fill="#1a237e"/>
            </g>
          </g>
        </g>
        <g id="Group_2941" data-name="Group 2941" transform="translate(4.742 3.687)">
          <g id="Group_2940" data-name="Group 2940">
            <g id="Group_2939" data-name="Group 2939">
              <path id="Path_11485" data-name="Path 11485" d="M48.79,22.945a.791.791,0,0,1-.79-.79V16.623a.79.79,0,1,1,1.581,0v5.532A.791.791,0,0,1,48.79,22.945Z" transform="translate(-48 -15.833)" fill="#1a237e"/>
            </g>
          </g>
        </g>
      </g>
    </g>
  </g>
</svg>
